<mxfile host="Electron" agent="Mozilla/5.0 (Windows NT 10.0; Win64; x64) AppleWebKit/537.36 (KHTML, like Gecko) draw.io/27.0.9 Chrome/134.0.6998.205 Electron/35.4.0 Safari/537.36" version="27.0.9">
  <diagram name="PÃ¡gina-1" id="IKVGy_DopQR0RWY-qbrC">
    <mxGraphModel dx="946" dy="1830" grid="1" gridSize="10" guides="1" tooltips="1" connect="1" arrows="1" fold="1" page="1" pageScale="1" pageWidth="827" pageHeight="1169" math="0" shadow="0">
      <root>
        <mxCell id="0" />
        <mxCell id="1" parent="0" />
        <mxCell id="g7_WcWtdG0JX1u72Nw5H-3" value="" style="endArrow=none;html=1;rounded=0;exitX=0.91;exitY=0.025;exitDx=0;exitDy=0;exitPerimeter=0;" edge="1" target="g7_WcWtdG0JX1u72Nw5H-4" parent="1" source="tby80TmxBhAo45sjsNx7-24">
          <mxGeometry relative="1" as="geometry">
            <mxPoint x="930" y="65" as="sourcePoint" />
            <mxPoint x="990" y="65" as="targetPoint" />
          </mxGeometry>
        </mxCell>
        <mxCell id="tby80TmxBhAo45sjsNx7-23" value="" style="shape=image;verticalLabelPosition=bottom;labelBackgroundColor=default;verticalAlign=top;aspect=fixed;imageAspect=0;image=data:image/png,iVBORw0KGgoAAAANSUhEUgAAAtUAAADDCAYAAABNo+3EAAAAAXNSR0IArs4c6QAAAARnQU1BAACxjwv8YQUAAAAJcEhZcwAADsMAAA7DAcdvqGQAAP1TSURBVHhe7J13WBTX+se/7C5dEDQakSiouEZjIxALdonhZ2LBJIoXG8bGTYLdRDGxG6JezY0mscUWRRNujNcKtlBEig2kCQaRIt1lFwWk7Mz7+2Opy+4szURzz+d5fB6ZOXPmnLfNuzPvmdEjIgKDwWAwGAwGg8FoMiL1DQwGg8FgMBgMBqNxsKSawWAwGAwGg8FoJiyp/rvDP0VKbDIUvPqO50kx0qLuIqNUfbsWSjMRey8Xf+oQGQwGg8FgMFoQ7Um1MhM3/7sHSycNx9AhQzBk2ATMWbESKz9bhk89XDF66FAMn/YDEpSV7UtCsdbpVbS2ccWeRE6tsxaEz8DPs3vAsq09lvgXqO9Vg0fGz7PRw7It7Jf4Q1drzfDICfwXZg61Q1tTI7S2GYK5B2NRot4MgDI7DIe+mImJk2bjs3/9B9EFDUkTS5B0+QDWf+SCoUOHYsTb4/Ch24dwnfgh5qz8AYHpZeoHNBAOGb9vh8eALnjDbR8Sq/T0J8Cn7sPMwU6YdyRHOFHmFYg6thTOdnYYuSkU5er7GQwGg8FgMF4StCfVEmu85TobEzplIiIsDGE3lRjs/TW+3rod3x3+GT8ufh3yhHQ8rcqaSjORlPwYT7OT8ED2PJNqOf6Iz0ChPAUJD59A+Ew85H/EI6NQjpSEh3gi3FgjT0P/jc0Bhnh30Rfweuc1lGWE4eAnC7DzXu3OypHy60IM6fcu/p33f9hy7BC2Lp+M/m20i7cGE/QYMwcrXK3wR8Q9dPrkV/z6y684vn0KxOeXw2XIdBx52ISBQ4xOo70wb0Rb/NlLUUW28/FTeBj2z+ogYGAARBawd1+CiVLCnzxEBoPBYDAYjBZFMOcB9KCvL4FenW1lyM0pge37X+HzseY1+9q44eDt27geHQyfIQZ1jmhRJH2x+mIUwiKj8OvHthCr76+DBH1XX0RUWCSifv0YtsKNNcDhaQdX+GzxwtTJHlh3eDMmWohAykIoqjN0HrlnvTB2+vd48NYWnNrtjtdN1bppABKL1jCrpQ0TuynYsnIsTDNPY9exRDTtRrMYFha1dPSnYQob+37oZKS+XQMic5iZ/vkjZDAYDAaDwWhJdCTVGii/iaNH76BC1B4TvWajpwQAX4ik0AAEx2VDkZ6IP+qUPTzFvQv78PXGLdh3PgGFAIASpEZehL+/P/wDghEv41CcdA7f+XyPK+lVyWohkgIOYOv6tdi06ySiZDwADlm3L+JiRArkj//AvdqlEYVJCDiwFevXbsKuk1GQ8QCXdRsXL0YgRf4Yf9xLR01rHrK7/8Vun/XYsO0gApKeailTEKOjXVe0qvyLLyqAosIEvWatw8eOlT8cnl7CmkUH8QfXHbO8PdBVQ+LO50fgyJYtOBKRr+U8mjFs1QoGegBxGu5Ul2Qh9noQQm6n1TwtqEJZgOQbwQiJysAztV314BV4EBmMa9HpKJRlIbu49k4O8pRbuBYSgcQ8TcUZ5chLDEdQUCSS5XXHWJoZg4ScWgNTynA/MhBXg24iRVG7rQh6LKdmMBgMBoPxktO4pJo45J49gN9SVPdNzaysVHdXRa1h0y4WW95/D++Om43dMRWq9lwa/OYMwPDN2RjtMQD3Ph+CYQvPI483QQfLOGz74D28O24GdhzbhgnDXLHQewmW7Y8B+Ez8Nt8JQ9alY+j7lghaNQVOQ5fgcqEYr3Yuws/zxuPddydg1RkZeAB85m+Y7zQE69KH4n3LIKya4oShSy6j6NXOKPp5Hsa/+y4mrDoDGQ8AStw/5AaHwYsRYeeB2T3C8OmbffDh3vhaSbc65ci7exLrZm/C72WmaGNpWLmdR96vu/FLqhJ6rV8Dhf8L69Z9jf2Xk1GTm5YhcK0b5qxciTmTv8RV7SepS2kCDu71R4HlSMye+gYk1Tt4ZAdsxLxlexEccxO/LBsK6fDVuKKaHEpi92GGy1wciM5E8llveO29r71EpjwGOz28cDxDidKEg5g26EP8mFp5T1wRgX97uGGlXyzSk85g2bBecNkQiPzKPJnPD8LmmR7415U05MXswgSpI7xOZ0Mpj8KJz96BXbfhWB+iWqnIpRzDrEEf4Nu7j5ET5gMX6VCsD9dUlc5gMBgMBoPxkkKClFHoUilJAILEjt6ZMYa6mUjIep4/lao3LT5BH7bSI4i7kldgKRFxlHdiCrUXGdCIb1KJo2d0fo4ViQ0G0KY4JdGzUzSjrYigZ0w27++im3d8afEkN/K59oTkp2aRtVif3toYT0rlPdoyxJj0DAbQ5gQlUUUMrXPQJ8CARu/KJI7kdGqWNYn136KN8UpS3ttCQ4z1yGDAZkpQVlDMOgfSB8hg9C7K5Ii47CM0qa2I9FpPoV+KSDWOV0Sk13os7U3n1GelQplGV3cupnelrUgEEESt6e1dyURUTKdmtCMR9Mhw1L8oKTeGdo1rTyKRBQ3ZGEHFqoMp9dgMkrZuTdLpR+mhUr1zFWXBC6mbxIT6friMlnhOpVE9pDRw+hr6JfZJnXZc7gmaNmolRZRV/p32DY0w0Cf7NVFUURxKK/p2pdmn5ZWti+jcHGvSf30FhVe2r01Z2HLq3f9zinhGRMRRju8m2hVfQURyurBASj0XB9OzyrbFocuop4EVTf05hzgum4672ZHL92nEERFVxNG2EW2o46xTVEREXPb35GxoTlN+KSYiJd37aiCZOKyn2AoiqrhBq3obUf81UVRBRERP6NB4I7J0/7X6XAwGg8FgMBgvGw2/Uy3ujsn/voDf936AjhqPUl9sVoprZ6/gMc8jO3AXvFeuwYmYZ6CKONy8XfsupRj9J0yDo707vvntZ6wcKkbQb+eRzenB1KwV9MSvY9mpW7ge+RuW9dRQW1EShN/OZ4PTM4VZKz2IX1+GU7euI/K3ZdDU/Onvp3G1gIeodVu0kQDQM4d5Kz3Qk2vwD3qi3lyFuDNGe32D8zcuY82Q1hDxTxB6/irAFyIzqxA8AONXO+O19n3w0fz30B4KhG/fhv/KAUAMm2k/IUmhQNLR6cJ13XpG6OO+AavHmePRw1zov/E+JvY2q9OkJOgUAjLv49x2H/j4+GCL7zO4rNuAmQ7GKArYjcMpfTBylEVlayN0sbXSWncusZbCJm0HJgyfha9OxkPfbTU+7SUBCs5i/88ZsOtnj6qyaJOBbnCVPsa54/5QyP1xIsAQ9o6VCxElb2B5kAyZh11hCkBkZoZW1SUdYkg9jyDE1wu2GUE4uOUQIuQ8yp6VNqoUhsFgMBgMBuNFRmN6rBU9CTpP+QSTu1YVI5QgNSVbrVEVRch7XAQeemjrNB+bv96Kozfk4Phi/HdmrURR1BqvdjCpdVwxcnOfggeP/JwcKAGI2/XC4P7WqCq6qENxLnKf8gCfj5wcJQAx2vUajP7WmlrzeJJfgFIC9AwMYKAHoGoZH5VDIXsinOi1HoSVPrNhJwEIeoDIEIaGIugBqKhQlU0YduuGTmKAL36IPx41ZXmhCG3f24p9n3bGrU1zsCm8dpEzj6f5Mjwz7AnXFauwalXVv5VYPMEO2Yl/QAExJA3UqqjzHBy9vAduZsHYPOVN9HBahFPpHLjcdDwq4VFeXutF0xJb2FiLUK6QQ56fh8elChTItbyzQ0+vTp20SPIM0TvnwfNgFvp95InRViL2tg8Gg8FgMBh/KxqYftXCYABmznwT+gD4rJM4dDpXvUUlpmjX1hQicEi8datygaImRBDVuZVqig4dzCECh+SQIKRqLQiuxLQDOpiLAC4ZIUGp2uuHAQAitOn8GlqLAOJ58AQApSirACAyQ8dObesKhC9A5E87cOh6zYdJ9KVSdBZJ0HvgQADm6G/fHRIQyvOykMsBeibGMNYD9MRt0O6Vyt54BZJv3MCDQsGUvRatMXLjfnzWMwn/mvclAhVV20Uw72gFk0Q/HLgqr2nOpcD/fCzMX2kDSWkcbkerFW4Tr/HHApcRh0edPLDzaiLiz3qjb/pueG2+AmXH7uhmziH+1u2a93Hz5SgrF+G1fvZ4zaozrI1z4f/LxZp3f/My+O/1RVI9BRThwpKJ8JZNxncb3eHQvuoHGUurGQwGg8Fg/H3QmVTzfGU6RkpUlPMADPFqhzYQFcViz8cbcNfSprKlntqr24wxfMIYvCLioTi/HT5BMvDgkXVhJ45ElQOoSmp5KCvXNaowwWg3V3QSA2WRP2Djb5ngAJTcOw//+HIAhOoh8RxgMhpurp0gRhkif9iI3zI5ACW4d94f8eWq5LmyMTgApmNmYXIXCaggF7kVAEofQ1bIQ/yaK/7xdt134fH5flizYDnmjBmGydsuI0WWhdDdPyPa2h3enr0BSGA/Yw6GthaBS7iJm0UAX1iIpySChfMUjHtVBECJm+tHo++gQejrvAG3tNy8pvJylFMFysoqx2syEN4HvsSAzO8w+2NfVK0fNB0zG+5dUrHXbSSmbfgRfiePwGfu5wgztYPV+BkY90oKDizxxrn0cqAsDXfi8sDJM5GWU1jvgzVchh+27r2DEhjB9l1vfDnZFiaGRtBrPQ4LPftAfvIbHExSvfWDz7mMoIwhWPjxMBi2HovZUzoh5+gCvL/4B/j95ovtn3jAT+IEOzEAngNPlXriC/EgJRdF6Ul4WFSKjOCzCM/mUFKYjejIOAAcOK7yR47a+BgMBoPBYDBeGtSLrKupeEQ3/rub5vQxIr3KxXl9319In32+nBbOmUSDO5uSnqQbLQyqXAFX/AtNaV17oaJqgd+v/+xPFmI90jNqRz0GjKGPdt2gJ1RMSb/OpTf09Qh6htRn7jGKltVaJMjl0ZUvR1AHfT3S07ekbg6jaPKac5TOKSn18ioaYSkiQEwdx22l69kccXlX6MsRHUhfT4/0LbuRw6jJtOZcOpWnXqZVIyxJBJC44zjaej2biDgquLaZ3ulsRcM/O0SHlg+jDp1daFOwTLXorjYVMfTvMR1IXw8EgKBnSNZDP6aj8aoliJWN6OHJReRkZUEO/9xN331kT52cFtOptKoViWUUubofGenpkbH9l3RDtTqvFsWUeOUgrZ9gQxI9Mb06egXtORtDBaoVgJT0/f/RK2JD6jRqAW36+Q7JOaLihGPkNdqOLA0NyLzzEJp/OK5yUSRH8hvfk8cgG7K0sCXH8Z/SujmDqMtgd/riUDhlq02w7Lo3OXXrT297fEbrNqyk+fN96GpOZaOKVDqzegI52I+kqfP+SR/N8KQdwbk1MipOIF+v0SRtZ0atrR3Jffs1yuOIqCiBzq4dSx3FErJ13Uznk0oo89RCGtDBjCy7Dae5uwPpJw8bsug6jraG51DiuTXk0kFMYhtX2nw6rtboGAwGg8FgMF4e9Iha6Ht7pb9huvVk+D7pisW/x+ObYVUfgOFQ+DAKd9OVaN/THq+311TrrJnijGjceVAMS6k9enesXXetiWJkRN/Bg2JLSO17Q2fzslwk3E5Arl4HvOHQE+21fa+GL0J6zB38UaAHiy590L+LheaFfyVZiItOxhPz7nizt1X1Aj8AAC/H/Zv3IerxFuwsdD4cYDAYDAaDwWC8ZDQ/qS65gR3zv4P+QnfcmzIOu7PssSEqAl++oTH1ZDAYDAaDwWAw/nZoTar12GfuWgQt4mUwGAwGg8Fg/I1gtQgMBoPBYDAYDEYz0XqnmsFgMBgMBoPBYDQMdqeawWAwGAwGg8FoJiypZjAYDAaDwWAwmglLqhkMBoPBYDAYjGbCkmoGg8FgMBgMBqOZsKSawWAwGAwGg8FoJiypZjAYDAaDwWAwmglLqhkMBoPBYDAYjGbCkmoGg8FgMBgMBqOZsKSawWAwGAwGg8FoJiypZjAYDAaDwWAwmglLqhkMBoPBYDAYjGbCkmoGg8FgMBgMBqOZsKSawWAwGAwGg8FoJiypZjAYDAaDwWAwmglLqhkMBoPBYDAYjGbCkmoGg8FgMBgMBqOZsKSawWAwGAwGg8FoJiypZjAYDAaDwWAwmglLqhkMBoPBYDAYjGbCkmoGg8FgMBgMBqOZvLxJNf8UKbHJUPDqO148itOicDejVH2zVkozY3Ev9yWY2N8ATn4fsQ+L1Te3GCUZMbiX1xhdliIz9h5eLvXzKEy9hdDwOOSUarL3P2lOL1FMEKK+/BgAUJwWg8T8l0y5xWmIupuBF0ubdf21peGfpiA2WYGXTFP1Kc1E7L3cl38ez5nnfQ1tPDyepsQi+S+6EGhPqrlUhBzdgU8nDsfQYe/iHws84emp+jdv1vt4Z9R07E5Qqh/1J8Ah4/ft8BjQBW+47UPiXzGExsCnYt/MwXCadwQ5OnTMK6JwbKkz7OxGYlNoufruvyfFibjwvTemjxmKoSMnYEaVnc3zwIcuIzBi9o/qR7QMXBp+3z4Tb3bpizm+aeDU9zcTXq7SpVTqDJ+whuiShyLqGJY628Fu5Ca8NOrnHsLvM09sORuO01+4QNrbFfMnD6q09z9rTi9ZTBCiEfHifwU+LwIHvEbArsc72Brx3IzoOcAjdd9MDHaahyMvijLV/bXPdBx92ELRj8vA79s9MKDLG3Dbl4iX1g15BaKOLYWznR1GbgpFYy2OK4jD6W9WYP6cuVjw6WIsXbUVJyIe4u6RIwgsU2/9EvOcr6FNgcv4Hds9BqDLG27Y91ddCEiQUgr8tAuJDcfToSd1tyf8ew6tDiqtvfFPpIxCl0rJ8PUVFF6mvu/Foyj1DkWnP1PfrBEu/VsaZWhJ7r82rP3fg2L6bforJG4/i07XmjaXG0BLPlxdu2HLUvo7fWJrSI4b40mpvq8F4FJ30AjDtjTjVEN1yVH6t6PI0NKdXg71c5Tz0yTq+O4+khER9/gKbZjuSbuv3Kxl73/WnF6umCBEY+LF/wrK5K00xPBVmn3mJZNLUSrdiU6nlho1l3eLbiY3NVpp9teD95ranwbKQmmp1JBeXxFOL5wbcnl062Zyw2I9l07fjjIkS/dfG6E7jrIvraaRXXrTP3YGU3pVelT0B535YhS9avwO7c5VO+Rl5zlfQ5tCWehSkhq+Tiv+oguB9jvVAAAxWrVupeF2tiF6zPgUk16TqO/4kxDDwsIceuqbX1BMbezRr5OR+maNiMzNYPqyTKzFEMPExKiePkXtx2DV6g/UtrYgYlOYmda37pZCZG4GE/VJCSKCuZlpPTm8uJQj4kooik3NYQRA1NYZXx7dDU9nx1r2/mfN6eWKCUI0Jl78ryA2e0njoqkN7Pt1QstosxiR367B4ftNvQOn2V9nvy5Wb9h0xBawMH8xFVUc+S3WHL7fsDvoInOYNdLglAk7Mc3tW5TNO47DXsPRybByh6kdxq//BXunW+CJ/EW4n9uCPOdraFMQW1jgrzTBpkmjJBYxub3h0K3GGYvTY5Ek44HyXMSHhSEhT9h0S9JjkZjPoTTrLm4kFtQ8OijJQuz1IITcTsNT9SdmygIk3whGSFQGnqntAgSO5RV4EBmMa9HpKJRlIVtr+Q8PxYNIBF+LRnqhDFlqDTl5Cm5dC0FEYp7GR0LleYkIDwpCZLK87qOQ0kzEJOTUqs1SQnY/EoFXg3AzRVG3rUhPY2JQkhWL60EhuJ32tE6NF694gMjga4hOL4QsKxtapwYAKEdeYjiCgiKRXM+5OchTbuFaSAQS89RnV4KMGFVNLKdIwa2wKKRXnag8FwlhobibVb84T5e8BOFzER2VgTb97Wu2KWW4HxmIq0E3kaJQH7+A/LXKTw96lcImZT7uRUQgXkORoa55aN2vV1uXZUi/cRH+/v7w97+Im+manwOKqgZUByHdCNtsDTyePoxHylMenDwZESGRSNYgQ81y0uCvZem4cfESIh4UgnucgCv+FxGW/FTVWM3eNc+pBFmx1xEUchtpdZ21gfOppKkxoQo+G9GXA+DvH4BriQrw4JB1W6WnixEPUVLdTj2G8MiOvowAf38EXEuEgge4rNu46O8P/4sReFh9IKCU3Udk4FUE3UxBXZGXID02EflcKbLu3kBiQeXOevECOmxAHWEZarXXRsRxPjsalwP84R9wDYmqyeP2RZVtR9SavM7+dPh0NbV9qTwHcdc19CVgvyhJR2xiPrjSLNy9kQiVqLXIX2BMJRkxqvUunAIpt8IQVRMIkZsQhtC7WWr106XIjEmoV8qjbZxa5cXnI2LnLEzffgOp0ZcQEBgHVXm5wLWkNhr8NTTsesvoEICyIBk3gkMQlaHBC1tUngI+XZyO2CQZeJQjNz4MYQl5lQk0j/yInZg1fTtupEbjUkAg4qpq87WOTVR9bWgYcpz+aguCeWcsmNsHBuq7Re3w3tLZ6AtS/a3RHiEQF4XiSA1/ul826BoqYKP14mqtfdr0rBElCpJvIDgkCppMUEiuLU3jk2plIe6d+BbH7qnCMZ9/A0cWj4KddCx8ThzAfJf34D7jPfTv44q9yfWVwedF4OCiUbCTjsG6PVvw4VAnDB4wG0dlPLIDNmLesr0IjrmJX5YNhXT4alyRqQRQErsPM1zm4kB0JpLPesNr7/1ayhE4tjwGOz28cDxDidKEg5g26EP8mFo/KADliNnpAa/jGVCWJuDgtEH48MfUSqdUIOLfHnBb6YfY9CScWTYMvVw2ILDKMfl8BG2eCY9/XUFaXgx2TZDC0es0spVyRJ34DO/YdcPw9SGq4MCl4NisQfjg27t4nBMGHxcphq4Pr7l4q8NnI2DjPCzbG4yYm79g2VAphq++AtXUdsLD6zgylKVIODgNgz78ERqnBoDPD8LmmR7415U05MXswgSpI7xOZ6sCuiIC//Zww0q/WKQnncGyYb3gsiEQ+TyPglvHsOxtKbqPWAe/k2sxbaoHPvpgMHoOWoaAW0fx8bhJmL1gMgb1HIa14VWz0CEvnXAovHsEu05WyR/gUo5h1qAP8O3dx8gJ84GLdCjWV51Pm/x5YflVQbnn4eVkDyfnoehj2xMTv72FIqAB89C1vzYSSO7tw+J1/0WawWvo1FZfvYFmtOoGOmy2Bi4jBLvmDoBNL3fs8l2Pd94ciDFvD0ZP6WhsuF6oaqRFTvk5Wvz1cTmKCxUorgCoohiFCgWelMhwW93eNcBnB2DjvGXYGxyDm78sw1DpcKy+oroYNmQ+VTQ5JtRG1AadX8vFT/MnYt6BBCghRptO7ZG0cxomLPVDFgctMYRHm86vIfen+Zg47wASlIC4TSe0T9qJaROWwi+LA8Ah5dgsDPrgW9x9nIMwHxdIh65HeAmPvIiDWDTKDtIx67Bny4cY6jQYAzz2IFCT/ARtQB0hGWq318bGcVGbzngt9yfMnzgPB1STR6f2Sdg5bQKW+mWhogH9Cfq0Fsof/owlU6bBc/5E2PeZhP0PKsemxX5lyjxEHFyEUXZSjFm3B1s+HAqnwW/Bfd3O+vKffRR5WsbEF9zCsWVvQ9p9BNb5ncTaaVPh8dEHGNxzEJYF3MLRj8dh0uwFmDyoJ4atDUcJeMijTuCzd+zQbfh6hFQpU8s483OF5cUrsiAztkQrnkdZsQKKwhIoG3Mtofr+WmTUER2bqUOgBLH7ZsBl7gFEZybjrLcX9t6vsRdtOm68PKHdp/NzcePIYoyyk2KszwkcmO+C99xn4L3+feC6Nxkcr0CWzBiWrXjwZcVQKApRotQ+tiZREoIzl/IgkjrirTbqO1VIXv8//F/3Ag32OACzj8oE4qK2OKJ+hr/OL7VeQ4VsVGNcVWrXs3rsrqIkFvtmuGDugWhkJp+Ft9de1DJBAbk+J9TrQepSQTdX9yF9SRd6e84CWrBgAS2Y606ju1uT+3+Kq1spH2yjIQbm5LjoNKWUEZHiV5rW3pCGbnugsc6GS/uGRhoYU59FlyhPHk9XAu5SfvYJmjZqJUVUlsFwad/QCAN9sl8TRRXFobSib1eafVpe2UMRnZtjTfqV9ZNcrvZji8OWU+/+n1PEM1LVlPluol3xFVVDqaEsjJb37k+fqxoSl+NLm3bFUwURyS8sIGnPxRRcVVxVHErLehqQ1dSfKYfjKPu4G9m5fE9pHBFRBcVtG0FtOs6iU0VExGXT986GZD7lFyomIuW9r2igiQOtj60gogq6sao3GfVfQ1FVQ3pyiMYbVdVUc5R7YhqNWhlRWZ/GUdo3I8hA357WRBVT2PLe1P/zCFXNF5dDvpt2kaapEZdNx93syOX7NFINMY62jWhDHWedoiKS04UFUuq5OLi6dqw4dBn1NLCiqT/nEEccZX3nTIYmg2hVcDYpiajszpfUX781Df78Ej2qIKKKKPqyvyF19QqkUp3yqhlWDaUUMP81Eht1o1FTptLUqVNowkAb6rVQ1R+Rku59NZBMHNaTSmw3aFVvI+q/JooqSEj+QvKrqOzHgKwn7KQbMiVRUSztn2xL+oaOtCGmQuc8dO0n+Y/0rlFbmnGqmGTXttDsOTvpZp21CfV5cmg8GVXXH+vQjYDNqlMWtpx66FvR6LUB9KiCqDhhP02yFpOBwzq6WyEsJ03+KuOIiIrpp4lGZOHmR9XRQM3eSX1OXC6dmDaKVtY4K30zwoD07ddQVHHD50PNiAn1+lMm0KYBRtRj+fXK+ZfR9eU9yHjw1/SHUiU7zTFESQmbBpBRj+V0vfI8ZdeXUw/jwfT1H0oi5T36aqAJOayPJZXZrqLeRv1VtkccpX0zkgyM+9CiS3kkj79CAXdlxNWTnw4bqNxWjYBN6LLXxsZxZcImGmDUg5bXTJ6W9zCmwV//QUqd1wUhn9ZA3h5yMTKjwauDKY8joqf/pVlWRjRiRypxgnGyQmVjIw3IuM8iupQnp/grAXRXVqFB/nkULzAmLus7cjY0oUGrgilbFQjpy/761Hrw53RJFQgp6sv+ZNjViwJLVePI/t6ZDM2n0C/Fqr+Fxiksr8rzG1nT3AuVUVHXtaQe9f21eTokKg5dQX27zqYaNzxHc6z1K2uqhXXcWHkK+rTyAW0bYkDmjovotGqg9Ou09mQ4dBs9UAmPvnM2Iuu5FxpwTSEiekKHxhs1uKaaS/83jTIAGb6zh/LUd6qjyR7zs7XHxVKhOFKf5ulUl1zU0HENFbJRbXFVUM9qpycqptAVfanr7NNUY4JzyFq/sqZa6HpTv7MWoWF3qsW9Me2bPdizZw/27PfFxV+WoG+tcmpxq1YwFZuhv4sLuhgAMJWieycRChUFVQ876iAyNoaByByOzsPQzqIXnF36wijkFAIy7+Pcdh/4+Phgi+8zuKzbgJkOxigK2I3DKX0wcpRFZQ9G6GJrharik5Ig7cdKrKWwSduBCcNn4auT8dB3W41Pe2moBZdYQ2qThh0ThmPWVycRr++G1Z/2ggQFOLv/Z2TY9YN9VWGcyUC4uUrx+Nxx+Cvk8D8RAEN7R3QQAYAEbywPgizzMFxNAYjMYNaq5jmSWOqJIyG+8LLNQNDBLTgUIQdf9gylGn82lSDoVAAy75/Ddh8f+Phsge8zF6zbMBMOxhJYS22QtmMChs/6Cifj9eG2+lNomhrk/jgRYAh7xw6qRxOSN7A8SIbMw64wLTiL/T9nwK6ffXXdn8lAN7hKH+PccX8oIEIrUxPoGXTBm44dIAZgILWDjQTo9OYQWEsASGxh01EPhXI5SKe8aoaljp75UCw+cgInTvyC08G++Ke0ajJiSD2PIMTXC7YZQTi45RAi5DzKnpWCh5D8heRXdVYxrN5yxpttxIBpb3y0fSmG6sUi5NofOC04j4bOk0fupaUYt7YEXt95wdGsansD0KUbrTZbH5GxMYzE7eA00RnWEsCkpwfWz+sPig1GcG6RoJw0+WsbbZFDzd7rURKEUwGZuH9uO3x8fOCzxRfPXNZhw0wHGDdiPs2JCY2lwTFEHbEUnkdC4Otli4ygg9hyKAJyvgzPSnkAIhgbG0Bk7gjnYe1g0csZLn3bQKQuP102UNNShVYZ6rbXxsZxXQj3J+TT2jDB6wMHoJ0IgFFndG4PKORy8IJxEoDIGMYGIpg7OmNYOwv0cnZB3zYSDfJvh9cFxiRqZQoTPQN0edMRHVSBEHaqQIghqkAIW5uO0CuUQ04AIIKZWataJWDC4xSWV30ady1pGsJjKkLA7sNI6TMSNW7YBbZWVV4orOPGylPQp8Wt0MpUDLP+LnBRDRTS7p0gKlSgQJPwdIytsYhMTGAo0gNVlOqWvyZ7NArRHhcF40jjEdZpU+Si7Rr6GHoCNqotrgrqWZ2iAOw+nII+I0ehxgRtUW2CQtebWt20JNoujYJI+k7HzCG1ll7UqR0FoCeGWA8gXqM1A4Ba3TCPp/kyPDPsCdcVq7BqVdW/lVg8wQ7ZiX9AATEkGkcrdGwPGHSeg6OX98DNLBibp7yJHk6LcCq9/uNMiDpjztHL2ONmhuDNU/BmDycsOpUOjstF+qMS8OXltR5nS2BrYw1RuQJyeT7yHpdCUSDXGPhUNUe1ZiuS4Fn0TszzPIisfh/Bc7QVRJoPBPinyJc9g2FPV6yontcqrFq5GBN6GKDznKO4vMcNZsGbMeXNHnBadAqapsbJ8vC4VIECVaSvuy83HY9KeJSX13pYL7GFjbUI5Qo5nvCoO34A0BNBr85s9SASAUQAdMnriXbXrIOhAyZ/2BtVRRIiyTNE75wHz4NZ6PeRJ0ZbiVQj4GTa5S8oP81JkahdV3Sx0ANXni08D7mO/bXmSSV5eHT9CHacyRQITPXRqRtosdnanWhFgm5vdIcpKlD27IlOOQmkyWqo2bsa/NN8yJ4Zoqfrilq+ugorF09AD4OGzodDRjNigmbNa0fU0BhSDxEkz6Kxc54nDmb1w0eeo2FVx9k1yamu/HTagLpBNTWOqRy90XFcEB39afXpBiGGSAxwyoqG+bkmUWvYKDgm9flADyI91I2E1YGw8u/ax+gap3r/uuTfmGtJUxEaE5eBxD8UgFiiNZFoOXnq8uma2t7KIyFWDVSrTQmOrbG0fhMOUgm4+3GIU1+ooAk10xOMixJdcaSRqMu9Rf2y1jVUWSFoo5rjaoUOPdeFy0iEygQ1W6CwXNVbtwyaR6IL8auwakd4eOYUIjWvt2okIph3tIJJoh8OXJXXbOZS4H8+FuavtIGkNA63o9VORjx4wWNjUJYRh0edPLDzaiLiz3qjb/pueG2+gnrD5jIQ96gTPHZeRWL8WXj3Tcdur824ouyI7t3MwcXfwu2aVUsoLyuH6LV+sH/NCp2tjZHr/wsuFtTsl/nvhW9S/Qtv0YUlmOgtw+TvNsLdoX21kWg0WpE5OlqZINHvAOpOzR/nY8qQEfcInTx24mpiPM5690X6bi9svlJvZhC/2hnWxrnw/+UiaoYog/9eXyS/2h3dzDnE37pda1FWOcrKRXitnz2sGmshYh3yanCHRnj1VYtKAy3ChSUT4S2bjO82usOhfS2piV/VLv8/TAXkp6VStyQfj591Rn/HPughNI/XXmvgPEXoMPEHHP7EHKc+9sDOuPr60Ya4ow7dkBab1XoKAtVKwipKSsG374ner1k2Xk5NRGTeEVYmifA7cBU1p+KQ4n8eMWUNnY8e2jQjJtSfkRgSsYbkhQgcAE4ghohVB6r5L4E4AEUXsGSiN2STv8NGdwfUNtuGotMG1N2pqXGsXkcNQCyBGIT6Yqsf9+oj4NONRTBO1te2dlpwTJposXGqaNS1RBvN0aFeG7zSRoLSuNuo74Z8C8uzsT6ti5YcGwBJf3jMHQGz3LM4eLJyrZIa5fcv4HyM5pUmgnFR0cg40hydtoRcqq6hb76KEgEb1RxXf4dhI/Ss1+YVtJGUIu52tFpOR+B5HXJV76yF0BFJeSjLlSBw4NT0UZZ4AOsvl0NqCPAcByXxtS5KBAKB53mNxgUABCUqak3KdMxsuHdJxV63kZi24Uf4nTwCn7mfI8zUDlbjZ2DcKyk4sMQb59LLgbI03InLAyfPRFpOIfS0HtsVehl+2Lr3DkpgBNt3vfHlZFuYGNZ/fRu4DPht3Ys7JYCR7bvw/nIybE0MYaTXGuMWeqKP/CS+OZikWi3P5+ByUAaGLPwYwwxbY+zsKeiUcxQL3l+MH/x+g+/2T+DhJ4GTnRgAD46nyiDDo/BBCnKL0pH0sAilGcE4G54NrqQQ2dGRiCsCwHHgKmUHmGLMbHd0Sd0Lt5HTsOFHP5w84oO5n4fBtKseMvy2Yq9qwHjX+0tMtjWBoVG9mQGtx2L2lE7IOboA7y/+AX6/+WL7Jx7wkzjBrs04LPTsA/nJb3AwqXLxac5lBGUMwcKPh8EQAMfzlclKFaTScbWfqf7P8xwAXfKq7qQWhPKKClBFBSrUdwEAX4gHKbkoSk/Cw6JSZASfRXg2h5LCbERHZgjI31xAfjXuXVKoqHTIUsQeOIYH//clFg1up2MeDZgnz4MHD44sMPqrY1jf9w6+mLZS+4ILABzHqWTNA2itQzdabVa910r4fKSlqpZggs/CmTMx6O35MUYbCdmZSk7q/qqiHOUVhPLyslq2UdveVdSZk+kYzHbvgtS9bhg5bQN+9DuJIz5z8XmYKbrqNXQ+IrRrRkyod4NC3B7WHQyQGXEJd3LzcO/8bhy+LoMyPwMPHz9FsdYYIkZ76w4wyIzApTu5yLt3HrsPX4dMmY+Mh49RmPsAKblFSE96iKLSDASfDUc2V4LC7GhExhWp/EhZoXahUJOfLhuoc2xz4ljj47i4vTU6GGQi4tId5Obdw/ndh3FdpkR+xkM8floq3J+gT8epnQmVY6ifKKi267ZflajVDVhN/rrGxFWOoZYwCADVujNNqkBY/XSF53hQdewUHqegvACIjIxgiCfIzipAfmQIwu/puJbUo76/NkuHonYYP2McXkk5gCXe56BywzuIy+Mgz0xDjjynReWpPUfoCgnPgVMS+Fo/cIlUyT2vEh6MDIEn2VkoyI9EaLSOsVXmPFRl+7wMl9e74R+bAmslZ7URw+6fe7FrSiucWzwFq/57v3KxOwDwkN86gq9OE+x7Vz7hV7dHgbhoW6wrjtSlWTrV5QMa0XYNlQjmOzFJmuNqKyE9q51Z1G48Zox7BSkHlsD7XDrKUYa0O3HI4+TITMtBoZ52uVanAC2NepF1NcoU+n3/Onpfakh6IkvqP2mOaqHiggU0Z/pYeqPNK/Shr4xIEUMnvZ2pvVifpFO304X4JLp2cCE5WYjIxH4u7Q/NrNMtJ7tDJ1a9TVZiMVm7rKYTtx5XL7YpTjhGXqPtyNLQgMw7D6H5h+MqF1RwJL/xPXkMsiFLC1tyHP8prZsziLoMdqcvDoVTNqf92LLr3uTUrT+97fEZrduwkubP96GrmlbLlV0nb6du1P9tD/ps3QZaOX8++VytWghUQalnVtMEB3saOXUe/fOjGeS5I5hyq7sppgRfLxotbUdmra3J0X07XcvjiKiIEs6upbEdxSSxdaXN55OIyzxFCwd0IDPLbjR87m4K/MmDbCy60rit4aR4lkjn1rhQB7GYbFw30+m4J6q+j3nRaDtLMjQwp85D5tPhuGLVYipvJ+rW/23y+GwdbVg5n+b7XNWyEJCIihPI12s0SduZUWtrR3Lffk214IeIqCKVzqyeQA72I2nqvH/SRzM8aUdwLnFEVJRwhtaOtSaxpCt9sOUsxaZF028bJ1BnsYS6TvKh/959SLf81tC71mKSdJlEPv7JVKZTXrUoukeXDqyh9zqJCeKONHrZd3QmVqHWiKPMUwtpQAczsuw2nObuDqSfPGzIous42hquEJA/CchPte+PM5to+oi3aPhED/pk4Tz6eONZelC9MkXXPLTv53JvkO+qt6mDWEJdP9xK5+LzKGbrSDLXE5HlW/Nox/l7VZ1U8yzxHK1x6UBisQ25bj5NcU+EdSNss3WpiPqS+hlY0aApc+mTJUvpk+mTyO2Ls5RWvQJNs5y0+mtFCl39YSENbSsiUftRtGLvfyj8UWE9e9c4p+IEOuY1muwsDcnAvDMNmX+YVCbd8Pk0JyZo4knoJhrT2ZzMre1p8tZAurDCgbqPmEXrjt2krGsCMeRJKG0a05nMza3JfvJWCrywghy6j6BZ647RzbwMOrVwAHUws6Ruw+fS7sCfyMPGgrqO+5oCgk/QqretSCy2JpfVJ+jWY83xgkiHDagjKEPt9trYOK7iCYVuGkOdzc3J2n4ybQ28QCscutOIWevoWGCIjv4ydPh0LRR36T+fj1L15baNzsUlUsiBRTTEQkymDgvoYESOVvslTkZ3Tqyit63EJLZ2odUnbtFjjiPZHU3yF4gzv0fSmbVjyVosoa4fbKGzsWkU/dtGmtBZTJKuk8jnv3fp4S0/WvOuNYklXWiSjz/FRJ+ltWM7klhiS66bz1NSKWkfZ0Pkr0ymQ/+QkmVbKbluj6BCoWtJXQlq8VdlM3WYScTJ6cb3HjTIxpIsbB1p/KfraM6gLjTY/Qs6FJ7ZovJMLtPm0wqKOelNzu3FpC+dStsvxFPStYO00MmCRCb2NHd/KGVySko+9A+SWrYlqet2ingqoOvwHEo8t4ZcOohJbONKm0/HESmT6fuxr1KHcXsoRdOq3SqUuXR990Ka8JaUuvcZRKPGTqKps+bRZ7uvq663Gu2x8lhtcZHL1BJHtpK6q6hojk4b4ZdEOq+hQvlOnkBuplnPmuHkN+h7j0FkY2lBto7j6dN1c2hQl8Hk/sUhClddCDTL9TmhR7V/FjIYjL8lyug1cBx8GuPDbmOj/fP6ic5gMBgMxv8uOso/GAzG3wpNz/EZDAaDwWA0G5ZUMxj/AygLCvCEK4RM3pCl6QwGg8FgMBoLK/9gMP7mlCVfxuH/hCC1UAmJhS1GTpkN5671PqTLYDAYDAajGbCkmsFgMBgMBoPBaCas/IPBYDAYDAaDwWgmLKlmMBgMBoPBYDCaSaOTav5pCmKTFf9zLxEoTovC3Yy6X0MqzYzFvdxakijNROy93P852TSNYqRF3YWaSJ8b9XT1d4XZIIPBYDAYfwkNT6q5DPy+3QMDurwBt32J9T4X+beGT8W+mYPhNO8IcniAV0Th2FJn2NmNxKbQcoBXIOrYUjjb2WHkplDV18oYgvCp+zBzsBPmHcl5rglgPV39XWE2yGAwGAzGX0rDk2pxJ4z2mocRbanBX4Hn82/j1oOGfG/+BUdki/k/hSNs/yx0EAEiC3u4L5kIadUaT5EF7N2XYKK04bL5X0dkOx8/hYdh/6wO1Ub4POylnq7+rjAbZDAYDAbjL6XhSTUAiC1gYa6nvlULxYj8dg0O3/973NM2tbFHv05G1X+LzM1gWlsUInOY1dnAEMYUNvb9UCPS52cv9XT1d4XZIIPBYDAYfxkNSqqVBcm4ERyCqIxn6rsApQz3IwNxNegmUhSVdxn5fETsnIXp228gNfoSAgLjkF/9jJ+DPOUWroVEIDFP/SE1D8WDSARfi0Z6oQxZ2cVq+6sQbleSFYvrQSG4nfa0TmlBcXoskmQ8UJ6L+LAwJOTVT+DK8xIRHhSEyGQ56twzLc1ETEKtUgWRHuqmLyLoachnlLL7iAy8iqCbKagSjxDFmTEIDQnHvbwylOemIPUpj+zoywjw90fAtUQoeIDLuo2L/v7wvxiBhyW1jy5BVux1BIXcRtpTgaIK/ikexqfgKc9BnhyBkMhkDWPT1lcJ0mMTkc+VIuvuDSQWqA4syYhR1SxzCqTcCkNUepVOypGbEIbQu1lQL58uzYxBQg4vYC9KyO5HIvBqEG6mKOrqox4CbevpqinjFegfAMrzkBgehKDIZMjr7dQmy2KkxyZBZZLxCAtLgLpJarcfTXrQbIPg5Ei5dQ0hEYmo73IKPIgMxrXodBTKsqDV5RgMBoPBYAiiI6kuQey+GXCZewDRmck46+2FvfdrruxcyjHMGvQBvr37GDlhPnCRDsX68BLwiizIjC3RiudRVqyAorBEVYOtiMC/Pdyw0i8W6UlnsGxYL7hsCKxMoMoRs9MDXsczoCxNwMFpg/Dhj6kaarcF2vHZCNg4D8v2BiPm5i9YNlSK4auvID/3Bo4sHgU76Vj4nDiA+S7vwX3Ge+jfxxV7k2t+CARtngmPf11BWl4Mdk2QwtHrNLKVckSd+Azv2HXD8PUh9RJD7XBIOTYLgz74Fncf5yDMxwXSoesRXicJrkVJPA57vocZWy4iPjEEO6bao0uvSdiXyKNN59eQ+9N8TJx3AAlKQNymE9on7cS0CUvhl6UaP58dgI3zlmFvcAxu/rIMQ6XDsfqKTK1emUNGyC7MHWCDXu674Lv+Hbw5cAzeHtwT0tEbcL1Q1UpzX/nIiTiIRaPsIB2zDnu2fIihToPx1rQN2L3sbUi7j8A6v5NYO20qPD76AIN7DsKygFs4+vE4TJq9AJMH9cSwteEoAcDLo3Dis3dg12041oeUarYXLgXHZg3CB9/exeOcMPi4SDF0ver4ejSiLV9wC8caOV7h/nnkB23GTI9/4UpaHmJ2TYDU0Quns1WS1ybL3BtHsHiUHaRjfXDiwHy4vOeOGe/1Rx/XvVCZpDb74ZGnQQ8DZh+FrM5MVSgi/g0Pt5Xwi01H0pllGNbLBRsC81V2UR6DnR5eOJ6hRGnCQUwb9CF+TK3vcQwGg8FgMBoACVAcuoL6dp1Np+WVG4rO0RxrfXp9RTiVkZLufTWQTBzWU2wFEVXcoFW9jaj/miiqICIu6ztyNrKmuRdKKw+W04UFUuq5OJieVfe/jHoaWNHUn3OIKwuj5b370+cRqr1cji9t2hVPFZVtq9HajqPcE9No1MoIKlPtobRvRpCBvj2tiaog5YNtNMTAnBwXnaaUMiJS/ErT2hvS0G0PSEkcZR93IzuX7ymNIyKqoLhtI6hNx1l0qoiIuGz63tmQzKf8QsVV43hyiMYbWZL7r1WzeUKHxhuRpfuvqvkp79FXA03IYX0sqcSzinob9ac1UfVmRERP6ffFvcl+xfXq/svCltPrhr1p1Y0KIlJSwqYBZNRjOV1XTY7Kri+nHsaD6es/lERcLp2YNopWRlTu5NLomxEGpG+/huqfrozClvcgfavRtDbgEVVQMSXsn0TWYgNyWHeXKgT74ijtm5FkYNyHFl3KI3n8FQq4K6OKrO/I2dCEBq0KpmwlEZXdoS/761PrwZ/TpUcVRFRBUV/2J8OuXhRYaQ5c9vfkbGhOU35RzVjdXpT3vqKBJg60XmVcdGNVbzLqr2k+DWirpiuukeMV6p/LPk5udi70vcpwqCJuG41o05FmnSrSoRclPdg2hAzMHWnR6RRSmeQ0am84lLY9UOqwH8164NRtUH6BFkh70uLgao+j0GU9ycBqKv2cw1FZ2HLq3f9zUrkSRzm+m2hXvAYBMxgMBoPB0InAneoiBOw+jJQ+IzHKonKTURfYWokr/xBD6nkEIb5esM0IwsEthxAh51H2rFTz2xwKzmL/zxmw62ePqjJak4FucJU+xrnj/lBIrCG1ScOOCcMx66uTiNd3w+pPe0Gi1g20titB0KkAZN4/h+0+PvDx2QLfZy5Yt2EmHIwBcatWMBWbob+LC7oYADCVonsnEQoVBSDI4X8iAIb2juggAgAJ3lgeBFnmYbiaAhCZwayVpufqAoil8DwSAl8vW2QEHcSWQxGQ82V4VqpBOoXnsefYUwx8xwEmlZvErVujlYB26lAShFMBmbh/bjt8fHzgs8UXz1zWYcNMBxirt4UIxsZGELdzwkRna0hggp4e6zGvPyE2OBi5RUJ9iWBsbACRuSOch7WDRS9nuPRtA0krU5joGaDLm47oIAZgIIWdjQTo9CaGWEsASGBr0xF6hXLIq9Z2mplBSKRiqSeOhPjCyzYDQQe34FCEHHzZM2gSX2PaAoCokeMV6l/ufwIBhvZwVBkOJG8sR5AsE4ddTXXoRYxWrUwhNusPF5cuUJlkd3QSFUJRQDrsR7Me1M2l4Ox+/Jxhh3721R6HgW6ukD4+h+P+CkispbBJ24EJw2fhq5Px0HdbjU971fM4BoPBYDAYDUD9OlwDl4HEPxSAWKK1kUjyDNE758HzYBb6feSJ0VYirW8e4HLT8aiER3l5rQIKiS1srEUoV8jxBJ0x5+hl7HEzQ/DmKXizhxMWnUqvX7sq0tKOf4p82TMY9nTFilWrsKrq38rFmNBDAuip1dXqiSHWA4gngJMh73EpFAVyLePXg57GYlUhRJA8i8bOeZ44mNUPH3mOhpVIc+9c1gOkFklgoN/Yc6jgn+ZD9swQPV1X1Mx71SqsXDwBPRqSI0m64Y3upkBFGZ490dWXhjGqyxZ6EOmhjiz1RCKg9hs49PQ01/9WIZLgWfROzPM8iKx+H8FztBW0iK9xbdGE8Wrtn4Ms7zFKFQXVPxZqo0sv6jalJxZDDwSe0AD7ERIeAHDITX+EEr4cdV3OBtaicijkT4DOc3D08h64mQVj85Q30cNpEU6l1/M4BoPBYDAYDUBbvgzotcErbSQojbuN6LK6u4jnARThwpKJ8JZNxncb3eHQvip705BdABB37I5u5hzib92uqXXly1FWLsJr/exhRRmIe9QJHjuvIjH+LLz7pmO312ZcUTs3OC3tKszR0coEiX4HcFVeq3mKP87H6KgTFb+KztbGyPX/BRcLqjbykPnvhW9SE5OMogtYMtEbssnfYaO7A4TEo2dhidZ4hFsRD+v/iKhELBEDxKsdTiAOEJl3hJVJIvwOXEXN1Dmk+J+H1qkT1XqiUIGSUh7te/bGa5ZN6Os5UHRhCSZ6yzD5u41wd2hf/cRCg/ga1bYpaO9fjFc7W8M41x+/1BgOeJk/9vomgZqilyoaYT+aEaNj924w5+Jx63ZNdTlfXoZy0WvoZ28FyojDo04e2Hk1EfFnvdE3fTe8Nl+BussxGAwGg8HQjfakWtQO42eMwyspB7DE+xzSy4GytDuIy+Mgz0xDjjwHD1JyUZSehIdFpcgIPovwbA4lhdmIjoyDyMgIhniC7KwC5EeGIkZ/HBZ69oH85Dc4mKR6BQGfcxlBGUOw8ONhMOQy4Ld1L+6UAEa278L7y8mwNTGEkfoNOa3tTDFmtju6pO6F28hp2PCjH04e8cHcz8Ng2lUCnuOgJF51ZxpQJaQg8DwPHq0xdvYUdMo5igXvL8YPfr/Bd/sn8PCTwMlODIAHx1Plj4mqcXDgKo+v3ACOU/3g4AHwhQ+QkluE9KSHKCrNQPDZcGRzJSjMjkZkXFFNPwBE7f8P7480RuTX0/Dx7ou4cft3HD70O7KrM2wx2lt3gEFmBC7dyUXevfPYffg6ZMp8ZDx8jKfiMZjt3gWpe90wctoG/Oh3Ekd85uLzMFN01XKnms9PQ2rlMPisMzgT0xueH4+GkamuvghQVtRdQMrx4EGoLR5S1evX/E0E8HzNjwaeA081x9S1lxCE30tBblE6kh4WoTQjGGfDs8GVFCI7OhJ1xcej8IGOtuq6atR4hfvPGDYbUzrl4OiC97H4Bz/85rsdn3j4QeJkB7GgLHlwnBLEV92ZVv3QAfEqm9RpPxr0oGaDrccthGcfOU5+cxAql+ORczkIGUMW4uNhhuAy/LB17x2UwAi273rjy8m2MDE0gh54yC6vh9s/NiGw1g9UBoPBYDAYAqgXWdeBk9ON7z1okI0lWdg60vhP19GcQV1osPsXdCg8kzJPLaQBHczIsttwmrs7kH7ysCGLruNoa7iCSJlMh/4hJcu2UnLdHkFPiYgqUunM6gnkYD+Sps77J300w5N2BOcSR0RUdp28nbpR/7c96LN1G2jl/PnkczVHta82gu2KKeGYF422syRDA3PqPGQ+HY4rJlLE0ElvZ2ov1ifp1O10IT6Jrh1cSE4WIjKxn0v7QzNVx/p60WhpOzJrbU2O7tvpWh5HREWUcHYtje0oJomtK20+n0T0LJHOrXGhDmIx2bhuptNxeZR4bg25dBCT2MaVNp+OI+Iy6dTCAdTBzJK6DZ9LuwN/Ig8bC+o6biuFK9QnRaTMukRrx/ekdq3MyXbUEvLzX0uOxlULFYnoSShtGtOZzM2tyX7yVgq8sIIcuo+gWeuO0c3HHFFxAh3zGk12loZkYN6Zhsw/THHVqyprU0FRX/YjA6tBNGXuJ7Rk6Sc0fZIbfXE2jZRVTTT2xZHszgla9bYVicXW5LL6BN16zBEVJdCZtWPJWiyhrh9sobOxaRT920aa0FlMkq6TyOe/d+nhLT9a8641iSVdaJKPPyUXJNDZtWOpo1hCtq6b6XxSaT17Kcw8RQsHdCAzy240fO5uCvzJg2wsutK4reGkLj5OqK26rm7cbPR47z8U6J+IihN8yWu0lNqZtSZrR3fafi2vxm41ypJIEXOSvJ3bk1hfSlO3X6D4pGt0cKETWYhMyH7ufgrNyNBiP19TQLAGPdCz+jZIRBWpZ2j1BAeyHzmV5v3zI5rhuYOCc1WjK7vuTU7d+tPbHp/Rug0raf58H7qawxGRkpK/H0uvdhhHe1KqrYLBYDAYDIYAelT79hzjhYFL2IRBjr9gTHAUvnpLy+3mJqFE9BpHDD49HmG3N8K+JbtmMBgMBoPB+B9Fe/kH42+PlpdjMBgMBoPBYDAaCUuqX1CUjx+jUFkExRNdK9oaixIFBU/AFcogV/+6HoPBYDAYDAajSbDyjxcQLvM6jh6/iCRZBfQtu2K020cYaVv1fvDmUIbky4fxn5BUFColsLAdiSmzndHVQL0dg8FgMBgMBqMxsKSawWAwGAwGg8FoJqz8g8FgMBgMBoPBaCYsqdZJMdKi7iKj1lfpnj9/xTn/R+HkuB/7EMXq2194SpEZew+5L9tq0+I0RN3NQENNuyQjBvfymjNJDgp5ofrG/00aKXut8IWQK7R9pupl5cXzJ/5pCmKTFWxBOeMvgdlf09CeVJenIPDwV5j37jAMGTocE/75NQ5ciMdT9XZ/c/jUfZg52AnzjuT8acb1V5zzfw8Oab9vx8w3u6DvHF+kvTQ5Ag9F1DEsdbaD3chNCP2rFpvyebj581Z8OmkUhg6fhPVBal+JKU9B0OGvMHfsCIz/5F84FpoGgEfqvpkY7DQPR3KELZuXR+HYUmdIpc7wCWviJMuScWrHNpz9o6UX+/6V8EjbNxk9+k3FvsTGyKXhstdNKWKPr8Hmkw/+Bl/ffEH8qTZcBn7f7oEBXd6A275EtQ88MRjPGWZ/zUP9xdV1KaWrH9uQ2GA4bX9Y7zMs/yMUUeqdaEp/pr695eDybtHN5Nof2Xj+52QQEZXS75/YkqHjRop/qb5xwlH6t6PI0NKdfv2LbaTiwQFytRKTxPoDOlLvQzHF9N+PnGhJSFnNpqJUuhOdTg0ZNpe6g0YYtqUZpxrSWg3lQ/Kd605fRzXh2BcZLpN2v9eL3H1Taz7W1FAaIXvdyOn3zyfSnJ9rfTTqpeXF8adqykJpqdSQXl8RTrW8h8GoD5dHt24mt6wfMvtrMtrvVAMAxDC3NIdIzxxt2upo+rfFFDb2/dDJSH17S1GMyG/X4PD92r8Hn/c5GSrEMDUzFXhc86IigrmZKfTUN/8FSDoPhEP3V9Gm8L9YOG0zIut8Ql6M1havwtysloRNbWDfrxMaYtoiczOYNGmSHFL2e2Eb/gHP/g0500tESTz49w5jr7sNGv0+oEbIXjcWGPXZdJRt/BQHHr40j3m08OL4UzViC1iYv1AjYrygFEd+izWH77fsHWVmf02mgflEw4TLyVNw61oIIhLzoP4UjVc8QGTwNUSnF0KWla21hpXPjsblAH/4B1xDooIHuCzcvugPf/+LiHhYUtNOvT8+G9GXA+DvH4BriQrw4JB1+yL8/f1xMeIhao5UQnY/EoFXg3AzRYE6l4OSdMQm5oMrzcLdG4koqNxZmhmDBLVHpi0xV/D5iNg5C9O330Bq9CUEBMYhv/I0ms5ZkhWL60EhuJ32tE5ZSHF6LJJkPFCei/iwMCTk1Xev5hxbm4bqp7H9VlOcjtgkGXiUIzc+DGEJefWDBSdHyq1rCIlIRJ668EsyEHMvFzw4KFJuISwqvVr+5bkJCAu9i6xaRaV6epW2TUrk34tARHyOWs1pCdJjE5HPlSLr7g0kVhmFgEy1UZIei8R8DqVZd3EjsaDG9kqyEHs9CCG30/C0TkfabVVUNe5Gw0PxIBLB16KRXihDVnZxg3WqDb22k7Dt+ymwuLUJ0xedQragMEqRGZOAuqZdjrzEcAQFRSJZXmuWenq1Ik8Z0m+o/Nnf/yJupgsUHhRdwdZt0XBwHY3W6vtQjMyYUISE30NeWTlyU1LxtMGxQ0hXAmg7hlfgQWQwrkWno1CWhWxtgaL2+B69Bc9/voknmsan03caIftKhOIc2ozFB2/ewtZtgdpjnDoNlbWuuShluB8ZiKtBN5HSmPru8jwkhgchKDIZtaeryZ+UsvuIDLyKoJspUJ2CR8G9EAT4+8Pf3x8BoUko5AE8Tcb1i/7wDwhFkqJKuCXIir2OoJDbSGuwoQDKgmTcCA5BVMYz9V1AE2KOLjmV5yUiPCgIkcnyutdCHfuaZNNCcVsdXob4oIBqf49MVVlGSWokLvr7IyAoHjJNAmgp+xKIvYKo21dDxwMBmaIY6bFJUF1O4xEWlgDV5ZRHfsROzJq+HTdSo3EpIBBxVQmEDr1ro8XtT4cdCcUXjddLLTmasL9xkKfcwrWQCCTqNLzm08CkWhcKRPzbA24r/RCbnoQzy4ahl8sGBFYquDxmJzy8jiNDWYqEg9Mw6MMfkVovU1IhatMZr+X+hPkT5+FAghIQt0Gn9knYOW0ClvplgdPWH98GnV/LxU/zJ2LegQQoIUabTu2RtHMaJiz1QxYHgEvBsVmD8MG3d/E4Jww+LlIMXR+OEj4PEQcXYZSdFGPW7cGWD4fCafAAeOwJxInP3oFdt+FYH1KVarXcXHlFFmTGlmjF8ygrVkBRWIJyeVT9c/LZCNg4D8v2BiPm5i9YNlSK4auvID/3Bo4sHgU76Vj4nDiA+S7vwX3Ge+jfxxV7kyutrTnHakCXfirym9Yv+HzcOLIYo+ykGOtzAgfmu+A99xl4r38fuO5NrnZGRcS/4eG2En6x6Ug6swzDerlgQ2A+eL4At44tw9vS7hixzg8n107DVI+P8MHgnhi0LAC3jn6McZNmY8HkQeg5bC3Ca0czysV5LyfYOzljaB9b9Jz4LW4V8ciLOIhFo+wgHbMOe7Z8iKFOgzFg9lHItMhUY5AHwOdF4OCiUbCTjsG6PVvw4VAnDB4wG0dlPLIDNmLesr0IjrmJX5YNhXT4alyR8dptVb3zRlGOmJ0e8DqeAWVpAg5OG4QPf0wFr0OnAlqrRISOU/bi+Cp75B2Zh5k74zTU2vKQR53AZ+/Yodvw9ag27fwgbJ7pgX9dSUNezC5MkDrC63S2hoAtgeTePixe91+kGbyGTm311RtU8/SyL/6b/QbeeqvuPdmS+MPwfG8GtlyMR2LIDky174Jek/YhsSGxAwK60orAMeUx2OnhheMZSpQmHMS0QR/iR22BQqRjfBW6fKcpsheOcyqM4eDwOjJP+eJqQ7PqZs8F4FKOYdagD/Dt3cfICfOBi3Qo1tdxaE3wyA/ajJke/8KVtDzE7JoAqaMXTmv8Bcgh5dgsDPrgW9x9nIMwHxdIh65HeIkIpm0NkfjDHIyfuBl3LDrCVATA5FW0uvENtt+SoI2JCHx2ADbOW4a9wTG4+csyDJUOx+orMg02XZsSxO6bAZe5BxCdmYyz3l7Ye7+W5zUy5kCXnPh8BG2eCY9/XUFaXgx2TZDC0eu06gex0L4m2rTWuF1nxLUQGaNV8WV8OWUc3Henon07lS8btRXj+iZvnCu2QCtN2UsL2FfTYq8W+8q1EB6PYGxRIv/GESweZQfpWB+cODAfLu+5Y8Z7/dHHdS+SKxTIkhnDshUPvqwYCkUhSpQ69K6Vlrc/YTvSHl80Xi/fcse6nfVztNlHZcL+pojAvz3csNIvFulJZ7BsWC+4bAisvnn5XFCvB6lLBd1c3Yf0DcfToSfq+2qQX1hA0p6LKbiqHq04lJb1NCCrqT9TDldGYct7U//PI1S1fFwO+W7aRfEVdfuojTJhEw0w6kHLr1dW85Rdp+U9jGnw13+QkgT6UybQpgFG1GP59co6oDK6vrwHGQ/+mv5QEinvfUUDTRxofWwFEVXQjVW9yaj/GoqqICIujb4ZaUDGfRbRpTw5xV8JoLsyjrjs78nZ0Jym/FJM9BzmymV9R85G1jT3QmnNtjrn5Cj3xDQatTKick4cpX0zggz07WlNVAUpH2yjIQbm5LjoNKWUEZHiV5rW3pCGbntAymYdqx1h/VCT+yXlA9o2xIDMHRfRadWB9Ou09mQ4dBs9UBKR/AItkPakxTXCp9BlPcnAair9nMMRcVn0nbMhmQxaRcHZSiIqoztf9if91oPp80uPqIKIKqK+pP6GXckrsLTaBgysJ9DOGzJSUhHF7p9MtvqG5LghhiqIo7RvRpKBcR9adCmP5PFXKOBuPmULyFQbXNo3NNLAmPosukR58ni6EnCX8rNP0LRRKymiUoxc2jc0wkCf7NdEUamQrRLRk0PjyaixNaBlYbS8d3/6PEJ1EJfjS5t2xZPKdYR1qpWKONo0yYsulxKRMoWOfPgaSYz70OLLMuKolAKXTqK11XLhKPt7ZzI0n0Iq086m42525PJ9GnGVfW0b0YY6zjpFRURE8h/pXaO2NONUMcmubaHZc3bSTYE4pKKMri/rQfqvzaeAGpcievo7Le5tTyuuq/yYqIzClr9Ohr1X0Y0GxA4uV7uutGld6JjisOXUu//npFIFRzm+m2iXUKDQMT6dvtNI2QvHuZphPTs1g17Rf51WhFVOsiE0ay5KuvfVQDJxWE8q17hBq3obUX8BPRARcdnHyc3Ohb5PUw2+Im4bjWjTkWadKiJS9yflPfpqoAk5rI9VxYwbq6i3Uf9q/66I3UhvGVvT7NOKys6z6NAnK8j/KRFxuXRi2ihaWaN0+maEAenb1/iuJopDV1DfrrPptLxyQ9E5mmOtX1nTKhzHNSMkJ46yj7uRncv3pBJHBcVtG0FtOs6iU0VC+5po07ritlaKKXixlAx7rqCwSl/mco7QjKl7KF3osGbZl448QQuC9qVjPEIyrSAlPdg2hAzMHWnR6RQqIyLFr9OoveFQ2vZAWXnNMyLruRdIJSIhvWun5e1P2I50xRdN10tZhYYcLT9bwN/kdGGBlHouDq5eR1Icuox6GljR1J9zVHHvOaDpt14jKcDZ/T8jw64f7KtuDJkMhJurFI/PHYe/QgJrqQ3SdkzA8Flf4WS8PtxWf4peErVuGkzT+xNLPXEkxBdethkIOrgFhyLk4MueoZRX/TI2NhDB3NEZw9pZoJezC/q2EUFkZoZW1U8G/5y51j1nCYJOBSDz/jls9/GBj88W+D5zwboNM+FgDIhbtYKp2Az9XVzQxQCAqRTdO4lQqCgANevYptPkfsWt0MpUDLP+LnBRHQhp904QFSpQQEDB2f34OcMO/WqEj4FurpA+Pofj/gpA1AqmJnow6PImHDuIARhAamcDCTrhzSHWkACQ2Nqgo14h5PKakYit3oLzm20ghil6f7QdS4fqITbkGh7zIhgbG0Bk7gjnYe1g0csZLn2NECIgU22IjI1hIDKHo/MwtLPoBWeXvjAKOYWAzPs4t90HPj4+2OL7DC7rNmCmg7GwrTYViTWkNmnYMWE4Zn11EvH6blj9aS800jy1I+6Cmft9sbzXQ3znMRdHUtTvcYtgZtaqpqRD7o8TAYawd+ygemQmeQPLg2TIPOwK0+pjeOReWopxa0vg9Z0XHM2qd2hBiYyMbKBVa7Su9US/8PweHHs6EO84mFRuEaN161YNflRXEqRdV9oQOkZiLYVN2g5MGD4LX52Mh77banza2EBRGx2+0zjZ64pzVZ0AehatYUZZSE3Xcpe9KQjORQyp5xGE+HrBNiMIB7ccQoScR9mzUu13PQHI/U8gwNAejh1UGpe8sRxBskwcdq2xtGrEUngeCYGvly0ygg5iy6EIyPkyPKt0PkmvOfB8uwSn9vohkwe4+ycQ+eoUjG4FoCQIpwIycf/cdvj4+MBniy+euazDhpkO0G4pRQjYfRgpfUZilEXlJqMusLWqqpoXjuOaEZKTHP4nAmBo7wiVOCR4Y3kQZJmH4WoqtK9pNq0zbmvFBEO8PsXQzCPYcVJV0pfmdx76kyajU0MdVxOC9qUjT9BCo+xLDSGZAmK0amUKsVl/uLh0gepy2h2dRIVQqBxbDSG9a+N52J+QHemOL5qul20kGnI0oxDt/lZwFvt/zoBdP/vqdSQmA93gKn2Mc8f9IWR5zaE5pqmCy0X6oxLw5eW1alElsLWxhqhcAfkToPOco7i8xw1mwZsx5c0ecFp0Cunq19sGI2p6fyIJnkXvxDzPg8jq9xE8R1tBVNsu65fVqeo6q7b/WXOtfU7+KfJlz2DY0xUrVq3Cqqp/KxdjQg+JWt0pAD0xxHoA8dS8Y5tDk/utNe/Kv8WqA0HgkJv+CCV8OcprFT1LbG1gLSqHQv4EfL3jAT2RHupk8noiiEDak3tRO3TtYgE9TokKoL5R6JKpAHV74vE0X4Znhj3huqJWP6tWYvGEHpDostWmIOqMOUcvY4+bGYI3T8GbPZyw6FR6A8o7GoHFcGz8+Ru8R2ex6B+bcEftqaNeLdvgZHl4XKpAQa0fOJqgkjw8un4EO85kClwYqiBUVFSAUFvtHLIepKJIYgB9TT6uEx26Um8O6DzGoPMcHL28B25mwdg85U30cFqEU40OFLVRt/3avlO5paGy1xnnarSgp28AffDgdSumEQjPRSR5huid8+B5MAv9PvLEaCuRdn8GAHCQ5T1GqaIAmqZbHxEkz6Kxc54nDmb1w0eeo2FV2/lEVpji+QHMAvfiQFwxbvz8AL2n2cMAAP80H7JnhujpuqKWzldh5eIJ0BoeuAwk/qEAxBLNF+QmxhytcuJkyHtcCkWBvL7chPY1yabLGxC3tSPuOhNLJhvh/I49iC2Nx7HAVzF1XBv1Zo1E2L505gn1aKx91UZYppJKv62NnlgMPRC0XU616l0bz8P+hOyogfFFY6iudznW7m92snQ8KuFRXtfwYGMtQrlCjlphrEXRKMOGweHB8cO4UtoR3buZg4u/hdvVF1Ae5WXlEL3WD/ZWhIy4R+jksRNXE+Nx1rsv0nd7YfOV+lWX1YglEGswGiIOACfQnxgSsYbkjQgcgKILSzDRW4bJ322Eu0P76othPaVrQ/wc5qoLkTk6Wpkg0e8ArtZ6FTCX4o/zMTruDjXnWCEE9fO8EKNj924w5+Jxq0b44MvLUC56Df3srZpjzLUoQf7jZ+jc/028qqnDFpOpCOYdrWCS6IcDdTuC//kYKJprq5rgMhD3qBM8dl5FYvxZePdNx26vzVC5TsvpVGL3EQ4eXYiucduw2veR1jGLX+0Ma+Nc+P9yEQVVG3kZ/Pf6Iqn6tCJ0mPgDDn9ijlMfe2BnnC5fkqDDq69Ar/gpiqtPrAcLy9bAo1uI0PqmCqHYIawrzVoXPqYsIw6POnlg59VExJ/1Rt/03fDafEVDLXoVQuNrPIKyh644V+MYVFKMEr22eLV9Y95F0py5FOHCkonwlk3Gdxvd4dC+IZ4hxqudrWGc649fLlbPFrzMH3t9k+qfs+gClkz0hmzyd9jo7gBNp2j1jic8pPE4tGMDThSOwNSuqvmLzDvCyiQRfgeuokbrHFL8z0NreNBrg1faSFAadxvRagZAPN/EmCMgJ/Gr6GxtjFz/X1AjDh4y/73wTX5F+74kaoJNB6Jts+J2a7gsXoC+9/bj6w3f484b0zGq6mGTVppjX03JE3TZl9B4hOOENu1qR0Dv2nge9idoY682OL7oQsjf4tt3RzdzDvG3btfUw/PlKCsX4bV+9mjEaRqFjm55lJeWg+gZnpXUTetL4vZgXbgxHExbY9xCT/SRn8Q3B5NUKzj5HFwOysCQhR9jmCGHDL+t2HunBDCyxbveX2KyrQkMjTT+DgEAiNtbo4NBJiIu3UFu3j2c330Y12VK5Gc8xOOnxdr7E7eHdQcDZEZcwp3cPNw7vxuHr8ugzM/Aw8eFyH2QgtyidCQ9LEJpRjDOhmeDKylEdnQk4opUdqesUDMSngNPVHknpuXnKjIygiGeIDurAPmRoYgpUT+nKcbMdkeX1L1wGzkNG370w8kjPpj7eRhMu0rAcxyUxNdyWAKBwPM8+GYdqx1h/ZQ2uV/wHDglga91d41I5dg8D7QetxCefeQ4+c1BJKmEj5zLQcgYshAfDzMEwIHnKwNBFaTqpDqkEIHAg68VXamkEIrKYFIaewDHHvwfvlw0GAaqvYCyolZwE5apEAQlapuX6ZjZcO+Sir1uIzFtw4/wO3kEPnM/R5ipLYp12CrHcQBV3SEswc1dszDuHxtwUePCq0q4DPht3QuVeb4L7y8nw9bEECrXEdapdspRXlKGsjoxW4Q2o33w87/eQeuy8jrhnOd4EFXaQeuxmD2lE3KOLsD7i3+A32++2P6JB/wkTrATA+B58ODBkQVGf3UM6/vewRfTVupYHKiPfm/1h9HjDKRXL54Tof3/vY+RxpH4etrH2H3xBm7/fhiHfs+uucgKxo6nEGvVVVctd6qF9NsVehl+2Lr3DkpgBNt3vfHlZFuYGBqp34ipQcf4SnX4Dhole11xrmZYJZlZkBv1hWNffaDkJnbNGod/bLgo/AaY5sxFWYgHKbkoSk/Cw6JSZASfRXg2h5LCbERHxqmdqIbWY2djSqccHF3wPhb/4IfffLfjEw8/SJzsIEZdf+ILHyAltwjpSQ9RVJqB4LPhyOZKUJgdjci4yndGSuwxZ/4wyI6fBI0fh7ZVJzIdg9nuXZC61w0jp23Aj34nccRnLj4PM4XW8CBqh/EzxuGVlANY4n0O6eVAWdodxOVxkGemIadQr/ExhxeSUwbGzp6CTjlHseD9xfjB7zf4bv8EHn4SONm1EdgnbpJNW+iM28JIes3D4nEV+M+/4zF4uoNWf6umOfbF8yjUEXs1IWhfOsYjHFt4cJwSxNe64aEaLHieB0RGMDIEnmRnoSA/EqHROQJ61+Ifz8P+0FrAjto0KL6oXy8rN9bN0YT8re04LPTsA/nJb3BQZXjgcy4jKGMIFn48DLotr4moF1lXU/aAAo/40GSpPunpGZBVv1HkMnYsjR3rQs5D+1JHEwtyPZxX2biCUs+spgkO9jRy6jz650czyHNHMOVypCrK93aibv3fJo/P1tGGlfNpvs/VOotd6vOEQjeNoc7m5mRtP5m2Bl6gFQ7dacSsdXTsZpZgf09CN9GYzuZkbm1Pk7cG0oUVDtR9xCxad+wm5WWcooUDOpCZZTcaPnc3Bf7kQTYWXWnc1wEUfGIVvW0lJrG1C60+cYsec0RUlEBn146ljmIJ2bpupvNJqsVtLTpXZTId+oeULNtKyXV7BD3VeM5iSjjmRaPtLMnQwJw6D5lPh+OKiRQxdNLbmdqL9Uk6dTtdiE+iawcXkpOFiEzs59L+0MxmHqsNAf0EhjSxXwXFnPQm5/Zi0pdOpe0X4inp2kFa6GRBIhN7mrs/lDI5oorUM7R6ggPZj5xK8/75Ec3w3EHBuRwRFVHCmbU01lpMkq4f0JazsZQW/RttnNCZxJKuNMnnv3T34S3yW/MuWYsl1GWSD/knl1HxH2do0/QR9NbwieTxyUKa9/FGOvvgGRFxJLtzgla9bUVisTW5rD5Btx5XKVKLTLXAye7QiVVvk5VYTNYuq+nErcfViySKE46R12g7sjQ0IPPOQ2j+4TgqJiIuU4utbg2nnMRztMalA4nFNuS6+TTFKTLp0KQOZPFKexqyIVbt7LUou07eTt2o/9se9Nm6DbRy/nzyuVq1YENApzcfq/dERETK9Ot0/F8z6A1TGxq/9gBdTlKTAZdH/kum0ebKxSxFCWdp7diOJJbYkuvm86Qy7QTy9RpN0nZm1Nrakdy3X6M8jojLvUG+q96mDmIJdf1wK52Lz6OYrSPJXE9Elm/Nox3n79U9Vy247EM08RUpLa790RlSUtaltTS+ZztqZW5Lo5b4kf9aRzKuWqioI3Y85rTrSghtx5Rd9yanbv3pbY/PaN2GlTR/vg9dFQwUQuMLpJD/CPvOH3ENl70KoThXRRmFLpVS24mHKJsj4jIP0aQOFvRK+yG0IVbbAiYVTZ9LCN0+uZAGdDAjy27Dae7uQPrJw4Ysuo6jreGVCwe1UJzgS16jpdTOrDVZO7rT9mt5xBHRMw3+dGrhAOpgZkndhs+l3YE/kYeNBXUdt5XqnEL+G80Zt4Huqk+1OIGOeY0mO0tDMjDvTEPmHyaB8KCCk9ON7z1okI0lWdg60vhP19GcQV1osPsXdCg8u9Exh4ijzFNCciqmBF8vGi1tR2atrcnRfTtdq1a+0L6m2bT2uN0wSoMXk8P4fZTZwEOabl+hlKEtT9gaTkIWps2+SHA8wrFFEXOSvJ3bk1hfSlO3X6D4pGt0cKETWYhMyH7ufgrNLKfkQ/8gqWVbkrpup4inuvSuhRa3P9JhR9rji8brJSejO5pyNNLhbxWpdGb1BHKwH0lT5/2TPprhSTuCc5/bIkUiIj0iEnguwGAwXhbKQ73x8e25+HFRV/Vd/2OU4NrywVhidAARmxy13NnikLBpEBx/GYPgqK/wluZGDCGU0VgzeBaefROObUOrnsmXI9T7Y9yeuxeLKksiGIzmwSN9jwc2t/sWez+wVN/JYLxQ6Cj/YDAYLwO8LAz7zrXF9Jn/6wk1AJhg2Jc78c6dXfg5Q6gOgdF0eOSd3o07b+/EF9UJNQ9Z2D6cazsdM1lCzWguXBEK5KXgi8Kw+7IVpr/HEmrGiw9LqhmMlx1ejthoHuPWLcNIdt1R0XoENu75EKnf/YDrGmuwlXj8uBDKIgWeqNftMXTAQ37jAHYmvYfvN42o/molL49FND8O65aNBDNDRvNQImbzSFi1b48Ory9EwcwlGFL3W04MxgsJK/9gMBh/X8rScSMWGODYudZGDpnXj+L4xSTIKvRh2XU03D4aCVt2c7VhcOm4dYvQe6BN9ftfGYyWRpl2EXt84/DKOzMxxbEduwPIeClgSTWDwWAwGAwGg9FM2I8/BoPBYDAYDAajmTQvqS7NROy9XOF3D79IFKch6m5Gra/4MJ4rfyN5809TEJuseHlsXSPFSIu6i4xqhXCQ34/Fw+r3OdenOC0Kd2sOYGjjz7b1ly32VlKaGYt7uS/bqJsPX5iKW6HhiMv50yykUfw94htDKy0VL/hCpN4KRXhcTjNiXTHSYhKR3+zBaIPH05RYJCue2wkEaVpSzSsQdWwpnO3sMHJTqOrl3X8iZddWw6nHcCwPyGuEkfBI3TcTg53m4UhOw49qMuUpCDz8Fea9OwxDhg7HhH9+jQMX4vFUvd3flj9Z3s8LLgO/b/fAgC5vwG1fYhO+cPXiwKfuw8zBTph3JAcVab9j+8w30aXvHPimafnOGJ+KfTMHw2neEbzMKnz+/Im2/hfH3qbCK6JwbKkz7OxGYlPoCz7q8jCsHdYDQxefawG75/DQ7zN4bjmL8NNfwEXaB9OPPlRv9NfxN4pvDA20YLzgHvrhM88tOBt+Gl+4SNFn+lFo/UCtRnjkRRyA1wg79HhnKyKaMxgtcBm/Y7vHAHR5ww37Ev8ia1Z/cXWD4dLp21GGZOn+Kz1T39doOMq7dZOSlerbNVFG15c70uDVIYIvYtdIUSrdiU5vgfE2lFK6+rENiQ2G0/aHz/N14y8of7q8nxNlobRUakivrwin2p8TefkootQ70ZReqZDS3z8hW0NH2hiv3fGKUu9QdNUBf1e4PLp1M5m0S6EB/Jm23qKx98+DS/+WRhlakvuvL8qoNV93yiI+p7cGrqSggrrbmwKX8xNN6vgu7ZMREfeYrmyYTp4HtX+46C/hbxPfngMtERtqweXdopvqBve8aYl4weXQT5M60rsqQ6bHVzbQdM+DdK/RU1FS8tYhZPjqbDrT5MEIUxa6lKSGr9OK8L/Gmpt2pxoAROYwM9X6Ud3GURyJb9ccxv2G/LDg0pH22mc4vn5Y9aucGoypDez7dfoTV6yLYW5pDpGeOdq0bbqoX1r+dHk/J8QWsDBvIVv/SzGFjX0/dKpUiNjUDKY6zNLUxh79qg74m1Ic+S3WHL7fvLt0f6att2Ts/RMRmZvhhRq2xusOh0cPO2LZiU0Y0QLvBSyPuILQYlOYGwEQtYXzl0exe/br6s3+Wv428a3laZHYUE0xIr9dg8MNSnRakJaIF+URuBJaDFOVIaOt85c4uns2Xm/0G5PEMDMzRTNHI4jYwgJ/pTnruKSqKMmKxfWgENxOe1qr3EIEPY0DL0FW7HUEhdxG2lP1Z2flyEsMR1BQJJLlqucGfH4Eds6aju03UhF9KQCBcfngAZSkxyIxn0Np1l3cSCxAzVOGthg4pAPSbyYiT/3xQXE6YpNk4FGO3PgwhCXkqTlDKTJjEuo90ivPS0R4UBAik+W1zqOCk6fg1rUQRCTmNePRiUZBqcFBnnIL10IikFhvYjwUDyIRfC0a6YUyZGVrKoLlkR19GQH+/gi4lggFD3BZt3HR3x/+FyPwsKSmnXpffHY0Lgf4wz/gGhJVB+L2RX/4+19ERM2BgFKG+5GBuBp0EymKupLSrC9N8m7uPKvg8fRhPFKe8uDkyYgIiURy5ZgaPB+ttq1CWZCMG8EhiMp4prZHhbZji9NjkSTjgfJcxIeFISGvYUFUW3+84gEig68hOr0Qsqxs1JFKeR4Sw4MQFJmMSpdSUZKO2MR8cKVZuHsjEQWV+0ozY5BQpRA9vUrLJCjz7yEiIh71Sj5LMxGTkFNrPCVIj01EPleKrLs3kFjVsUbq+3tttPtWCTJi7iGXBzhFCm6FRSG9atLluUgIC8XdLPWBAijJQuz1IITcTkOd0KM1LvDIj9iJWdO340ZqNC4FBCKustBPKbuPyMCrCLqZAjVT/wtsXR0tsZeTI+XWNYREaIiNvAIPIoNxLTodhbIs6D6duu4aGl8EZCeqsre6NMnuNaFN/xrmru26A6UCyi598EranXoxrnF+XYb0GxdxKeIBCrnHSLjij4thyTXlf0K60ui7TfAJgXiNBsQ37f7ZON3wTx8iPuUpeE6O5IgQRCYr6l1nheSh2d9qwWcj+nIA/P0DcC1RAR4csm5fhL+/Py5GPES1aWqNA5rQHhs05jhFDxB20R/+/v7wDwhCXH4ZMm5WjuFmOsr5fETsnIXp228gNfoSAgLjamqKBeZeB16G+KAA1Tn8LyIyVTWzktRIXPT3R0BQPDS+kl9jvFBCdj8SgVeDcDNFgz5qUZZ+AxcvReBBIYfHCVfgfzEMydWGrEEW1ajHEBV6tQZTnhOH62EJUHclrTFEK0oUJN9AcEgUNJuz0DhbFuGkms9GwMZ5WLY3GDE3f8GyoVIMX31Fi+IAPjsAG+ctw97gGNz8ZRmGSodj9RUZeAB8fhA2z/TAv66kIS9mFyZIHeF1OhMFWTIYW7YCz5ehWKGA/FEkDi4aBTvpGKzbswUfDnXC4AGzcVQGKCL+DQ+3lfCLTUfSmWUY1ssFGwLzwfP5uHFkMUbZSTHW5wQOzHfBe+4z8F7/PnDdmwwOPORRJ/DZO3boNnw9QqpiD5+PoM0z4fGvK0jLi8GuCVI4ep1GNg8ACkT82wNuK/0Qm56EM8uGoZfLBgQ+j+p6RQT+7eGGlX6xSE86g2XDesFlQ2Cl05UjZqcHvI5nQFmagIPTBuHDH1M1BAMR2nR+Dbk/zcfEeQeQoATEbTqhfdJOTJuwFH5ZnNa++Dad8VruT5g/cR4OqA5Ep/ZJ2DltApb6ZYEDwKUcw6xBH+Dbu4+RE+YDF+lQrA8vAZ8XoUFfHtgTqEHeLTJPgMsIwa65A2DTyx27fNfjnTcHYszbg9FTOhobrhdC1ID5CNt2CWL3zYDL3AOIzkzGWW8v7L1fy7O1HJufewNHFo+CnXQsfE4cwHyX9+A+4z307+OKvckCkUFLfzIeKI/ZCQ+v48hQliLh4DQM+vBHpCqhCvpBmzHT41+4kpaHmF0TIHX0wunMHEQcXIRRdlKMWbcHWz4cCqfBA+CxJxAnPnsHdt2GY321QgCAkHveC072TnAe2ge2PSfi21tFAC9H1InP8I5dNwxfH4JS8MiLOIhFo+wgHbMOe7Z8iKFOgzFg9lHIavVWhWZ/z65MmrT5lhIFt45h2dtSdB+xDn4n12LaVA989MFg9By0DAG3juLjcZMwe8FkDOo5DGvDqy6XPLIDNmLesr0IjrmJX5YNhXT4alzJzxWOC7wCWTJjWLbiwZcVQ6EoRImSQ8qxWRj0wbe4+zgHYT4ukA5dj/AS/CW23lC0xkYAKI/BTg8vHM9QojThIKYN+hA/qoxII5p1lwsLnfFFu+w00iS714QW/as60jD3cijUrjuFJUrtMS6/KX5NKC8uhKK4AqAKFBcqoHhSCo4X0BWfp8F338K0Dbsb7RPa5qJCR3zT6p8q722wbrgMhOyaiwE2veC+yxfr33kTA8e8jcE9pRi94ToKK5tpk4dSo7+pcoE6iNqg82u5+Gn+RMw7kAAlxGjTqT2Sdk7DhKV+yKrQlR9oQGNsEMhxjF9Be2Uovpo2DhPXhoDM9GGS5otlmwNRamkJkSILMmNLtOJ5lBUroCgsgVJg7hqzDJExWhVfxpdTxsF9dyrat1M9FzNqK8b1Td44V2yBVsIZnQouBcdmDcIH397F45ww+LhIMXR9eM2PDzWovBiFimJUgFBRXAiF4glKOV67LLTGkKr4DwDlePjzEkyZ5on5E+3RZ9J+PODQ+BgCACWx2DfDBXMPRCMz+Sy8vfai7uVa+zifC+r1IDVwlHtiGo1aGVFZZ8VR2jcjyEDfntZEVRDREzo03qimTofLpRPTRtHKiMo6Fi6NvhlhQPr2ayiqLJuOu9mRy/dpxBERVcTRthFtqOOsU1REHGV950xG1nPpQmnVod/QSANj6rPoEuXJ4+lKwF2SyS7QAmlPWhxcVYhTTKHLepKB1VT6OYcjUj6gbUMMyNxxEZ1OKSMiBf06rT0ZDt1GD5Sq8Wd/70yG5lPol+LKv4+7kZ3L95SmGhTFbRtBbTrOolNFRPILC0jaczHVnC6UlvU0IKupP1NOg8ujK+jm6j6kbzieDj1R31eFnC4skFLPxcHV9U7Focuop4EVTf05h7iyMFreuz99HqHay+X40qZd8VRRp48qlJSwaQAZ9VhO1yvVUHZ9OfUwHkxf/6EkEuhLmbCJBhj1oOU1B9LyHsY0+Os/SElKuvfVQDJxWE+xFURUcYNW9Tai/muiqEKbvjh1ebfkPInKwpZTD30rGr02gB5VEBUn7KdJ1mIycFhHdyt0zUfYtotDV1DfrrPptLzyZEXnaI61fmXNofCxygfbaIiBOTkuOk0qM/yVprU3pKHbHmipyxPqr5jClvem/p9HVPpYDvlu2kXxFURc9nFys3Oh71XGSxVx22hEm44061SRyvdGGpBxn0V0KU9O8VcC6K6MIy77e3I2NKcpKoVQxY1V1NvAmibsvEEyJVFR7H6abKtPho4bKKaCiLhs+t7ZkMyn/EKqIzhK+2YkGRj3oUWX8kgef4UC7spUPl0bTsjfdfmWKh4YmgyiVcHZpCSisjtfUn/91jT480v0qIKIKqLoy/6G1NUrkEqJiMs9QdNGraSa0PMNjTDQJ/s1UVShKy5wWfSdsxFZz71ApUREynv01UATclgfSypTX0W9jfpXxry/xtbroxZ75cKxsSxsOfXu/zmpTsdRju8m2hWv5WyCutMRX3TIjp4covFGVTXVTbN7TQjpv1jr3NWvO8IxrvF+raL4p4lkZOFGfioH0qkrzb5b0UifEJ6LcHzT5Z9ljdINlYXR8h76ZDV6LQWoAjXtn2RNYgMHWne3Qqc8NPub2jmIiJQJtGmAEfVYfr3Snsro+vIeZDz4a/pDSQ3IDzSgHhuEcpwKIiIlPTzoSh0MupPnmVDaPutj8ntUM1gu6ztyNrKmuVWJjo65a6aYghdLybDnCgqrypdyjtCMqXsoXdshavFCee8rGmjiQOtVxkE3VvUmo/5Vc9BC8U800ciC3KoMWUgWgvkeUd4eFzIyG0yrg/OII6Kn/51FVkYjaEcqpzuG1KOYQlf0pa6zT1ONOc8ha/3KmmqhcWrrspkI/K4pQdCpAGTeP4ftPj7w8dkC32cuWLdhJhyM1dsCKAnCqYBM3D+3HT4+PvDZ4otnLuuwYaYDjOX+OBFgCHvHDqpb45I3sDxIhszDrjBV7weAyNgYBiJzODoPQzuLXnB26Quc34+fM+zQz76qatEEA91cIX18Dsf9FYC4FVqZimHW3wUuXQwAmELavRNEhQoUEACIYGbWqtbjRzn8TwTA0N4RHVSDwhvLgyDLPAxX0wKc3f8zMuz6oeZ0A+HmKsXjc8fhr6jupPkUnMX+nzNg18++uh7TZKAbXKWPce64PxQSa0ht0rBjwnDM+uok4vXdsPrTXpCoddMgmtyXGFLPIwjx9YJtRhAObjmECDmPsmel4LXoq41ITd4tPE+RsTGMxO3gNNEZ1hLApKcH1s/rD4oNRrDOV3YJ2XYRAnYfRkqfkRhlUdncqAtsraqKx4SOBcStWsFUbIb+Li5QmaEU3TuJUKgogOavLAn1J4G11AZpOyZg+KyvcDJeH26rP0UvCSD3P4EAQ3s4qowXkjeWI0iWicOupoDIGMYGIpg7OmNYOwv0cnZB3zYiiMzM0Er9MaDYCm85v4k2YsC090fYvnQo9GJDcO0xD4jMYFbnABGMjQ0gMneE87B2sOjlDJe+beo/7hL0d12+JUIrUxPoGXTBm44dIAZgILWDjQTo9OYQWEsASGxh01EPhXI5CEBJ0CkEZN7Hue0+8PHxwRbfZ3BZtwEzVQrRERfUEEvheSQEvl62yAg6iC2HIiDny/CsVGVTf4Wt66LgrHBslFhLYZO2AxOGz8JXJ+Oh77Yan/bScjZB3elAh+zq0jS714SQ/hs+d+EY13i/1owuXWn2XUkjfUJoLrrimy7/bJxuIDKGsZEY7ZwmwlkVqOGxfh76UyyCg3PxWIc8NPub2jkaQmPjgCaEchwAgBi2s3Zi24RiHHCfh+QPN2KytfbB6rQFjZhgiNenGJp5BDtO5oIHhzS/89CfNBmdtJ+qDmKpJ46E+MLLNgNBB7fgUIQcfNkzaHRTbQjJoiExxOR1DByg+kqmUefOaA8F5HK+kTEEQFEAdh9OQZ+Ro1BjzraouVwLjLNWNy2JdjXwT5EvewbDnq5YsWoVVlX9W7kYE3rU9yD+aT5kzwzR03VFTdtVq7By8QTYFebhcakCBfKGWq96FTKH3PRHKOHLUV7rybXE1gbWonIo5E/AQ0+tbkgPYrEeQHx10NOrriEFwMmQ97gUigLVhbkOXC7SH5WALy+v9S5GCWxtrCEqV0D+RIuCmwCXm45HJTzK604MNtYilCvkeILOmHP0Mva4mSF48xS82cMJi06la35kpQtR0/sSSZ4heuc8eB7MQr+PPDHaSlRHbuq5GtTk/fznKUG3N7rDFBUoK6un0boI2bZdNhL/UABiiWbnEDq2h6RWnXIlemKozFDLmAT7M0DnOUdxeY8bzII3Y8qbPeC06BTSOQ6yvMcoVRRAq0tpVoiG2rraiNCuaxdY6HFQVgCAXp36NxXqf9eHkwn4ewN8q9459UTQU7M2kQhQfQuWx9N8GZ4Z9oTrilryW7USiyf0gKQBcaEuIkieRWPnPE8czOqHjzxHw0pUt6UmCfy5tl4b3bERnefg6OU9cDMLxuYpb6KH0yKcStd8NkHd6US37Kppkt2rdwKd+jdoxNwFY1xj/VojunXFQ7OBNc4nBObCZQjHN53+iUboRjOSbm+guylQUVaCnAbIQ4M4mkBj40B9hHKc6pRIZI2xU11gzaUg8NIdaEuNG2wLGhB3nYklk41wfscexJbG41jgq5g6ro16M+2IJHgWvRPzPA8iq99H8BxtBW1uqg0hWTQ63xOLIEbVNacRMQQAl5EIlTlrtGbBcWpIY1sEzSMBAJE5OlqZINHvAK7KazZzKf44H1O/gEpk3hFWJonwO3AVNc05pPifR3zbzrA2zoX/LxdRULWLl8F/ry+SGuSMYnTs3g3mXDxu3a4pruHLy1Aueg397K0EJqIF8avobG2MXP9fcLFmUJD574Vv8qvo3s0cXPwt1JyOR3lZOUSv9YO9VaPPpgEOD44fRmDr7uhmziH+1u2amia+HGXlIrzWzx5WlIG4R53gsfMqEuPPwrtvOnZ7bcaVsrq9VSGWiDUECgJxqoCqtS+xBGIQ1K8RRByAIlxYMhHessn4bqM7HNpXWaN2Y1dH3LFl56mCQLUiT0VJKfj2PdG7o1h4PkK2HWuOV9pIUBp3G9Fq5yaeFz5Wg1/oRLC/MmTEPUInj524mhiPs959kb7bC5uvKPFqZ2sY5/rjlxrjBS/zx17fpCYmZypK8h/jWef+ePPVptu4+FUBf0fHFvYtEcw7WsEk0Q8H6goQ/udjGl+nXHQBSyZ6Qzb5O2x0d0ATTP052bo2dMdGyojDo04e2Hk1EfFnvdE3fTe8Nl+BptMJ6o7TEV8aI7sm2b2mEQvrv6zBc29+jNONbl011vo1IzAXvTbC8U2syz+pEbqpgeoGapTy7dGzdyd0ajF5iKEyzXoBv1nxsDZCOU5V6Oczf8XGi2/h6GE3PNv/MVb6F2hJjptjC63hsngB+t7bj683fI87b0zHKBP1NtopurAEE71lmPzdRrg7tK9+QtYYSxeSRbPyvcbEEAB6bV5BG0kp4m5Hq/k0QXW51j7OplyuG4J2vcEUY2a7o0vqXriNnIYNP/rh5BEfzP08DKZdJQA4cJzKEXkAMB2D2e5dkLrXDSOnbcCPfidxxGcuPg8zRde2YzF7SifkHF2A9xf/AL/ffLH9Ew/4SZxgJxbByMgQeJKNrIJ8RIbGoAQAQYmKWpNuPW4hPPvIcfKbg0gqBwAeOZeDkDFkIT4eZgjwHDglga8V8Ikqx1dp1TzHg6hyvGiNsbOnoFPOUSx4fzF+8PsNvts/gYefBE52bTBuoSf6yE/im4NJqpXPfA4uB2VgyMKPMcwQ4GWXsd7tH9gUWCuQ14NHeWk5iJ7hWUld1yqJ24N14cZw6DgOCz37QH7yGxxUTQx8zmUEZQzBwo+HwZDLgN/WvbhTAhjZvgvvLyfD1sQQRhp/vovR3roDDDIjcOlOLvLuncfuw9chU+Yj4+FjPC3W3pe4vTU6GGQi4tId5Obdw/ndh3FdpkR+xkM8LszFg5RcFKUn4WFRKTKCzyI8m0NJYTaiI+MADfqCurxbt+Q8K+HzkZZaVPn/LJw5E4Penh9jtJGO+TwVa7dtOyuMnzEOr6QcwBLvc0gvB8rS7iAuj4M8Mw05hXraj+0qAc9xUBJfK7gTCAS+yk/qIeRnesjw24q9KqHgXe8vMdnWBIZGemg9djamdMrB0QXvY/EPfvjNdzs+8fCDxMkOYqiCkLK+QsCTKthUQyUoVFSGo9JYHDj2AP/35SIMNgAAHhxPqottzQGAskI4WW0t5O+tdfoWx/NAtZ+iMqJS9V24qv/zvCpCm46ZDfcuqdjrNhLTNvwIv5NH4DP3c4SZdoVEV1wQGUEVfrJQkB+JkPB7SMktQnrSQxSVZiD4bDiyuRIUZkcjMk5la8/T1ktu7sKscf/AhovZdU9Qh7qxV1ds5DL8sHXvHZTACLbveuPLybYwMTTSfAdQUHfC8aUw94Gw7DgOXKUvNNXuNSGkfz2tc1e77oSE455AjGu8X6soL68AlZejrLKRLl0Bmn23UT7BF2qP1zdzdcQ3fR3+yTVKNyp45KelQuU9PLLOnEFMb098PNqoQfLQ5G/1ELeHdQcDZEZcwp3cPNw7vxuHr8ugzM/Aw8dPUaorDmhCLTaEPhiiPceRACi/h71rr2Hw2gUY+uG/8O+p5Tj0yXKcqSxHFBkZwRBPkJ1VgPzIUKSN1j13bUh6zcPicRX4z7/jMXi6g47SsdrxgkfhgxTkFqUj6WERSjOCcTY8G1xJIbKjI1EZ4upTXo4KKkd5lSE3Od/jVf5f74e5ajtfqCOGqCFqNx4zxr2ClANL4H0uHeUoQ9qdOORxcmSm5aBQT2CcwkJrOupF1nUppoRjXjTazpIMDcyp85D5dDiumIieUeK5NeTSQUxiG1fafDqusnkCHfMaTXaWhmRg3pmGzD9McVULNIoTyNdrNEnbmVFra0dy336N8ioL65XJh+gfUktqK3WlbRdD6cSqt8lKLCZrl9V04tbj6oVQFalnaPUEB7IfOZXm/fMjmuG5g4JzOSJSUMxJb3JuLyZ96VTafiGekq4dpIVOFiQysae5+0Ppj7iztHZsRxJLbMl183lKKq2cn68XjZa2I7PW1uTovp2uVQ2KKij1zGqa4GBPI6fOo39+NIM8dwRTbvWYv6exr3agcXtSKturUfaAAo/40GSpPunpGZBVv1HkMnYsjR3rQs5D+1JHEwtyPZynaluRSmdWTyAH+5E0dd4/6aMZnrQjOFc177Lr5O3Ujfq/7UGfrdtAK+fPJ5+rOfUXh1XxJJQ2jelM5ubWZD95KwVeWEEO3UfQrHXH6GbWNYG+nlDopjHU2dycrO0n09bAC7TCoTuNmLWOjt3Mo8xTC2lABzOy7Dac5u4OpJ88bMii6zj6OiBYo76KEjTIuwXnWRH1JfUzsKJBU+bSJ0uW0ifTJ5HbF2cprXrRidB8HgvYNhFxcrrxvQcNsrEkC1tHGv/pOpozqAsNdv+CDoVnaz9WEUMnvZ2pvVifpFO304X4JLp2cCE5WYjIxH4u7Q/NrDWD2mjpj8rourcTdev/Nnl8to42rJxP832uVi+ULU7wJa/RUmpn1pqsHd1p+7U84jgZ3Tmxit62EpPY2oVWn7hFj1UKobNrx1JHsYRsXTfT+aRSouI/6Mym6TTireE00eMTWjjvY9p49kHl4roiSji7lsZ2FJPE1pU2n79HsjsnaNXbViQWW5PL6hN067E27Qj7u5BvFSWcobVjrUks6UofbDlLsWnR9NvGCdRZLKGuk3zov3cf0i2/NfSutZgkXSaRj38ylRFRccIx8hptR5aGBmTeeQjNPxxHxQ2IC5mckpIP/YOklm1J6rqdIgoz6dTCAdTBzJK6DZ9LuwN/Ig8bC+o6bitdf3jnOds6R5mHJlEHi1eo/ZANdcRZg+bYqz02EpVd9yanbv3pbY/PaN2GlTR/vg9d1boQSofuhOJLXoZW2YXnJNK5NS7UQSwmG9fNdDruSZPtXhOa9S8899rXne0RhVpj3NbL15vg1xWUcvUHWji0LYlE7WnUir30n/BHpBTSlRbfbbxP3KeH2uYSrmhAfNPun43WTUUUfdnPgKwGTaG5nyyhpZ9Mp0luX9DZmkCtVR6cTLO/aeNJ6CYa09mczK3tafLWQLqwwoG6j5hF644FUsh/dMUB9d5I9aGS2rHhqUCOUxRN+//Rk9oNWEoB6UoiLpOurnQicz0RtRu2mI5FyYmUyXToH1KybCsl1+0R9FRg7g2hNHgxOYzfp2XsVdSPF1zmKVo4oAOZWXaj4XN3U+BPHmRj0ZXGbQ3X+EG9ipSr9MPCodRWJKL2o1bQ3v+E0yOlgCxIewxR3P0PfT6qPYn1peS27RzFJYbQgUVDyEJsSg4LDlJElkAM0TQ4IuLkN+h7j0FkY2lBto7j6dN1c2hQl8Hk/sUhCs/mhMf5HNAjqvmty2C8LCij18Bx8GmMD7uNjfbP6ycng/EXUB4K749v46sfF6nvYTBeLpTRWOM4GKfHh+H2Rnsdd1QZDYdH+h4PbG73LfZ+0AJfKWK0GALlHwzGS4C2R3cMxssIL0PYvnNoO32m+h4G4yWGBeoWgStCgbwUfFEYdl+2wvT3WEL9osGSasZLibKgAE+4QsjkQp+gYjBeJnjIY6PBj1uHZSPZxZLxN0BZgIInHApl8npfZWQ0FiViNo+EVfv26PD6QhTMXIIhVW/jY7wwsPIPxktHWfJlHP5PCFILlZBY2GLklNlw7mqg3ozBYDAYfxVlybh8+D8ISS2EUmIB25FTMNu5K1ikbjrKtIvY4xuHV96ZiSmOqvc8M14sWFLNYDAYDAaDwWA0E/ZDh8FgMBgMBoPBaCYsqWYwGAwGg8FgMJrJS5JUFyMt6i4yan3O80WEf5qC2GTFS7nO+UUee3FaFO4KKZ9/ipTYZCie9+CL0xB1N6PW53v/PpRmxuJe5UcK/lReCpmWIjP2HpojHp02zPjTYLpoQf6s2Ps8KM1E7L3cF/Ka1+K8FHG24bzI+cpLkVTzqfswc7AT5h3JURNiGa6tdkKP4csRkPcXipfLwO/bPTCgyxtw25co/LW5ZlIethbDegzF4nPqsmgif+LYmwSfin0zB8Np3hHk1Jswh4zft8NjQBe84bYPiQ0aPI+0fZPRo99U7EtszHp0Hqn7ZmKw0zwcqT+QlxZeEYVjS51hZzcSm0IbI4+W4EWXKQ9F1DEsdbaD3chNaLJ4BG2Y0VI0KDYyXQhSfvMH7Lgg9JXgKpoSe5tGg/TaGHgFoo4thbOdHUZuCv0feCvJix5nG8GLnq9A5xcVXxSKKPVONKWrPvVWQ9l1Wu44mFaHaPnUzp9JWSgtlRrS6yvCqUx9X4tRRhGfv0UDVwZRgfqu5vCnjL3pFKXeoeh6yq+ijEKXSsnw9RUU3pDBc5m0+71e5O6bSjXf9GogRal0Jzq98ouDfx+49G9plKEluf/6F8zshZcpR+nfjiJDS3dqjniEbbg2HOXduknJjTbOF5U/az7aYmP98zdcFy8YXB7dupnc+LjVYOR0ckZHMnfeRQ8bdJJGxt4moU2vzYRLp29HGZKl+68vcOxpQV74ONsIXvB85aW4Uw2Ywsa+HzqpvZORS0/Da58dx/phrevu+CsQW8DCXE99a8vCPcLDjstwYtMItOhbbP+MsTcDUxt79FNXfjViWFiYo8GjL4kH/95h7HW3gVh9ny5MbWDfrxO0jeRlRWRuBtMGC7CFeeFlKoK5mWnD7UsLwjZci+JIfLvmMO6/kLdgmsCfNR9tsVHD+RusixeM4shvsebw/ed2d45PO4HDlwpREnIAh2IacpZGxt6moE2vzUVkDrO/LOj9BbzwcbYRvOD5SoOS6vK8RIQHBSEyWQ6u1vaS9Fgk5nMozbqLG4kFNftKshB7PQght9PwtM7TBiVk9yMReDUIN1MUdfpSUY68xHAEBUUiWV53b2lmDBLUH120HYghHdJxMzGv3iOc4vRYJMl4oDwX8WFhSMhrSJDQgFKG+5GBuBp0EymK+iNWFiTjRnAIojKeqe9SoU0WJRmIuZcLHhwUKbcQFpWO4spd5bkJCAu9iyy1AiilQokufV5B2p0U1B0KD8WDSARfi0Z6oQxZ2VU9CaNr7CVZsbgeFILbaU8FH7vx2dG4HOAP/4BrSFTwAJeF2xf94e9/EREPS6rbNVknpZmISfj/9s47LKpra+MvMyNVEDQSkSiIOAZjASX2jso1NoxRvFaMqNwkqIkliokFC9FcYqJJlBhRo2jkXuNnBVsoImBHmmAQKdIZZlBAypyzvj+GOsycGYom5p7f8/g8yZyz99lrrXetvWfOPhylW3/yIqTcCkP4/UyoHn092BzEXAlGUFAwrj99Fx7/6o9ndy8hKCgIl6KfoHaEpRmIS5aARSXyEiIRmZivNIGVIys2Uem2sXrNAgAjTcWd6+GIVqFRLkqzYhERHoWH+RWozEtF2nMWOTFXEBwUhODrSVC4+S4uBQUh6FI06rkZQBmy424gNPwu0hsmoGoEOionRm3jXwdHfrMyPL4ZhusxGSiWZKNOoqp8CpTnxONGWARi0osbXVujjjTkrFrU5KpAR5V3VMPKHuNm2HXEZBRDkp1Tm9ONNKzCH2xBNPYsnAffW2mIuRyMkPiCuvPVjK1ZdUTyCDdDriH0tnIdUU/jNpr1yGUPV16UZcYq9vczMqTeicT9jFqLkJcYiYgH2Y32hqqqjWqvrxwLgDOPG9teQxkyYxV77RlZKu5E3kfdUPOQGBmBB8rO58ortfWHRUH0Hiyc54tbaTG4HByC+IKalk3MdbXI8cD/HN7YshUTDOPxi19InXaV0VR7W1OrKuKqoHlzXh0CqExrRorUO9cRHp2EfGVhqshZldSfb5JkYMEgW9V806g/zTlVg3pNqluXqaqzDKSpd3A9PBpJjY1ton9ZPH+SgNTnLBhpCqLDbyKlemDarg/AlRstWK9onC9aGe5FNVuA0O0L4Pbvq0jPj8XeqWI4ep5BVm40/FeMga14PDbv34kPhg/FkIGLcFTCIid4K5as8kNY7G2cXDUc4pEbcFXCAkwqji0cjBnfPUBhbiR8nMUYviWqVmBsQSi2L3DDv6+mIz92L6aKHeF5Jgdy6X2cWDsBtt1HYkt4TcbJEP2tG1zXBSIuIxlnV41AL2dvhBSwYAtu4cjKMbAVT4TPiYNY6jwJc+ZPgn0fF/ilaDmDVMOkHsPCwTPw3YNC5Eb6wFk8HFuiakZchrif5sPZ/SBislJwzssTfo/q96/GFwWFuHNsFcaJe2DU5kCc2jQXs90+xIwhdhi8Khh3jn6EydMXYdnMwbAbsQmKyzFIPbYQg2d8hweFuYj0cYZ4+JbqY5WI3eMGz+OZkJcnwn/uYHzwc5qGXzM0jJ3NQfDWJVjlF4bY2yexargYIzdchURZ5dUI2nfFW3m/YOm0JTiYKAeE7dHFPBl75k7FZ4HZqGpuTFgp7p9Yiwm23TFyS3jtRFoW9xPmO7vjYEwWUs55wdPvkYovaPUQtEfXt/Lwy9JpWHIwEXII0b6LOZL3zMXUzwKRXVWAW0dWYoytGBN9TuDgUmdMmjMfk+z7wMUvBQxYSO+fwNoJtug+cgtqZKhOswo3qdcoJ2UJOOwxCfN3XkJCUji+me2Abr2m46ckFu27voW8X5Zi2pKDULi5C8yT92Du1M8QmF1TwIKxdckq+IXF4vbJVRguHokNVyWNChQnTYw/AO78rozFHjdPHM+UozzRH3MHf4Cf0ypV+hQoRtQuF0zZFI0qvWJc+Hgw7N4dgwmTZsD7dLhGHXHnrDrU5CqnwY2pjN0DN8/jyJSXI9F/LgZ/8DPSKlVoWI0/ZNkSGJi1BctWoFQmQ3GZXP3YWr2OqENdG4EGPVapsUd9XrBFd3Bs1TiIe4zC5sBT2DR3Ntw+nIEhdoOxKvgOjn40GdMXLcPMwXYYsalm7lA3Prbx9UsKG8eCM4/V91105xhWjROjx6jNCDy1CXNnu+HDGUNgN3gVgu8cxUeTp2PRspkYbDcCm2ocrC6v5BrqDytDtsQAZm1ZsBWlkMmKUSZvpVyvoeQyforqA3e3RXCf2hFP/7sfp1U8p8Rde1+VVpsz52lGFv0t3FzXITAuA8lnV2FEL2d4h1R/EVOZs2quqGm+YdT1p02NV+8XNl/VuswN+0NU1FlZNL51c8W6wDhkJJ/FqhG94OwdAsX01DT/Mpnh2Os+EFa95mBvwBZM6D8I48cNgZ14LLxvFGtcHzDgyA0WzV6vFOQ1c93RUpT3g9TBUM5xV7J1/oHSGSKiKor/ehS177yQTpcQMem7abSuAfVZcZnypQl0NfgBFeScoLlj1lF09UYXJn03jdJtQw4b71P5wx00yHAAbYmrIqIqurW+N+nbb6T7VUTE5NBxV1ty/iGdFJeKp69HtafOC09TCRExOT+Qk54JzTpZSkRE0ovLSGy3ksJqNgiVRtAqO12ymP0r5TJE8sdf0zBdE3JccYZSK4hI9l+aa65Hw79+3IT9aHJ6uGMQGQ7YQooh36L1vfXJfuN9qiKi0og11NdmEZ2RVp9ecp4WW7ap3efD5Kn3RRWTTd876ZHh4PUUliMnogq696U9tWk3hD6//JSqiKjq/pdkr2dDniHlRPKHtGOQIQ3YEqc4dms99da3p433q4gqIml1b3v6PFrhDCY3gLbtTaCqOkMawT12hvJOzKUx66Kr9ysxlL57FOm2cVBcTw3yxG00UL8nrb5RbXDFDVrd04CGfPUHyakFMWFy6AcnPTKZdZJKSRHrNX1taFHd4On8Yktqo2lfnzyRtg3Up56rb1TbVUE3VvckgyFf0R+KAdLXw3TJxHEFnVEMkP4715z0hn9Nj+WkyIcfnEjPZBadLNWsWU0aVc1z+n1lb3JYc0NhKxFVRK6mt/V60/pbVUQkp8RtA0m/52qqc/Nq6mkwhL76Q07E5NGJuWNoXZ3oaPcoXWrjUJ1n6nh2iKbo1+ypbmb8OfK7InI19bb/nBQSZSg3YBvtTahq7FMiqorbSu+2daStCQpVVN37gvrqdafloYrRcOuIO2fVwZmrRPTs0BTS17inuoIiV/cm+8+jFfsWmVwK2LaXFGY21DCXP7K/dyJ9S3e6WK7olXNsrVlH1MHZRoMeVdijKS+Y7O/JSc+QBq8PI4VJ9+hL+zbUbsjndPmpQlv3v7QnPRtPCinXNL7G11eOBWcea9G3nuFgWh+WQ4qhfkn2bdrRkM8vk2Ko9+lLez2y8Qyhck15pan+MNn0vZM+WbpfpHKi5ue6ShjK9p9Fk79OIjkRlYd/SmKRIY30VdTuWjTU3lem1WbMeY15Roem6NftqZZepGViO1pZJ0yKWGVHuhaz6ddchiNn1aBhvlHfn4ac4vJLtc+V12USRrnOSuniMjHZrQyr3WNdGrGK7HQtaPavucQ0w78VkaupZxsLGrspmJ5WEZUmHqDplkLSHbCZHlRpWh9w50ZL1ivc88XLgeOXaimCTgRDz8ERnQQAIMI7q0MhyToMFyNAYGAAXYEJHJ1GoKNpLzg594V++GkEZz3CeV8f+Pj4YGfACzhv9saCAQYQij1wJDwAntaZCPXfiUPRUrAVL1DOApAG4USwHhwcOyl+Ohe9g9WhEmQddoERAIGxMdrW3qopwrkDvyLTth8cajYIGQ6Cq4sYheePI0gGCNu2hZHQGPbOzuimC8BIjB5dBCiWFUH710cKIfY4gvAAT1hnhsJ/5yFES1lUvCgHixIE7zuM1D6jMca0+nT9brC2qNulWxaq3hcQtIWRoQ50u/WHYychAF2Iba0gQhf0H2YJEQCRtRU66xRDKiVAKIbHkXAEeFojM9QfOw9FQ8pW4EU5C4gsIbZKxzdTR2LhjlNIaOOKDZ/0gqh2JMpoGnsZQk8HI+vRefj6+MDHZycCXjhjs/cCDDCo100TaXZMBMYwrgs+SoL34XBqH4yuGzy6WVs0fX+0MsK2aGskhLG9M5wVA4S4RxcIimUoIgAQwNi4bd02CU7NataoSoovYP+x5xg0YQAMqz8StmuHthxZ2oCyUJwOzsKj877w8fGBz84AvHDeDO8FA6B96JoXf678FlmKYZX+DaaOXIgdpxLQxnUDPuklauxTAPK0VGRW1t2aFXXrhi7IRlqa4pYft464clY9nLmqNSJYiq2Q/s1UjFy4A6cS2sB1wydQmNlQw+r90RjOsbVmHVFHc9qoRXNeCNoawVBHF936O0Jhkhi2ViKgS38MsxQBEMHaqjN0iqWQUjPGpxQLzjzm7FuAtkaG0NHthv6OnaAYqi0UQx0GxVCtYdVZB8VSKUhTXmmsP0q0Sq5XwzzE4UAdzJzfA0IAekMWY0F/BlH+P+NOvV0BmmrvK9Nqk+c8zRSdO4BfM23Rr06YGOTqAnHheRwPkjUpZ7Wh2f1x+QWq12XtBUp1tugcDvyaCdt+DrV7rA0HucJFXIjzx4Mga4Z/BQYG0Bd2xNBpTrAUAYZ2btiyxB4UF4YwjX+LlCs3WrZe4Z4vXg7qp2tGgvzCcsiKpGov3nBLEovnBRK80LODy5r1WL++5t86rJzaEyKBCC9i9mCJhz+y+30Ij7EWEFR3zEjyUVguQ5FUzZV0dOr2PzF5yHhaBrayst6+OhGsrSwhqJRB+oxVnF97DICOEEIdgFg1/atBIHqBmD1L4OGfjX4femCshUDhCyYTSX/IAKFIjQM1+AL17KlGR6CDBo7WEUAAqv5IANGLGOxZ4gH/7H740GMsLGqcJ+iKxUevYL+rMcK2z0L/nkOx4nSG+u0QmsbOPkeB5AX07Fywpnbc67F+3UpM7cmVVhpodkx0oFMXfGQm/QEZhBCpHHxLUI6JDoSKAdaGRaeeDZya1UajKmCyHyOtRATdNkri0BL2eQEkL/Rg57KmnubWY93KqdA6dM2NP0d+C7ouxtEr++FqHIbts/qj59AVOJ2hUGh9nwKA7qDJmPBmMq5degIGQMXDJKSbOWHKqLaKEzToSG3OqkVTrmqLAF0XH8WV/a4wDtuOWf17YuiK01CYWV/D3P5oiKaxKWu2BXVELc1powZt8kI5vtBBY5MEANV80tTxNYwFZx5r6Lt+P4oPBNBpOFLUDlVjXinHsnH9qU+r5Ho1ZdcP4PxzAW5s+ggeHh7w+GQv0s27o03yMfx06Xn1WZpq7yvUalPnPI0wyMt4ijK2EpX19nSLrK1gKaiETPoM0DpntUP7GqAMh1+qUTV7NJi78jLwtIxFZUNjYWUpQKVMimdoDf+K0P2dHjBCFSoqVCm4Hly5YZvTsvWKcj3Ret3RfFSOEwAgfBNdLQ2QF3QSl4pqPmQhCfJDQLIq9wpg0tkChkmBOHit3t+5ZFIRdCEWsoufYpqXBDO/34o5A8xrJysCIHyzKywN8hB08hLqLiVBkF8AGl1K2Bk9upuASbiDu3U7/lFZUQnBW/3gYKHepKZRgoufToOXZCa+3zoHA8zrjVinPd5oL0J5/F3EVDRsRaziVwwuX6jbm6SWkov4dJoXJDO/x9Y5A1B/KGAyEf+0C9z2XENSwjl49c3APs/tuKo0rlo0jV1ggs4WhkgKPIiGQw/CBa4nwoUiCEFQ1iqRcgBbgg7av9EeovJ43G08eM5fIwEhREIVyUTUxGKhgFOzaJ5GdUzN0A5PcSdasaBUhVBhhNJESyAGEJh0hoVhEgIPXkNd6BikBl0AV+ga0Mz4l3DkN5MZj6dd3LDnWhISznmhb8Y+eG6/ClUSFXR0we59btC79i227vbFjtMGWBt0FO7W2tyL4MhZtbRWrjLIjH+KLm57cC0pAee8+iJjnye2q0hE7f3RWmOrhquOqENDGy49NuJl1G4N49MEZx4Xt6zvBjQzr9TRKrkOAGwBzvz8EM4//AK//fuxv/rfT0e3YUbHPPx24D/IYaFF7X2FWm3qnKcRITr36A4TJgF36oQJtrIClYK30M/BAqR1ztbAPd9w1QDOnOLyi5YIO/dAdxMGCXfu1ntoshIVlQK81c8BFtRc/xKo3iRcVVYO1twOvTsLudcHXLkRZ/Jy1isvEY4q1g4TF81Cl9yjWPb+SvwY+BsCfD+GW6AIQ20VExxBjqp64zYavwhzuqXBz3U05nr/jMBTR+Dj/jkijaxR+jgVeSUZSH5SgvLMMJyLygFTVoycmJuIF07EolldkHt0Gd5f+SMCfwuA78duCBQNha0QAMuAJQLLKsY1ebkH+khPYbd/suLJcTYXV0IzMWz5RxihB7AMAzmx9QRNIBBYVrHwKru9Fwsn/xPel3LqBq8MW4zHqXkoyUjGk5JyZIadQ1QOg7LiHMTczsOU+ZPxRupBfOp1HhmVQEX6PcTnM5BmpSO3uIzDFzYQgQHL1izAqyFFwtVqjggEFiwDsMWPkZpXgozkJygpz0TYuSjkMGUozonBzdhkBO7yw70yQN/6PXh9ORPWhnrQV/V1FQAEHTWMXQfjF81BtzQ/uI6eC++fA3HqiA/cP4+EkY36n0CE5pbopJuF6Mv3kJf/EBf2HcYNiRwFmU9Q+LxcY0zUw4JhqfbLSscp8zH5jVQc/NQL5xWDx734fDDSLKTnFtcVCWWE5rDspIus6Mu4l5ePhxf24fANCeQFmXhS+BzlLANGTmDrFTMiRYxqwsQyLKhm8d6OS7OaNaoKgfk/8P5oA9z8ai4+2ncJt+7+jsOHfkdO7QJFCHPLTtDNisble3nIf3gB+w7fgERegMwnhXguHI9Fc7ohzc8Vo+d64+fAUzji447PI43AETqAYcBUxwIwakb8WRRz5HdsciB2+d1DGfRh/Z4XvpxpDUM9fego+xQApBexflMmpn+7Hes8P8WWXVsw377mvp+G3ObK2ZvxtX0ow52rAMMwioUDp1AZZAbugp8iEfGe15eYaW0IPX0dJQ0DTKY6fwigr68HPMtBdlEBbkbEQodzbK1YR+JL6vqoB3ebF9x6LFe2Jx1jNeUFw4JFTa1XoDCpbjYmIoBlwWgcX1kjf5YpxYIrj21KuPouAaNwfr36RQo91jkfiqEymvNKU/0R6ENhSjaKCm4i4vEwjlxnIbmyBa7/3IYQDe9xkSf8hAPPpmFRH6XcNn0Pi2Z0RcnlH+EXW6lV7X1lWuWY87Sa2wEADBRprYhfu8nL4dFHilO7/ZGsECZyr4Qic9hyfDRCjyNn1aBhvilV2x93jS/O4/BLdQ4rr8ugXGfbTcZyjz6QntoNf4WxYHOvIDRzGJZ/NAJ6TKZa/3LCFiA9rbqOsNk4ezYWvT0+wlh9TesDofrcsLVo0XqFc76oP/bWRHmTdUNKKTHAk8aKO5JxO0tynONL1/MZYiT36MT6cWQhFJKl8wY6cadQ8ZAHEZUmHiPPsbZkpqdLJl2H0dLD8VRKREzWaVo+sBMZm3Wnke77KOQXN7IytaHJu6JIpmhIAZ5jSdzRmNpZOtIc3+uUzxBRSSKd2zSROgtFZO2ynS4klxNRFaWd3UBTBzjQ6NlL6F8fziePb8IojyEiWSyd8nIic2EbEs/2pYsJyXTdfzkNNRWQoYM7HYjIpKxD06mT6RtkPsy7obkNYCjr9HIa2MmYzLqPJPd9IfSLmxWZ2kymXVEyIkZKt35wo8FWZmRq7UhTPtlMiwd3oyFzvqBDUTlEan1RQolnN9FESyGJbGbQznNxlB7zG22d2pWEIhua7vN/9ODJHQrc+B5ZCkXUbboPBT16QqeXD6ROxmbUfaQ77Qv5hdysTMlm8i6Kyr9BXkO7k/04N1q72ZvWLV1KPtdya+OhEo1jL6XEY5401taM9HRNqOuwpXQ4vubROXU8o4ht46mriQlZOsykXSEXac2AHjRq4WY6FhKuISZZyp1VU0KJ5zbRxM5CElm70PYLyUTEkPTWD+Q22IrMTK3JccontHnxYOo2ZA59cSiKcjgMfxaxjcZ3NSETSweauSuELq4ZQD1GLaTNx0Io/D9e5GQupDbi2eR7MYGSr/vT8qGmJDB0IPcDEfRH/DnaNLEzCUXW5LL9AiWXc2iWiFujHMizL9OmKXbUsa0JWY/5lAKDNpGjQc2DikT0LIK2je9KJiaW5DBzF4VcXEMDeoyihZuP0e1Chqg0kY55jiVbMz3SNelKw5YeJs7QvUii8xudqZNQSFYu2+lM/LNmxZ8rv/NveNHQ7vY0zm0tbfZeR0uX+tC1XIZKEhv7lMk6TvOs9EgHIOjokKCNPpmY96BRHkfpYb4Wuc2VsxyozlWiF0nnaaNzJxIKrchl+xmKf6bcsoYKuuE1lLrbjyO3tZvJe91SWupzjXKZxhquUOMPIiJ5yiH6p9iMOohdyDf6OZHasbVyHVHnHiaLu40GPTa2hyMvShLp7KaJZCkUkc2MnXQuLp1ifttKU7sKSWQznXz+7wE9uRNIG9+zJKGoG033CaKUF9zja3j93EaxIOLIYw7bf795ljZNtCShyIZm7DxHcekx9NvWqdRVKCKb6T70fw+e0J3AjfSepZBE3aaTT1AKVajNKxnFnuKuP1mMnFIO/ZPEZh1I7OJL0c8V41ad63JK+WEivdlpMu1PVfc4FkM513+kxQPakcE7c2nX6VjFPFx9rOj+SfIab0FC6FDb3v+kHeeSqUKL2vtKtKp2zmO0nNtfUNL5jeTcSUhCKxfafiaeiIiq0s7ShqkDyGH0bFryrw9pvsc3FFZdsLlyVh3q55vblH2doz+unMrPVOuXG09Ur8tU1VmqSqOzG6bSAIfRNHvJv+jD+R70TVieYt1Qoc6/6qm6/yX107WgwbPc6eNPP6OP500n1y/OUXqt/DjWB7cLueec5q5XNK4F1a07WoYO1f8J4H+Jygh4fXQXO35eoXyEh+cvA5O4DYMdT2J82H3seFfdL8V/H9iss/D2e4733RzAFkpRXFKGEmk2Hpw8gpwlQdg7Xs3P/Dw8PDzg5/Y/A3nMRjgOOYMpkXex1eHvP09xwbH9428MK0HkT+fRYd4C5SM8PDx/FmwWjnquxAObf6CvTS/YDxyGUWPHY9KMmXB2fBfvqN1+wsPDw8PP7X86L21PxevD/+CimoU0Lgbs5M1YNbpVX3zKw9PqyAsLUSwvgezZn/PQxatFBNNOBvh9xSCMnbcCG7y3Y9umtVg2/1/4zWYp3Ltr87AiDw/P/yb83P5nIS8qwjOmGBKp8psZ//f4393+wcPzF4fJuoGjxy8hWVKFNmY2GOv6IUZr9VcwXmcqkHXzPM6GxiG7TAgzq/4YP+0f6NPh7243Dw8Pz+tHRcoVHP5PONKK5RCZWmP0rEVwstFVPu1/Bn5RzcPDw8PDw8PDw9NC/ge3f/Dw8PDw8PDw8PC0Lvyi+pXAojjtDiKi4pFb7yVGrwNscRruREQh/nUbeCvx2trPFiPtTgSi4nPrvb2uNSlF+v0HyHw5nf/PwEgfIe5JqfLHLx32eSriUmR/keeKSpEem4QCtYPhtcbFnxPL1o1Jafp9PGitzv4kXq0N5ciKewiNbwBvCexzpMalQPYyr/HKefl+4xfVLxvmCQLXemDnuSic+cIZ4j7zcPSJqteN/dVg8CRwLTx2nkPUmS/gLO6DWSvnop/dRGyPrnl17UuAzUH0ye+w8v1RGD58BKZ89G8cu55e+4bBipTf4b/NHf8Y4YS5XxzAtRSNr3lqJo3tn3f0ifJJf0mYJ4FY67ET56LO4AtnMfrM84Pfsn6wm7gdrRU6Nu0nLBgyFEuO5L7iyfxvApOO330XoH+3vlgcUKfvlw6Tid993TCw2ztw/Smp6W+6a1VY5EcfhOcoW/ScsAvRap5x4rWmhj8xlq0aEzYNPy0YgqFLjiBXqbOK6xswtOdIrA7Ob/l1XiYcNrQuLGT3j+EzJ1vYjt6GCDU50zIYZP7uC7eB3fCO609IeonCqozchBE9h2Pl+VbQESevwm/VKP/hap7WhKHcX6ZT5/d+IgkRMYVXyXueB/k/VPcH+RUw+Xfodgr3OS8bJvcXmt75PfpJMXC66u1KzkNtyfnbWHqhfHKrI6eEbe9SG5GYPouoUD5I9OI8ufd3p/Pc7yNpEY3tn0ce/g+VT2sIk093bqfQnxo5Jpd+md6Z3lMMnAqvetO8xZ+QSy9n+ja2BZFrZFsJpd2LoYwWdPk/T/nv9LG1HjluTXi1mqmIoM/EevT2mihSkV2vGDml7BpGem8uorNqtcRrTS1/WixbNyYlafcoplFnFXRjtSMN2RBe78U0f11U2/AyYCjjuzGkZzaH/vvSLldBEZ+JSe/tNRT10oRVQdGfv0uD1oVSkfKhl8Kr8BsR/0v1S6US0VcjUGpkAn0Agg5O+PLoPix6m+svGZTi5ncbcfjRS/x6qAWV0VcRUWoEE8XA4fT5Z5jpuh9HPftAX/nkVkcHb3Qwg46OMUxNVUhU0A5mb72BDi/xzxY3sv/Lo9i36G3l0xpQevM7bDz86JX+YtSIymhcjSiFkWLg6OD0JQ4utceYPUfh2af5kWtsmxGsHPqhS/O75BEawdhIhb5fNkJTmJpoeufwq0IIY2Mj9a97BnitcfGnxbJ1Y2Jk5YB+yp0xGUh/ay2ObxmBdg2P/CVRacNLQQATjTnTUoQwNTV5uddgnuJJ51U4sW0UXs0fQHwVftNm+4dcgkc3Q3At9DZSZfVvUrJ4/iQBqc9ZMNIURIffREqD41xtAZRlIC6pAEx5Nh7cSkJR7eEyZMfdQGj4XaQ/V74hUIn8pCiEht5EilT5hqn6dmUZcUgqYFCe/QC3koq4b7WWZSPuRijC76ajQTelGYhLloBFJfISIhGZmM+9eKrIwK1LlxH9uBhMYSKuBl1CZErdvXdGmoo718MRnZSP2jsRbAGi9yzEPN9bSIu5jOCQ+Lp9howUqXeuIzw6Cfmqbl2U5yD+RhgiYtJRrOw2Nb6WSx7hZsg1hN5ORV14KpBx6xIuRz9GMVOIxKtBuBSZgue6A7F46dvITc5rcJtGdR9Q3G55fBNh12OQUSxBds7L3Ddaioy4ZEhYoDIvAZGRichXCo76cSqjxv6awyrjwKIgeg8WzvPFrbQYXA4OQXxd4CBNvYPr4dFIUh045MTfQFhEDNIbBw4ZcUkoYMqR/eAWkuoCpzKvKjJu4dLlaDwuZlCYeBVBlyKR8hzQHbgYS9/ORXL9jWRq+miMetvKs2KRqHyvsyX5o65tA1jkxFxBcFAQgq8nQcYCTPZdXAoKQtClaDwpqzlPsyZUUZoRh2RFIyRERiJRRSOVuVtNWWYsHuaxACND6p1I3M+o0X0l8hIjEfEgu94edx3oVFd4khfgYXQ0EpT37qvJXa56pw55UQpuhYXjfuYL5UMAgLLsONwIDcfd9Oda3IqVQ/LoJkKuheJ2qqxhTVU7ZtX1W6fGCQAqc+NxQ0WsarTGFj1EeHAQgoKCEBQcgeRiFsBzpNy4hKCgYEQky2rbcMWpAawECaHBij6DLuFmmkJEZWk3cSkoCMGhCZA0ckjr6VD72lRHc2PJyh7jZth1xGQUQ5KdgwZVuTIfSVGhCL2ZggbTq5p4Nsx/LdYDACrzkxAVGoqbKdKGminPQmyi8haADhg0rBMybquY87SpJyrhqMfsczxJSMVzloE0JRrhN1NUxqNJNqicL6rRaIP6HBPUy5kmoanuy4uQcisM4fczoVJZ6mp0WSZiH+aBBQNZ6h1E3s+o1VZlXiIiIx4gW6m0yWVydOvzBtLvNdY9p0418hL81gQ4F9VM6jEsHDwD3z0oRG6kD5zFw7ElqgxMZjj2ug+EVa852BuwBRP6D8L4cUNgJx4L7xvFnG3B5iPafwXG2IoxfvN+7PxgOIYOGYhFRyVgc4Kxdckq+IXF4vbJVRguHokNVyVgAbAFodi+wA3/vpqO/Ni9mCp2hOeZHMUxNe3k+dHwXzEGtuLx2Lx/Jz4YPhRDBi7CUYmypVAUyeCtWLLKD2Gxt3Fy1XCIR27A1YI83DqyEmNsxZjocwIHlzpj0pz5mGTfBy5+KeoX6FSJ0mIZSqsAqipFsUyGZ+UMWMgQ/a0bXNcFIi4jGWdXjUAvZ2+EFLBgZdmQGJihLcuiolQGWXEZ5ABk0d/CzXUdAuMykHx2FUb0coZ3SEFt8hZH7YLLlE2IrtJD8YWPMdjuXYyZMAkzvH9DqEpf5yP12EIMnvEdHhTmItLHGeLhWxBVBgCEytJiyBQDR2mxDDJZHu4HrMUE2+4YtS2ieoJiOPqoROweN3gez4S8PBH+cwfjg5/TtCx6TYFFwa0jWDnGFuKJPjhxcCmcJ83B/En26OPihxQGGsapChX2PysHw3LEgZUhW2IAs7Ys2IpSyGTFKFMEDt+6uWJdYBwyks9i1YhecPYOqfuiVByFXS5TsCm6CnrFF/DxYDu8O2YCJs3wxm+h/lgxxhbi8Zuxf+cHGD50CAYuOop8dXkFgCpLUSwrRRUIVaXFkMmeoUxyFyfWToBt91HYVr2RTG1uqkKFbSWF96v7HIkt4TWVsiX5o6Zt45UMAAHad30Leb8sxbQlB5EoB4Ttu8A8eQ/mTv0MgdlVWmiiMWzBLRxZOQa24onwOXEQS50nYc78SbDv4wK/2kYcuVt0B8dWjYO4xyhsDjyFTXNnw+3DGRhiNxirgu/g6EeTMX3RMswcbIcRm6JQ39uUdwGeQx0w1Gk4+ljbYdp3d1DSzDqpmjLE/TQfzu4HEZOVgnNenvB7VM8RbA6Cty7BKr8wxN4+iVXDxRi54aqKhWQ1TCqOLRyMGd89QGFuJHycxRi+JQplXGPmqN8KKvHk108xa64Hlk5zQJ/pB/CYAVhpQ60JjDpAL+lHLJ4yDdvvmaKzkQCAId5sewu7fe9A1N6QM04qERigbekVfDlrMubsS4N5R8WvjfodhLixzQvnS03RttFM2Ro6bGptQotiWRm7B26ex5EpL0ei/1wM/uBnpMmhqKOh27HA7d+4mp6P2L1TIXb0xJmsXJXxdNsf0iAm2qwHwBYgdPsCuP37KtLzY7F3qhiOnmeQI5fi/gnF3DJyS3jtF071tbZAi3qiBrX1mEFm+F64D7RCrzl7EbBlAvoPGo9xQ+wgHuuNGhNeqQ3qcqzOmiajqe6Xxf2E+c7uOBiThZRzXvD0e1TPn2pqdEEh7hxbhXHiHhi1ORCnNs3FbLcPMWOIHQavCsadox9h8vRFWDZzMOxGbKrWNrfu1etUC16C35qM8n6QOuT0cMcgMhywheKqiKjqFq3vrU/2G+9TFRFVRK6mnm0saOymYHpaRVSaeICmWwpJd8BmelDF3ZaYdNo9WpcM+qygy/lSSrgaTA8KcujE3DG0Lrp6Aw+TTrtH6VIbh410vyKHjrvakvMP6cQQEVXF09ej2lPnhaephMlT366KiEnfTaN1DajPisuUL02gq8EPSMLUM7MaJu8EzR2zjuq62U2jdNuQw8b7VCV/TF8P0yUTxxV0JrWCiGT037nmpDf8a3rMuRmylH6Zpk+mroFUs/1XenEZie1WUljNnp7SCFplp0sWs3+lXIaIyf6enPQtyf1ieU0DWia2o5V1DShilR3pWsymX3MZoqo42vpu27p9mVX36Iu+etR9eahij50qX+cn0I5BhjRgSxwpwrOeeuvb08b7VdXXICr9ZRrpm7pSYM3AmRz6wUmPzOb8V7GnWv5QfR8VkbS6tz19Hq0YM5MbQNv2JihirxUM5e2bQLptBpB3vIpWFddpzdR11Xu95PT462Gka+JIK86kUgURyf47l8z1htPXj+Xc4+Sgkf2a4sBk0/dO+mTpfpEUkZPSxWVislsZVrsHvTRiFdnpWtDsX3OJoSqK2/outXXcSgmKwNG9L/qSXvflFKoIHKXvHk26Bn1oxeV8kiZcpeAH+ZTAlVdERKW/0DR9U3KtHTgRk/MDOemZ0Zz/vtCY1yppZFtNnyY066TiOi3JH8621ddriJwStw0k/Z6r6UZ1m4obq6mnwRD66g+5Zk2oQf74axqma0KOK86QYpj/pbnmejT868ck1zZ39Qxp8PowypETUcU9+tK+DbUb8jldflpFRFV0/0t70rPxpJDyGt/rkuXUPXRLIicqiaMDM62pjZ4jecdWqc5drjqp2llUGrGG+tosojPS6g9KztNiyzbV+3AZyjsxl8asi67ek8tQ+u5RpNvGQW2OyB/uoEGGA2iLQkB0a31v0revvr7KMWepr99ElL/fmfSNh9CGsHxiiOj5/y0kC/1R9E2aolAra01R8wzIctGZ6r22DGUf+pjWBD0n0iJOqimlsJVi0rNbQ5HVImdyj9D82fspQ22bFuqwGbWp+bEspcjVvcn+82hFPWJyKWDbXkqoImJyjpOrrTP9kK4wtCr+axrVvjMtPF2iOp4SplFMuNcDDOUcdyVb5x9IcYkqiv96FLXvvJBOl1Dt3GIy66RintRUazXUE9VoqscVFLm6J7WxGEubgp9SFZVS4oHpZCnUpQGbH1AVvVobOHOMiJ4dmkL6TdobrKHul0bQmr42tKhOWHR+sSW1qd5TzVmjmWz63kmPDAevpzBF4aN7X9pTm3ZD6PPLTxXavv8l2evZkGdIuQbdV6jVqTa0vt+aTqPv33UIIfY4gvAAT1hnhsJ/5yFES1lUvCgHC0BgYAB9YUcMneYESxFgaOeGLUvsQXFhCMvT4WwLgQEMdAUwcXTCiI6m6OXkjL764TgdnIVH533h4+MDn50BeOG8Gd4LBsBAGoQTwXpwcOyk+Gld9A5Wh0qQddgFRmWh6ttVj1NXYAJHpxHoaNoLTs590V6F1WWhpxGc9QjnfX3g4+ODnQEv4LzZGwsGGADCtmhrJISxvTOcu+kCMIK4RxcIimUoatKrc4pw7sCvyLTtB4earVeGg+DqIkbh+eMIqrtzWUvRuQP4NdMW/eoaYJCrC8SF53E8SAbI05CaWVl3W0PUDd26ANlpaYrbN6p83fFteBwJR4CnNTJD/bHzUDSkbAVelKv5JQcABMYwrv9zjVCsvg+RJcRW6fhm6kgs3HEKCW1cseGTXtB+C7QAOjo60AGg+tVELBgIq2+zCNG2rRGExvZwdu4GXQBG4h7oIiiGrIi4x9kENMZBmaJzOPBrJmz7OdTuQTcc5AoXcSHOHw+CDHKkpWaiUqCwExChmyJwSFMEDgYGuhCYOMJpREeY9nKCc9+OeJsrr9QgMDau90sbd15ri8DYGG3r3UlrSf5wtm0WGjShBmHbtjASGsPe2RmKYYrRo4sAxbIikBa5K2hrBEMdXXTr74hOQgC6YthaiYAu/THMUgRABGurztAplkJaOwwhLN51Qv/2QsCoNz70/QzDdeIQfr0QrKrc5aqTdabUowTB+w4jtc9ojDGt/ki/G6wtap7rKEPo6WBkPToPXx8f+PjsRMALZ2z2XgB17heKPXAkPACe1pkI9d+JQ9FSsBUvUK6YGBqPWeeS+vpd06nh2xg0sCMEAPS7doU5ZJBKFYpU1hpEvbDYYxzKTvshMIsFmEc4cfNNzBrbtlk1VoEhhnl+guFZR/DNKcVt7PTAC2gzfSa6qJgvtEODDptcm1oSSxEsxVZI/2YqRi7cgVMJbeC64RP0EgHSoBMI1nOAYyeFoaJ3ViNUkoXDLkaq49le0Cgm3OsBCYJOBEPPwRGKS4jwzupQSLIOw8WoZm6p60xjrdVQT1SisR4LYGCgD2HHoZjmZAkRDGHntgVL7AlxYWHIY6Wv1AbOHGsW3HW/JHgfDqf2weg6YaGbtQVqlcVVowVtYWSoA91u/eGoKHwQ21pBhC7oP8wSIgAiayt01imGVKpJ9+p1qg2t77emw1kuBKIXiNmzBB7+2ej3oQfGWgigTrOACN3f6QEjVKGigjS3Vdrawj4vgOSFHuxc1mD9+vW1/9atnArb4nwUlstQVDcTadWuZ3UgNO+iYfG8QIIXenZwWVPXx/r167Byak+I6u19VKADoVAHIJbDHypg8pDxtAxsZWW9fZUiWFtZQlApg/SZcuQZ5GU8RRlbicp6+5FE1lawFFRCJn0GVncQJk94E8nXLuEJA6DiIZLSzeA0ZRTa1jRo5AABRC9isGeJB/yz++FDj7GwEGiyRNkHHH0IumLx0SvY72qMsO2z0L/nUKw4ncF9a04JA0N9CKgMpaXKPgHAPkcJjGBcnfH192QCgI5QCB0QWAL3OLVGizjUPx0Ak5eBp2UsKhs2gJWlAJUyKZ6xuhg0eQLeTL6GS4rA4WFSOsycpmCU+sBpzitVVH9BqaFZfSijU18PLckfTW2bB7cm1KDkJ+gIoRgmaZe7yu2hA4EOGvhWRyBQ900RACDoaINupjpg5FWKD5pQJ2vqXQOYTCT9IQOEItXFnn2OAskL6Nm5YE29/tavW4mpKjsEIBDhRcweLPHwR3a/D+Ex1gINUkppzIxEff1WiVAAIRjUuKCh1gBAAItZHphhHAK/g/EovfUrHveeCwfd5tTYOoQ2C/DpTH1c+GY/4soTcCzkTcye3F75tCbBrcMm1qYWxVIXXRcfxZX9rjAO245Z/Xti6IrTyGAYSPILUS4rqvdFT4nGZUhFTJSptx4oK0R+YTlkRVI1dUannp+0qbXK19Y8H2uux/XPrjneHe/0MAKqKlAhl7xaGzTlWDNQX/cZZCb9ARmEEKkWloYarWwLoNO48EEAqv6IS/cCNTqt1xcXL8FvTUWlCxWU4OKn0+AlmYnvt87BAPOaAlt/hASqJ8aqsnKw5nbo3fmFFm0bIjDpDAvDJAQevAZp7acMUoMuIKFDV1ga5CHo5CUU1RxiJQjyC8AfRurbxWq7DwcCmHS2gGFSIA5eq+sFTCqCLsS23l5gYWf06G4CJuEO7tZu8mFRWVEJwVv94GChHA4hOvfoDhMmAXfqGoCtrECl4C30c7CAQNARLrv3wU3vGr7duhu+O07DYG0Qjrpb137LbETJRXw6zQuSmd9j65wB0CI8jeHqg8lE/NMucNtzDUkJ5+DVNwP7PLfjahP+pLRuNxt00cnCo+QS5UNg0mLxtH1PdFVrYD24xqk1WsShwfmAsHMPdDdhkHDnbt1+LrYSFZUCvNXPARYCATq67MY+Nz1c+3YrdvvuwGmDtQg66g5rtXZpk5OaaI0+lGlJ/jSvrVAkVDGJEkjb4ttUmpy7zaSsAIUvusK+/5uNNAUNdVJlvdNpjzfai1AefxcxSvlHLAsITNDZwhBJgQfR0P1BuKCyQ6Dk4qeY5iXBzO+3Ys4A89ovPuoUJHxTff1Obm682k6Ah5sYCYe+gfeJYoyabaOody2KUzs4r1yGvg8P4CvvH3DvnXkYY6h8TkNapMOm1qYWxbICmfFP0cVtD64lJeCcV19k7PPE9qtyvNnVEgZ5QTh5qTY6YCVB8AtIbtIPIWrXA106o6ulAfKCTqLuEiwkQX4IaCSAptdabdBcj6s/I6r3A0kVyspZmNv1RmfdN1+pDU3NMc1w1X0dtH+jPUTl8bjbWFhgm1mj1cKpe0aNTrVbPLS+35qO+tiyxXicmoeSjGQ8KSlHZtg5ROUwKCvOQczN+OpzCpCeVr3oYbNx9mwsent8hLG6WrQlQF5VLxxG47FoTjek+bli9Fxv/Bx4Ckd83PF5pBFsOkzEolldkHt0Gd5f+SMCfwuA78duCBQNha0JR7tqjxLkqH8pVRiNX4Q53dLg5zoac71/RuCpI/Bx/xyRRjYQsQwYOYGtVzyJFIWMVfUNt5ZKVFYRKisrqhO1HSYv90Af6Sns9k9WPPDH5uJKaCaGLf8II/QAgb4+9PAMOdlFKLgZgfSxy+HRR4pTu/2RrGiA3CuhyBy2HB+N0AMgxcX1m5A5/VtsX+eJT7fswpb59qi5iQM09jVb/BipeSXISH6CkvJMhJ2LQg5ThuKcGNyMV8SzsrIKVFmJilr7WDCs4lc7VlMfsckI3OWHe2WAvvV78PpyJqwN9aCvA7CSK9ji+k9sC6mXnCrQHbwYy4YJcHXPDlzLqytaldkh8Fl7Db3dJlTfOmbBMHLFuBoGByzLco+z2lZVKNvfbrKGOAj0oa8HPMvJRlHBTUSkj8Vyjz6QntoNf0UDsLlXEJo5DMs/GgE9ANKL67Epczq+3b4Onp9uwa4t82HfOHB1RUubnKysRBVVorIucADLgIVCv1r1oYyybbFlij6JavXfkvzhbFt/HLUIYW7ZCbpZ0bh8Lw/5Dy9g3+EbkMgLkPmkEM/LuTWhDpZhICdW8cs0oFgkgBQ60iJ3wbAKP9e7BAGger9MExHAsvUWK4SyYhkUU0Y54g4ew+N/fIkVQ3RrDmtfJ1U5S9ARU+ZPxhupB/Gp13lkVAIV6fcQn89AmpWO3GIdjF80B93S/OA6ei68fw7EqSM+cP88EkYqO2RR/DgVeSUZSH5SgvLMMJyLygFTVoycmJuIL1Ex5nYc9VtYHZNGC9N6sVLSmgIRHBYvxQjJcZyiKZjcoeZzLeLEgajXEqycXIX/fJuAIfMGqNFfDS3TYZNrU4tiqYPMwF3wUxRlvOf1JWZaG0JPXwftJi7CrC65OLrsfaz8MRC/BfjiY7dAiIbaKr6oKMcTamKibj2g3w4TF81Cl9yjWPb+SvwY+BsCfD+GW6AIQ22F1XMLKb4YaFNrNdQTlbSbrLEeAwBbkI46E87ibGxveHw0Fvp4lTZozjGGYap1pGhbdnsvFk7+J7wv5VT3pgRn3U9ExynzMfmNVBz81AvnFcLCvfh8MNIspOcWQ4ezRjNQpHCjwleX00QgsGAZDWuH+GK1OtVooxa1SdlvLwXlTdZ1MJR1ejkN7GRMZt1Hkvu+EPrFzYpMbSbTrigZVd3/kvrpWtDgWe708aef0cfzppPrF+coXa6h7Y0ndO/EehpnISShpTNtOHGHCmseBClNpGOeY8nWTI90TbrSsKWHKb7meavSRArwHEvijsbUztKR5vhep3wN7RjJPTqxfhxZCIVk6byBTtwpVDwoo4bSxGPkOdaWzPR0yaTrMFp6OJ5KSUaxp7zIyVxIbcSzyfdiAiVf96flQ01JYOhA7gciKEtVp1WpdO3H5TS8g4AE5mNojd9/KOqpnIiqKO3sBpo6wIFGz15C//pwPnl8E0Z5NX3IU+jQP8Vk1kFMLr7R9JyIqtLO0oapA8hh9Gxa8q8Pab7HNxRW04DJouPzrEhPBwTokI6gDembmFOPUR50NCFHta+ZLDq9fCB1Mjaj7iPdaV/IL+RmZUo2k3dRlKyKUq/9SMuHdyCBwJzGrPGj/0Q9orhzm2hiZyGJuk2nHReTufvIv0FeQ7uT/Tg3WrvZm9YtXUo+13KJISJ5yg808c1ONHl/an1vqYQpvEHfLx1H/ezsaZjTBBrvNIpGjJtPOy5n1D7AJos9RV5O5iRsI6bZvhcpIfk6+S8fSqYCQ3JwP0ARmZnqx6nyjQKq7H9Kck1xIDmlHPonic06kNjFl6IVgaOzG6bSAIfRNHvJv+jD+R70TVhetQYZyjo+j6z0dAgA6egIqI2+CZn3GEUeRxMo594JWj/OgoRCS3LecILuKAKnPq+iZFSVeo1+XD6cOggEZD5mDfn9J4qeFifSuU0TqbNQRN2m76CLyWWcfahGybbcuj6tXbbThWTFk10tyR/VbTl4FkHbxnclExNLcpi5i0IurqEBPUbRws3HKCT8P9yaUJWwslg65eVE5sI2JJ7tSxcTkum6/3IaaiogQwd3OhCRxZ27JYl0dtNEshSKyGbGTjoXl04xv22lqV2FJLKZTj7/94Ce3Amkje9ZklDUjab7BFFKRSn9cXYbzRv1Lo2c5kYfL19CH209R49fEBEjUZ27pL7eqYWR0q0f3GiwlRmZWjvSlE820+LB3WjInC/oUFQOEZVS4jFPGmtrRnq6JtR12FI6zNEhk3Walg/sRMZm3Wmk+z4K+cWNrExtaPJXwRTGMWZV9Vv24D/0+RhFrFy/Pk/xSeF0cMUwMhUa0YBl/hT9OF6l1hRI6bfFk8n7gfJTTBxx0oLysJU0YMpPquu6Mi3RYZNrU0tiWUE3vIZSd/tx5LZ2M3mvW0pLfa7VPrhZmhhAnmPF1NG4HVk6ziHf6/nEqNNgSeP8514PkGJcAZ40VtyRjNtZkuMcX7qezxBRCSXWzC3WLrT9QjIRZ63Vrp6ohLMeV9H9L/uRrsVgmuX+MX362cc0b7orfXEuvd6LmV6dDZmZanJsVxTlJp2njc6dSCi0IpftZyj+GUNZh6ZTJ9M3yHyYd+1oG8I9dxAxJL31A7kNtiIzU2tynPIJbV48mLoNmUNfHIqiHLU1uoQSz26iiZZCEtnMoJ3n4ig95jfaOrUrCUU2NN3n/+jBkzsUuPE9shSKqNt0Hwp69IRD9+p0qo2NHLVJpd+UW7cOOlT/Z5QmII/ZCMchZzAl8i62OnB/n+d5ibBZOOvth+fvu8GBLYS0uARlJVJkPziJIzlLELR3fO23cJ6/EiyyznrD7/n7cHNgUSgtRklZCaTZD3DySA6WBO3FeD5wPDyvGBYZ+92wveN38Jvxal5J8Xfg9V8PyBGz0RFDzkxB5N2teC1NqIyA10d3sePnFcpH/j68Bjaq3/6hLS/zZ3QeDbDIOuqJlQ9s8I++NuhlPxDDRo3F+EkzMNPZEe++o+72Oc+fDZt1FJ4rH8DmH31h08seA4eNwtjxkzBjpjMc331H9a18Hh6elwNTgiJpOdiSSOy7YoF5k/gFdbP4G6wHXksTWAkifzqPDvMWKB/5+/Ca2NjsRbW8qAjPmGJIpMqvCeJ5lYhMO8Hg9xUYNHYeVmzwxvZtm7B22Xz86zcbLHXvrv5hRZ4/F5EpOhn8jhWDxmLeig3w3r4Nm9Yuw/x//Qabpe7ozgeOh+cVIUfs9tGwMDdHp7eXo2jBpxj2Kt42/Tfi9V8PyFFU9AxMsQSvnwkspHExYCdvxqrRf9cvg6+Pjc3a/lGRcgWH/xOOtGI5RKbWGD1rEZxsqh+s4XnlVGTdxPmzoYjLLoPQzAr9x0/DP/p04BfUf3UqsnDz/FmExmWjTGgGq/7jMe0ffdCBDxwPzytFnn4J+wPi8caEBZjlqPh72Tza8fqvByqQcuUw/hOehmK5CKbWozFrkRNeKxN4/jI0a1HNw8PDw8PDw8PDw1MH/4Wch4eHh4eHh4eHp4VoXFSXpt/Hg8x6rwV6yZRnxeFh3mv5qMD/DHyMWoHSdNx/kFnvrW+vhubFrhTp9x/gFZaB1qE8C3EP817Zg0evula+brDPUxGXImtGPF5T/b10NPul+T7XBvXXZ4vTcCciCvG55S+11r1c+5qDep+8PpQjK+4hmjxN/C1sbznci2o2DT8tGIKhS44gt8kObhqs7D6OfeYEW9vR2Bbx2j0p8D8BH6PWgkXaTwswZOgSHHnZiVVNS2LHpv2EBUOGYsmR3L/Q5MUBK8P9Y5/BydYWo7dFKF4A8rJ5hbVSI5WR2DSiJ4avPP/njwWKN6z+7uuGgd3egetPSU1+A9trp79XBKdfWuhzbVB9fQZPAtfCY+c5RJ35As7i3nBZOrP1a91Lto9N/wkze/bD7J+SmlQ/VPvkdYGF7P4xfOZkC9vR29DEaeI1t70VUf7D1cqUpN2jmIwXyh+/FJiM72iMnhnN+e+ruR5P0+FjRETEUP6d25RS91aAplOSRvdiMuhVerH5sSuhtHsxpFUZYPLpzu2Uei9M+JNgMui7MXpkNue/r8zHr7JWclER/Tm9O2gdhRYpH/kTqYigz8R69PaaKKpQPqaRJujvfwoNfmmRzxvD5N+h2w2KXuPrM7m/0PTO79FPEiJiCumq9zzy2Hf15dS6VravDoay9k2iXnMCKK3JhayxT14vGMr4bgzpmc2hJk8TTbH9rzJPvAS4f6kGYGTlgH5dXs3fFxKYGMNIR/lTnr8SfIwAlN7EdxsP41FLfh4xsoJDvy54NZmloPmxM4KVQz9oUwZKb36HjYcftfovR01GYALj5hnbbF5lrVQPg6dPOmPViW0Y9Vf6y1NCU5iaNDce2uvvfwsNfmmRz5Upxc3vNuJwg6LX+PqV0VcRUWoEE30Agg5w+vIo9nk4vZxa16r21acMCewkHPabA6sm/yWmxj55vRDAxNgIzfOq9rb/ZeaJl4DGRTXKsxCbqPxzfjly4m8gLCIG6cU1R1jkxFxBcFAQgq8nQcYCTPZdXAoKQtClaDwpq2stlzzCzZBrCL2dChlT9zkEOloFszQrFhHhUXiYX4HKvFSkPdf+2kAZsuNuIDT8LtKfc9+kYKSpuHM9HNFJ+SpvAVXmJyEqNBQ3U6RgAIDNQcyVYAQFBeN6kgwsGGTfvYSgoCBcin6CmmGUZcQhqYBBefYD3EoqUrQty0BcUgGY8mw8uJWEolq/aD9eVOYjKSoUoTdTIK3vVwBgpEi9cx3h0UnIVzamNANxyRKwqEReQiQiE/PVi11djLj6Z2V4fDMM12MyUCzJRk6p0vF6NPJpPbjiUZYZq9grzMiQeicS9zNqLlKJvMRIRDzIbrynrywbcTdCEX43HQ1dW4qMuGRIWKAyLwGRkYnIr3YIWxCNPQvnwfdWGmIuByMkvkCRG3IJHt0MwbXQ20htIGo18UY5smITlW7PM5Cm3sH18GgkNXYiZI9vIux6DDKKJcjmcqI6zaiLXS3qr1GeFYvE+oNtFFMWBdF7sHCeL26lxeBycAjiC+rOL8uOw43QcNxNf96gljQ9bnJIHt1EyLVQ3E6VNdJIHQLoqDJWbcyV4IgnK3uMm2HXEZNRDEl2Dmq9pHWtrEG9zmpQWytRhoy4JBQw5ch+cAtJNQVDLoO8Wx+8kX6v0bgboq0fFajNSw4/AYC8KAW3wsJxP/OF8iGNbeujrL+m64bLl9AQJ6jPKS1iCABsTgyuBAchKPg6khQTFO5eCkJQ0CVE15ugSjPikKzoDAmRkUhU1Vk9lP0CTT7nyEW112YLEL1nIeb53kJazGUEh8SjJrXrrl+BjFuXcDn6MYqZQiReDcKlyBQ8V5ylotZVIj8pCqGhN5GiPFlp0IUm+zjnCZW1GErrl6d41+Nf6P9M1RpCc7xVxaTZc3Mj1OmQI37qUFMLBSoLZz0a1f66Q8q2N66VXPOEetuanu9Nq2+tifpFNSvF/RNrMcG2O0ZuCa8bcHEUdrlMwaboKugVX8DHg+3w7pgJmDRjB2LfeAt5vyzFtCUHkSgHhO27wDx5D+ZO/QyB2QwABqnHFmLwjO/woDAXkT7OEA/fgqgGi14OyhJw2GMS5u+8hISkcHwz2wHdek3HT0ks2nfVdG2AzQnG1iWr4BcWi9snV2G4eCQ2XJWo2P8jQ/S3bnBdF4i4jGScXTUCvZy9EVITfLYAodsXwO3fV5GeH4u9U8Vw9DyDHLRH17fy8MvSaVhyMBFyCNG+izmS98zF1M8C8TQnGv4rxsBWPB6b9+/EB8OHYsi7c7B5zwqMsRVj/Ob92PnBcAwdMhCLjkqaMF4WBaHbscDt37iano/YvVMhdvTEmRzFmbLob+Hmug6BcRlIPrsKI3o5wzukACxbgFtHVmKMrRgTfU7g4FJnTJozH5Ps+8DFL0VrIartHwAqY7HHzRPHM+UoT/TH3MEf4Oc0FcmuzqcsOOPBFt3BsVXjIO4xCpsDT2HT3Nlw+3AGhtgNxqrgOzj60WRMX7QMMwfbYcSmqOovNixygrdiySo/hMXexslVwyEeuQFXJXIU3DqClWNsIZ7ogxMHl8J50hzMn2SPPi5+SGFYyLIlMDBrC5atQKlMhuIyOZjUY1g4eAa+e1CI3EgfOIuHY0tUGdh8FfEe6Ib9ISewdoItuo/cgvCaxJJF41s3V6wLjENG8lmsGtELzt4h1ZNXJWL3uMHzeCbk5YnwnzsYH/ycpvKLj/aaUUb1NSql93Fi7QTYdh+JLTWDVRXT1EJkSwxg1pYFW1EKmawYZXIAbA6Cty7BKr8wxN4+iVXDxRi54SoKCpsRNyYVxxYOxozvHqAwNxI+zmIM31ITU02oi3ljz6iLJwBUxu6Bm+dxZMrLkeg/F4M/+BlplU2tld44Hc6lM3DUShb50f5YMcYW4vGbsX/nBxg+dAgGLjqKfI5xN6ApfuTISy4/AWWI+2k+nN0PIiYrBee8POH3qK6icLetg1XSX/PyXZ0vqy+iNk7bEFKmLqcKkMdZKxqYAUH7rngr7xcsnbYEBxUTFLqYJ2PP3Kn4LDAbVQW3cGTlGNiKJ8LnxEEsdZ6EOfMnwb6PC/yUO1PhFwXcPlebi3nc12Zl2ZAYmKEty6KiVAZZcZmKukCoLC2GrLQKoCqUFssge1YGyd3GtY4tCMX2BW7499V05MfuxVSxIzzP5IDVqAsN9nHNEypr8SIcldS0FWhYQ1RpmBvUxaSZc3PNsOqhWocSyJuonabUwkaoqv1pcpW2q66VMpXzhFrbmpPvTalvLwPl/SANYHLoByc9Mpl1kkqJiKiK4ra+S20dt1KCXPH/977oS3rdl1NoBRGRnBK3DST9nqvpRvUmp4obq6mnwRD66g85kfwh7RhkSAO2xFEVEVXdWk+99e1p4/0qxcnPDtEUfXV7Pp/T7yt7k8OaG9VjIaqIXE1v6/Wm9beqNF+byaMTc8fQuujqg0w67R6lS20cNlLN5WuQXlxGYruVFFYzjNIIWmWnSxazf6VchqGc465k6/wDpTNERFUU//Uoat95IZ0uISJ5Im0bqE89V9+o3udVQTdW9ySDIV/RH3IiJn03jdY1oD4rLlO+NIGuBj8gSVU67R6tSwZ9VtDlfCklXA2mBwU5Wo+XyTlOrrbO9INiQFQV/zWNat+ZFp4uIZJepGViO1pZZwxFrLIjXYvZ9GsuQyR/TF8P0yUTxxV0JrWCiGT037nmpDf8a3qsasOTcow09F8RuZp6239O0S+IiBjKDdhGexOUDCBun3LHg4jJ/p6c9Axp8PowypETUcU9+tK+DbUb8jldflpFRFV0/0t70rPxpJByIibvBM0ds47qXLubRum2IYeN96mK5PT462Gka+JIK86kUgURyf47l8z1htPXj+VExFD2906kb+lOF8uJiOT0cMcgMhywheIUoqb1vfXJfuN9qqruu1G8GYZyfnAiPZNZdLKUiEhKF5eJyW5lWO2+w9KIVWSna0Gzf80lpiKSVve2p88VTiQmN4C27U0gZS9q1Lhy7OrDcQ0m5wdy0jOhWYrBqo8pk03fO+mTpftFKlf0Qnkn5tKYddHVucBQ+u5RpNvGgTber2py3OQPd9AgwwG0ReFourW+N+nbN84HBc/o0BT92j3V3DGvD1c8KyhydW+y/zxaEScmlwK27aUEhZOaXCs5dcZZKxlK3z2adA360IrL+SRNuErBD/IpQe24G6K9H7nykstPRKURa6ivzSI6I63uquQ8LbZsU73/lbutMsr6a6puuH2pIU6cOaUhhkrIE7fRQP2etLpugqLVPQ1oyFd/kJyI5I+/pmG6JuS44gwpSvF/aa65Hg3/+rHKvafKfuH2OXcuaro2k/09Oelbkrui6Km8PhFR6S/TSN/UlQJrP1KqdUwOHXe1Jecf0kkhqXj6elR76rzwNJVo0AW3fVrMEyprcc04SfMaQlPOqvBJi+bm+nDqsGna0VQLnx2aQvpq9lSrrf2NbOeqlUrzhAbbmprv2te3l4P6X6oBQGAM47b1bwXIkZaaicra28gidOvWBchOQ5rqOzENEYrhcSQcAZ7WyAz1x85D0ZCyFXhRrsU3pOIL2H/sOQZNGADD6o+E7dqhLbcFdZSF4nRwFh6d94WPjw98dgbghfNmeC8YAIMGJxbh3IFfkWnbDw41e4MMB8HVRYzC88cRJJMi6EQw9Bwc0UkAACK8szoUkqzDcDFq0JFKBAYG0BWYwNFpBDqa9oKTc1+0FxnAQFcAE0cnjOhoil5OzuirH67leAFp0AkE6znAUTEgiN5ZjVBJFg67GKHo3AH8mmmLfnXGYJCrC8SF53E8SAYI26KtkRDG9s5w7qYLwAjiHl0gKJahSIvXAmnqX2QphlX6N5g6ciF2nEpAG9cN+KSXSKkXLp9qigcgaGsEQx1ddOvviE5CALpi2FqJgC79McxSBEAEa6vO0CmWQkpAWehpBGc9wnlfH/j4+GBnwAs4b/bGggEGAIRo29YIQmN7ODt3gy4AI3EPdBEUQ6bSIUKIPY4gPMAT1pmh8N95CNFSFhUvysGqi7dAAGPjtnVbMYrO4cCvmbDt51C779BwkCtcxIU4fzwIMpElxFbp+GbqSCzccQoJbVyx4ZNeUPai9hpXAcc1BMbGqF8GtIspAJQh9HQwsh6dh6+PD3x8diLghTM2ey/AAIOmx00o9sCR8AB4Wmci1H8nDkVLwVa8gDblgzvm9eGKpwiWYiukfzMVIxfuwKmENnDd8Al6KZzUxFqpQWectVIAAwNdCEwc4TSiI0x7OcG5b0e8rXbcDdHej1x5yeWnEgTvO4zUPqMxxrS6K/1usLao2aDK1bYxyvprqm64fakhTpw5pSGGTUTYti2MhMawd3aGohSL0aOLAMWyIqjqraFfNPmcOxebem00ur46lGqdNAgngvXg4NhJcZtc9A5Wh0qQddgFRpy60GSfFvOEylpcfa5WaI63sk9aNDfXh1OHTYuf9rWwMVy1v6HtHLVSGQ22NTXfta9vLwcNktKBToP9NboYNHkC3ky+hktPGAAVeJiUDjOnKRjVtt5pahFA9CIGe5Z4wD+7Hz70GAsLgXLIVcNkP0ZaiQi6bTRmsUrY5wWQvNCDncsarF+/vvbfupVT0bN+oJk8ZDwtA1tZWW+PjgjWVpYQVMoglRYgv7AcsiJpI7Fqi0oLlD7UerxgIMkvRLmsSDGBNIBBXsZTlLGVqKy34UhkbQVLQSVk0mdgoaO091QHQqEOQKwW9mnuH10X4+iV/XA1DsP2Wf3Rc+gKnM5QuiXFSNT7VFM8nrGAjvJeYR0IdNCgLx2BACACwOJ5gQQv9OzgsqbOr+vXr8PKqT0hApQ0D+gIhdABgW00OAUC0QvE7FkCD/9s9PvQA2MtBA2vXe+/az+rN2YmLwNPy1hUNnQirCwFqJRJ8QxdsfjoFex3NUbY9lno33MoVpzOaLQ9R3vNqEDAcQ2dhhoRaBNTAGCfo0DyAnp2LlhTbzzr163E1J6iJsYNgECEFzF7sMTDH9n9PoTHWAtoVz40x7w+6uMpQNfFR3FlvyuMw7ZjVv+eGLriNBSmN71WcutMU61srCr141ZCWz9y5SXX9ZhMJP0hA4QitROM2raqUNJfk3XD6UvuOGnKKe4YNhFlu3SEUJRiNZ3V94smnzc1FzVdGyriooYGtU6Sj8JyGYoaT1YAly402afNPKEya5qGxng38ElL5+Y6NOlQ+/g1rRYqw1n7G9jOVSsb0mTbNOW7tvXtJaFSn+oRoKPLbuxz08O1b7dit+8OnDZYi6Cj7rCu/sIoFAlVLMgIxAAouYhPp3lBMvN7bJ0zAOY1EdTCYB1TM7TDU9yJftJoMVED17UFJp1hYZiEwIPXIK09xiA16AJi629OFXZGj+4mYBLu4G7tJhwWlRWVELzVDw5vWaCrpQHygk7iUlHdcUmQHwKSGQBCKIahZBSR2nGrQuvxQog3u1rCIC8IJ+sGBFYSBL+AFLzZoztMmATcqTMGbGUFKgVvoZ+DRVMFoIQQnTX0T5nxeNrFDXuuJSHhnBf6ZuyD5/arqGjQzZvqfZryJnc8LJpqgQAmnS1gmBSIg9fqPAsmFUEXYlXuU+amBBc/nQYvyUx8v3UOBjRF1NUIO/dAdxMGCXfu1u37YitRUSnAW/0cYEGZiH/aBW57riEp4Ry8+mZgn+d2XG3gxKZoRgWMdtdQnKpFTAFAYILOFoZICjyIhq4OwgWNA2pMycVPMc1Lgpnfb8WcAea1E4BmTzcl5lzxZJAZ/xRd3PbgWlICznn1RcY+T2xX5SQtaiUnTa6VXONuiNZ+5MrL5GL119Npjzfai1AefxcxSq4hlm3SWFsFTl9yx6lFOaWMUAShigU3UVNmBjVo8nkr52JzEb7ZFZYGeQg6eQl1kpIgyC8AyQyHLjTZp2ne1nKe4FpDNJ3Wm5tbT4dNqYWN0br2N6FWtp5tCrSuby8JDUpjwbBUXQgVSC+ux6bM6fh2+zp4froFu7bMh33N7RgIYW7ZCbpZ0bh8Lw/5Dy9g3+EbkMgLkPmkEMV5j5GaV4KM5CcoKc9E2Lko5DBlKM6Jwc34EoBhwIDA1rteDQLzf+D90Qa4+dVcfLTvEm7d/R2HD/2OnFqxc1/7uXA8Fs3phjQ/V4ye642fA0/hiI87Po80gk2Dr2ftMHm5B/pIT2G3f7Li6WE2F1dCMzFs+UcYodcOExfNQpfco1j2/kr8GPgbAnw/hlugCENthYDQHJaddJEVfRn38vLx8MI+HL4hgbwgE08Kn0PxSIccVcpiIUBe/0MjbccLtJu4CLO65OLosvex8sdA/Bbgi4/dAiEaaov2k5fDo48Up3b7I1lhDHKvhCJz2HJ8NEIPYBkwcgJbr5AQKQqVijA0ilE7Df0zmYHY5XcPZdCH9Xte+HKmNQz19JW+eXL5tL2GeABgWLCgBuMlAFT7S1X1f7MsGABG4xdhTrc0+LmOxlzvnxF46gh83D9HpJENRGDBMHIQW2/yUzik2mYB9PX1gGc5yC4qwM3wKDxMzUNJRjKelJQjM+wconIYlBXnIOZmfPVYGsebZVgQsYpfI9pNxnKPPpCe2g1/hRPB5l5BaOYwLP9oBPSYTATu8sO9MkDf+j14fTkT1oZ60Ff+2UWTZjjyC1zXYBmwVOdftTEV6EPhmmwUFdxERKwOxi+ag25pfnAdPRfePwfi1BEfuH8eCSMbURPjxqL4cSrySjKQ/KQE5ZlhOBeVA6asGDkxNxFfUteHAgYMU61jjTGvB1uMx2rjGYvMwF3wUzgJ73l9iZnWhtBTOKmJtZJbZ2yxhlqpKBh1kyDnuBU6rD6xCX7kyEubEvXXu52HKfMn443Ug/jU6zwyKoGK9HuIz2cgzUpHrjRXfdsGY61GSX9N0w00+pIzTpw5xR1DZYTmluikm4Xoy/eQl/8QF/Ydxg2JHAWZT1D4vBwsw0BObL0fZAhUna+Ne1Pyi6Ajt8+LuXNR07UF+vrQwzPkZBeh4GYEYstUxAVAZWUVqLISFfU+a1jrJmLRrC7IPboM76/8EYG/BcD3YzcEiobCVodDw5o0VdxG8zyhphbXoWENUa5FvJV80qK5uT6cOoTG+DXsirsWMorCqXL+V1v7oWw7o75WKs8Tj4dx2ta0fNdQ355JcGWLK/65LaTeAr6VUd5kXUcJJZ7bRBM7C0lk7ULbLyQTEUNZx+eRlZ4OASAdHQG10Tch8x6jyOPoQ8UDEM8iaNv4rmRiYkkOM3dRyMU1NKDHKFq4+Rjdzs+k08sHUidjM+o+0p32hfxCblamZDN5F0XlJtH5jc7USSgkK5ftdCb+mfKASJ59mTZNsaOObU3IesynFBi0iRwNah5U1HDtQoaoNJGOeY4lWzM90jXpSsOWHqb4umcs6lFFaWc30NQBDjR69hL614fzyeObMMqrfXaglBIDPGmsuCMZt7Mkxzm+dD2/7sGCZxHbaHxXEzKxdKCZu0Lo4poB1GPUQtq4/yj9tG4cWQiFZOm8gU7cKSSGkdC9E+tpnIWQhJbOtOHEHSqs6Urr8RKVJgaQ51gxdTRuR5aOc8j3er7iQRAiqko7SxumDiCH0bNpyb8+pPke31BYHkNEMoo95UVO5kJqI55NvhcTKPm6Py0fakoCQwdyPxBBWfWfl3ihOkbq+yequOFFQ7vb0zi3tbTZex0tXepD15QfwiDS4FOOeJQk0tlNE8lSKCKbGTvpXFw6xfy2laZ2FZLIZjr5/N8DenInkDa+Z0lCUTea7hNEKRVEpYnHyHOsLZnp6ZJJ12G09HA8lRKRLPYUeTmZk7CNmGb7XqSE5Ovkv3womQoMycH9AEVkMSRPOUT/FJtRB7EL+UYXU9bp5TSwkzGZdR9J7vtC6Bc3KzK1mUxfBYfRifVK8SaiksRztGliZxKKrMll+wVKLieiqjQ6u2EqDXAYTbOX/Is+nO9B34TlKWJYcYO8hnYn+3FutHazN61bupR8ruXWxrcB6jSjJna1qLtGSSKd2zSROgtFZO2ynS4kl3PEVE4ph/5JYrMOJHbxpejnpIjrMU8aa2tGerom1HXYUjocX9qsuD16cpqWD+xExmbdaaT7Pgr5xY2sTG1o8q4okjUw5gUlnd9Izp2EJLRyoe1n4olIfcwbwqiN566ofLrhNZS6248jt7WbyXvdUlrqc41ymabXynxNOstUVyu/ouCwE7R+nAUJhZbkvOEE3SlkNIy7oXeYLG39SBx5qeF6jJRu/eBGg63MyNTakaZ8spkWD+5GQ+Z8QYeisrjb1kdZf/djmqyblBdZany5i6Jk3HGqIPU5pU2taMgzitg2nrqamJClw0zaFXKR1gzoQaMWbqZjIeF0ysuJzIVtSDzbly4mJNN1/+U01FRAhg7udCAiq2FXyn5JLtfg8xz1uSiL1XxteQod+qeYzDqIycU3mp43un4JpV77kZYP70ACgTmNWeNH/4l6SsWqal1pIgV4jiVxR2NqZ+lIc3yvk6LUt0RTOZzzBCO5p7IWN4JjDRES/h/ueP8R3zgmzZ6bVaBGh1rFr1FXqmvhi6TztNG5EwmFVuSy/Qw1nibU1P5GenimplaS6nlCnW2tPU/IU+iHiW9Sp8n7KVX5Cc5WQofqL/c1wiLrrDf8nr8PNwcWhdJilJSVQJr9ACeP5GBJ0F6MV/qC9TJhErdhsONJjA+7jx3vKv18y8PDw/On8deqlTzq4OPEw8PTemjY/tEQNusoPFc+gM0/+sKmlz0GDhuFseMnYcZMZzi++06jbQk8PDw8/4vwtfL1gI8TDw9Pa9KkX6rZvDP4ZOwCBFQMwJRJQyA2NwBTnInUvDcwbeMWfND91VagivCV6DPuDMYFPcSPTlq8G5OHh4fnFfBXq5U8quHjxMPD05o0aVENAKjIws3zZxEal40yoRms+o/HtH/0QQdtnmhvRZisGzh6/BKSJVVoY2aDsa4fYrRWj9Xz8PDwvAL+IrWSRwN8nHh4eFqJpi+qeXh4eHh4eHh4eHga0KQ91Tw8PDw8PDw8PDw8jeEX1Tw8PDw8PDw8PDwthF9U11CajvsPMuu94vTPhsXz1DikyFT8BXae15hSpN9/gMyXJTS2GGl3IhAVn/sX0rIWvK7jboByzr7cWLPPUxGXImv0cgeel8xfbq54Gbxc7f71UM7dltCafSlRnoW4h3n1cr4cWXEPkfcSLsXTPNQuqtmcaJz8biXeHzUcw0dMwUf/Pobr6TWvL6xAyu/+2Ob+D4xwmosvDlxDSuO3T75GsEj7aQGGDF2CI7l/vjqZzN/h6zYQ3d5xxU9Jal//VEdlJDaN6InhK8/jLzB8Hg7YtJ+wYMhQLDmS2+qLIeZJINZ67MS5qDP4wlmMPvOO4kmzXq/7amk8bj/4LesHu4nbEf1c+ey/Jqpy9qXFmsnE775uGNjtHbj+lKTx1cI8rclfa654Wbw07f4FUZW7zaU1+2oAK8P9Y5/BydYWo7dFoBIsZPeP4TMnW9iO3oYIxYt4ef4KKL0MpiHyBNr2bhsSiT+jiArlg0QvzrtTf/fzKt5K9hpSkkb3YjLohfLnfxIVEZ+RWO9tWhOlwvFKVER/Tu8OWkehRcpHeP56lFDavRjKaG2hMbn0y/TO9N5PEiJiqPCqN83z8KeHnG+NYij/zm1K4TznJaNq3Is/IZdezvRtbGs76eXSOGdfUqyJiCoi6DOxHr29Jkrx1j+eV8dfbK54ObxE7f4FaZy7zac1+2oAk0HfjdEjszn/rdYeQxnfjSE9szn03/+ROL0OqP2lGgCg8wY6mOlAx9gUpirOFLQzw1tvdMDf4i95GlnBoV8X/FX+2rXQ1BQmOsqfqoLB0yedserENowyUz7G89fDCFYO/dCltYVWGY2rEaUwMtEHIEAHpy9xdN8ivM31Z8FKb+K7jYfxqBV/UGkyKsZ9cKk9xuw5Cs8+re2kl0vjnH1JsQYAoSlMtSsQPK3NX2yueDm8RO3+BWmcu82nNftqgMAExkb1OxbAxNgIL+NSPM1HxVK5JZQiIy4ZEhaozEtAZGQi8lVO2CxyYq4gOCgIwdeTIGMBJvsuLgUFIehSNJ6U1Z0ne3wTYddjkFEsQXZOKdicGFwJDkJQ8HUkKRri7qUgBAVdQnRdQ0AuwaObIbgWehupsob3wMsy4pBUwKA8+wFuJRVBcbQcWbGJStsnGEhT7+B6eDSS8jXcX2Gf40lCKp6zDKQp0Qi/mQKly2rRnxxFKbcQFn4fmS+Uj5UhIy4JBUw5sh/cQlJRdedyGeTd+uCN9HuN7GyEWp+weP4kAanPWTDSFESH30SKcl9q26rzJwCUITvuBkLD7yL9ufJNxErkJ0UhNPQmUqTK41bXTo0PVFCWHYcboeG4m/68we3L0ow4JCsEioTISCSqFijYoocIDw5CUFAQgoIjkFzMAniOlBuXEBQUjIhkmeJEDr+gLANxSQVgyrPx4FYSaoZbnhWLxPpC4+iDlT3GzbDriMkohiQ7B6UNjiqoyLiFS5ej8biYQWHiVQRdikRK7bYJ1ZpjC6KxZ+E8+N5KQ8zlYITEF9T6iZGm4s71cEQn5UOVSstz4nEjLAIx6cWNbg2r1oIckkc3EXItFLdTZbX6UDdu3YGLsfTtXCQ32Cioug9AcWv08c0wXI/JQLEkGzmqnKQC9vkTJKQ+B8tIkRIdjpspNf1qW5+gIWdVxLqF2pQXpeBWWDjuq7qYFrFrgFrd/T3qQWvksGpbmjpXNJ7HlNF2XmtUD9gcxFwJRlBQMK4nycCCQfbdSwgKCsKl6Ceoa8mRP9rWKQBgpEi9cx3h0UlobGYT8rAsG3E3QhF+Nx0NQlqagbhkCVhUIi8hEpGJ+Zq3N1XmIykqFKE3U9BQOhw2Vx/nyl255BFuhlxD6O1UFXO5Mtx9qdewKtSdK4CO0gpaoPwB57g165Cn5bTSoppFwa0jWDnGFuKJPjhxcCmcJ83B/En26OPih5RGghSgfde3kPfLUkxbchCJckDYvgvMk/dg7tTPEJjNAKhE7B43eB7PhLw8Ef5zB+ODn9PAtu+Kt/J+wdJpS3BQ0RBdzJOxZ+5UfBaYDQYAk3oMCwfPwHcPCpEb6QNn8XBsiSoDmx8N/xVjYCsej837d+KD4UMxZKAb9oecwNoJtug+cgvCax7MkEXjWzdXrAuMQ0byWawa0QvO3iEoaJQPDDLD98J9oBV6zdmLgC0T0H/QeIwbYgfxWG/cKK4+TVN/ZXH4ab4z3A/GICvlHLw8/fCIAQAW+dH+WDHGFuLxm7F/5wcYPnQIBi46inw1dqpCnU+YzHDsdR8Iq15zsDdgCyb0H4Tx44bATjwW3tWDV9dWtT8X4agEYHOCsXXJKviFxeL2yVUYLh6JDVclYAGwBaHYvsAN/76ajvzYvZgqdoTnmRzFMZXtCpCrxgcSZUPZHARvXYJVfmGIvX0Sq4aLMXLDVRTk3cKRlWNgK54InxMHsdR5EubMnwT7Pi7wayxQCIw6QC/pRyyeMg3b75mis5EAgCHebHsLu33vQNTeUK1fwOYj2n8FxtiKMX7zfuz8YDiGDhkIt/0hOLF2Amy7j8SWaqGp7QNAZeweuHkeR6a8HIn+czH4g5+RpmKGocpSFMtKUQVCVWkxZLJnKGdYDs2xkGVLYGDWFixbgVKZDMVlcgAyRH/rBtd1gYjLSMbZVSPQy9kbIbUiLUbULhdM2RSNKr1iXPh4MOzeHYMJk2bA+7dQ1VrIT8WxhYMx47sHKMyNhI+zGMO3RKFMzbjLJHerfTQK22o2CjLq+0BlLPa4eeJ4phzlif6YO/gD/KzKSfVhMhG+1x0DrXphzt4AbJnQH4PGj8MQOzHGet9AsVb1iStnAVZ6v1GsW6bNMsT9NB/O7gcRk5WCc16e8Ku5GKBF7BqiTnd/p3rQkhxWbUtz5grV85iyQgVazGsq6wHbHl3fysMvS6dhycFEyCFE+y7mSN4zF1M/C0S2YkJUnT9NqFMAIIv+Fm6u6xAYl4Hks6swopczvEOqv4xrnYcscoK3YskqP4TF3sbJVcMhHrkBVwvycOvISoyxFWOizwkcXOqMSXPmY5J9H7j4pahYEEOx7gjdjgVu/8bV9HzE7p0KsaMnzuSw6m2uacqRuwCD1GMLMXjGd3hQmItIH2eIh2+BmqlVQ1/qNKzQvjJNObcxXOPWToc8rYDyfpAGMHm0b4IutRngTfFVygeJKq6voanravb0yenx18NI18SRVpxJpQoikv13LpnrDaevH6vatCmnxG0DSb/narpRvfWo4sZq6mkwhL76Q05UEUmre9vT59HVu4dyA2jb3gSqIiJ54jYaqN+TVtc1pNU9DWjIV3+QnOT0cMcgMhywheKqiKjqFq3vrU/2G+9TFREx6btptK4B9VlxmfKlCXQ1+AFJGIZyfnAiPZNZdLKUiEhKF5eJyW5lWO2+udKIVWSna0Gzf80lpvqzOioocnVPamMxljYFP6UqKqXEA9PJUqhLAzY/oCqN/ZVSxJq+ZLPoDEmrj5ecX0yWbWr2ZTGUvns06Rr0oRWX80macJWCH+RTAoedDeH2SUXkaurZxoLGbgqmp1VEpYkHaLqlkHQHbKYHVdxtVfqzKo9OzB1D66Kr48Ok0+5RutTGYSPdr8ih46625PxDusKPVfH09aj21HnhaSphONpVqfKBRCkWDOWdmEtj1kVXa5Kh9N2jSLeNA228X0Xyx1/TMF0TclxxhlIVAqW55no0/OvHpEqhVBVHW981IMtFZ0hGREQMZR/6mNYEPdfoU2LSafdoXTLos4Iu50sp4WowPZAwxOT8QE56JjTrZKmGPioocnVvsv88WqEZJpcCtu2lhMbBVVD6C03TNyXXwJonHDRpjqHs751I39KdLpZXt7i4jMR2KymsrgGtstMli9m/Ui5DVBW3ld5t60hbExTeqrr3BfXV607LQ6u9rUIL+Qk7aJDhANqiMJBure9N+vYb6X6NHY3GTdU+MqM51RsF5Q/V91ERuZp6239OijLBUG7ANtqr1kn1qIik1T3bkMXYTRSsED0dmG5JQt0BtPlBleb6pDFna+yoiXXLtFkasYb62iyiM3UXo8WWbWr3VGuKXUO4dPd3qgcty2GVtjR1ruCYx5Thntc46oE8kbYN1Keeq29Ua6uCbqzuSQZDvqI/5Nz5o12dIiLpRVomtqOVdQKjiFV2pGsxm37NZbTOQybvBM0ds47qQrqbRum2IYeN96lK/pi+HqZLJo4r6IwiCei/c81Jb/jXpGoJweQcJ1dbZ/ohXRH1qvivaVT7zrTwdAm3zZpyV/6QdgwypAFb4kghi/XUW9+eNtYWrfpo6ItTw/X7IS3OfUaHpujX21NN9OzQFNKv2VPNNe4m6JCnZXD/Ui3QgY6ODgCCytcusgwgrOlCiLZtjSA0toezczfoAjAS90AXQTFkRSpbcyOyhNgqHd9MHYmFO04hoY0rNnzSS4v920KIPY4gPMAT1pmh8N95CNFSFhUvysECEBgYQFdgAkenEeho2gtOzn3RXiCAsXHbur1JRedw4NdM2PZzqN03ZzjIFS7iQpw/HoTqm4b1EMDAQB/CjkMxzckSIhjCzm0LltgT4sLCkFeoob+SYOw7nIo+o8fAtPq4fjdrWNTuhxXAwEAXAhNHOI3oCNNeTnDu2xFvc9jZEM0+0Rd2xNBpTrAUAYZ2btiyxB4UF4awPB2NbRv5szwUp4Oz8Oi8L3x8fOCzMwAvnDfDe8EAGEiDcCJYDw6OnRS3SUTvYHWoBFmHXWBUxtFOpQ/aK91qKUPo6WBkPToPXx8f+PjsRMALZ2z2XoABBoCwbVsYCY1h7+yMbgqBokcXAYplRar1LeqFxR7jUHbaD4FZLMA8wombb2LW2LYafQqBAQx0BTBxdMKIjqbo5eSMvu0FEBgbo22t0Lj6EMFSbIX0b6Zi5MIdOJXQBq4bPkEvzQmgoMkaLsK5A78i07YfHOoawNVFjMLzxxEkA+RpqcisrLsFKerWDV2QjbQ0xf1OVVro+LYHjoQHwNM6E6H+O3EoWgq24gXKG4u0FoGxMdrWC6xQrL4PkaUYVunfYOrIhdhxKgFtXDfgE22cJDCAgb4QHYdOg5NC9HDbsgT2FIewsPp/skoNGnO22o7aWLdEmyUI3ncYqX1GY0zdxWBdezHNsWsIl+7+TvWgZTms0pamzhXNnseUaX494Mof7eoUUHTuAH7NtEW/OoFhkKsLxIXncTxIpnUeloWeRnDWI5z39YGPjw92BryA82ZvLFAkAdoaCWFs7wxnRRJA3KMLBMUyqFpCSINOIFjPAY6dFFEXvbMaoZIsHHYx4rZZU+4KxfA4Eo4AT2tkhvpj56FoSNkKvFBVtDT1xalhJZpyriq4xt1qOuTRRKMa1BADGOoLQGWlKFWhJ/Z5CWBkjBr9KBbgdegIhdABgVWREBoRdMXio1ew39UYYdtnoX/PoVhxOkPNbaCGCEQvELNnCTz8s9HvQw+MtRA0WDQ13oWkGHvN50xeBp6WsaisrPdHOkXWsLIUoFImxTMVvmiEqDve6WEEVFWgLJe7P2l6Ev6QAUIRVzgaj1qTnfVpyrmACN3f6QEjVKGigjS2VR4Z+7wAkhd6sHNZg/Xr19f+W7dyKmyL81FYLkORtPHVudr1FEHFlZRgn6NA8gJ6di5YU6/9+nUrMbWnCKgXYwCAjhBCHYDUClQAi1kemGEcAr+D8Si99Sse954LB93qoxr8onK4OjoN9sWp70OArouP4sp+VxiHbces/j0xdMVpZGiTAM3RMJOHjKdlYCsr6/39XRGsrSwhqJRB+oyF7qDJmPBmMq5degIGQMXDJKSbOWHKqLa1LRqZLBDhRcweLPHwR3a/D+Ex1gICde6uQTlOHH0Iui7G0Sv74Wochu2z+qPn0BU4ra2TlBB1fweKlK3gyA0FTKYWOVs/1i3RJpOJJMXFVBdsLWKnjHrdqeI1rQdAi3NY1RWaNFeg+fNYQ1pQDzjyB1BrZL06xSAv4ynK2Eo0NNMKloJKyKTPAK3ykMXzAgle6NnBZU29HFi/Diun9oQIDWsjoAOhIglUaJOBJL8Q5bIiqJAOp82ac1cA0YsY7FniAf/sfvjQYyws1BQtTX1p1nDzzlUNx7hbsJ7iaRqqlVCLLrrZdIFO1iMklygfY5AW+xTte3atXVQ3FaFIqCJhCMQAYDIR/7QL3PZcQ1LCOXj1zcA+z+24WgFAKIJQxWKdiAFQgoufToOXZCa+3zoHA8xr1Kg6KVQh7NwD3U0YJNy5W7cHi61ERaUAb/VzgIU6rxHV+4WrCmXlLMzteqNLF+7+Or/xBtqLyhF/NwYN/9w3gW08H1bTFDu1OZdA9a5VVVYO1twOvTu/0KJtQwQmnWFhmITAg9cgrf2UQWrQBSR06ApLgzwEnbyEoppDrARBfgH4w0h9u1htNn8JTNDZwhBJgQdxra4DMKlBuKBVBypoOwEebmIkHPoG3ieKMWq2TbXetfGpJrj6YJAZ/xRd3PbgWlICznn1RcY+T2y/qt0fhG+yhoWd0aO7CZiEO7hb70HhyopKCN7qBwcLAQQdXbB7nxv0rn2Lrbt9seO0AdYGHYW7tfoKUHLxU0zzkmDm91sxZ4B57S8jTfISRx9MZjyednHDnmtJSDjnhb4Z++C5/apSHqmHGooe5aw57Hp3hlBDfdJp38ScbYk2ddrjjfYilMffRYySYcSyWsWuIVy6q+FvUA9qeIk5rDHPiGMeU4ZzXuOqB0IopNqoIRgN+aMdQnTu0R0mTALu1AkMbGUFKgVvoZ+DBUirPBTApLMFDJMCcbBhEiDoQmwT9/cK8WZXSxjkBeHkpVrlgJUEwS8gGcUcNmvM3ZKL+HSaFyQzv8fWOQPAJQtNfXFpX1nDTTlXJVzj5lpP8bQqytVWCV0MXrwMwwRXsWfHNeTVfq2pRHaID9Ze6w23CUbVn7FgGDmIrVcUiABiwaqcZYQwt+wE3axoXL6Xh/yHF7Dv8A1I5AXIfFKI56WZCNzlh3tlgL71e/D6ciasDfWgrwMIzS3RSTcL0ZfvIS//IS7sO4wbEjkKMp+gsDgPj1PzUJKRjCcl5cgMO4eoHAZlxTmIuRkPACDIUaUkUpZhQcQqFsXtJmO5Rx9IT+2Gf7LiYSk29wpCM4dh+UcjoNewaS1sQTrSqr98sNlncTa2Nzw+Ggt9Df0ZdJyC+ZPfQOrBT+F1PgOVqED6vXjkM1JkpeeiuAyKzJBX1RUetlijnbVocy5bgPS6wePs2Vj09vgIY3U1t23kT6PxWDSnG9L8XDF6rjd+DjyFIz7u+DzSCDYdJmLRrC7IPboM76/8EYG/BcD3YzcEiobC1oSjnUhxpQY+aIQRxi+ag25pfnAdPRfePwfi1BEfuH8eCSMbEViGgZzYepMPgUBg2eq4q0QEh8VLMUJyHKdoCiZ3qP5YG58SIG8sNLBUXbw5+4hFZuAu+CkSAO95fYmZ1obQ01f1sxKAykpUUSUqK6ot0aA5PQigr68HPMtBdlEBbkakY+xyD/SRnsJu/2TFX45gc3ElNBPDln+EEXoApBexflMmpn+7Hes8P8WWXVsw377mpqeChlpgUfw4FXklGUh+UoLyzDCci8oBU1aMnJibiC9RMW5U+wgElliNfcQmB2KX3z2UQR/W73nhy5nWMNTTh07ZbexdOBn/9L6EHLXBZVGQngaF6llknz2L2N4e+Gisvsb6VGqsRc7Wj3VLtCnoiCnzJ+ON1IP41Os8MiqBivR7iM9nIM1KR25xG0zWFLv6cOru71QPamh+DjeyBU2cKxj185gynPPa81L19UBoDstOusiKvox7efl4eGEfDt+QQF6QiSeFxcjjyJ/4Ei3qFIB2k5fDo48Up3b7Q2Emi9wrocgcthwfjdADk6kmDxv2CqPxizCnWxr8XEdjrvfPCDx1BD7unyPSyAYilgEjV+R9wyUEq/KLaruJizCrSy6OLnsfK38MxG8BvvjYLRCioTYo4bA50YA7d6W5j5GaV4KM5CcoKc9E2Lko5DBlKM6Jwc34hr8uCjTN3TqaNFwPrjwRAQADhqn2R3UTRvEBWBZgiznGHZusVoes5Aq2uP4T20LqfdHhaT7Km6wbw1Dhje9p6bh+ZGc/jJwmjCenUSNo3PwddDmjbpu7LPYUeTmZk7CNmGb7XqSE5Ovkv3womQoMycH9AEVkNXqEhOhZBG0b35VMTCzJYeYuCrm4hgb0GEULNx+j29nXyWtod7If50ZrN3vTuqVLyedazUOCzyhi23jqamJClg4zaVfIRVozoAeNWriZjt3Op6zTy2lgJ2My6z6S3PeF0C9uVmRqM5m+Cg6jE+vHkYVQSJbOG+jEnUJiiKgk8RxtmtiZhCJrctl+gZLLiagqjc5umEoDHEbT7CX/og/ne9A3YXmNH4QhIqIquv9lP9K1GEyz3D+mTz/7mOZNd6UvzqXXPQCnoT9Geot+cBtMVmamZO04hT7ZvJgGdxtCc744SMGXA2j9OAsSCi3JecMJulPIEBGj1s5dUYpHcurgPrfq/pfUT9eCBs9yp48//Yw+njedXL84R+ly7rbq/ElERKWJdMxzLNma6ZGuSVcatvQwxdc8i1aaSAGeY0nc0ZjaWTrSHN/rlF/TUGU7hiT3TqjwgSpKKfGYJ421NSM9XRPqOmwpHY4vJZLF0ikvJzIXtiHxbF+6mJBM1/2X01BTARk6uNOBiCzljuohpd8WTybvB/Uf61Dvl103ntC9E+tpnIWQhJbOtOHEHSpUCI3ObZpInYUisnbZTheSy9T3EZVPN7yGUnf7ceS2djN5r1tKS32uqXjojKgq9Rr9uHw4dRAIyHzMGvL7TxQ9lWvWnDzlEP1TbEYdxC7kG/2ciKoo7ewGmjrAgUbPXkL/+nA+eXwTRnnVDZis4zTPSo90AIKODgna6JOJeQ8a5XGUEnLuqdQCk3Walg/sRMZm3Wmk+z4K+cWNrExtaPKuKCpUNe7iOh91m76DLiaXc/aRf8OLhna3p3Fua2mz9zpautSHruUyxGQdoumdTOkN82HkHaficZyq+/RlP12yGDyL3D/+lD77eB5Nd/2CzilEr4CrPhUyHDl7iKIexyvFurxl2mSkdOsHNxpsZUam1o405ZPNtHhwNxoy5ws6FJWjMXYN4dDu364e1NC0HFZnS5PnioobHPOYMlzzWjZnPXgWsY3GdzUhE0sHmrkrhC6uGUA9Ri2kzcduU36mmvz5KpjCtKpTiieZq9LO0oapA8hh9Gxa8q8Pab7HNxRWLbAKNXmoitLEY+Q51pbM9HTJpOswWno4nkpJRrGnvMjJXEhtxLPJ92ICJV/3p+VDTUlg6EDuByJI1RKiNDGAPMeKqaNxO7J0nEO+1/M11h0Z53x7iKKyMun08oHUydiMuo90p30hv5CblSnZTN5FjaZWTX3lMGo0rNxLNWrPfUFJ5zeScychCa1caPuZeHqRdJ42OnciodCKXLafoXhZlvpx56vXoTzlB5r4ZieavD9VeTQ8zUCHiFTc1OBpGnLEbHTEkDNTEHl3KxyUv4H+xZHHbITjkDOYEnkXW1+3wfO8Mtiss/D2e4733RzAFkpRXFKGEmk2Hpw8gpwlQdg7Xvkn0T+bSkR4fYS77n5YYaO0RUUeg42OQ3BmSiTubnXgH9ipB18PeHh4eJqHhu0fPE1FxV2q14fXevA8LxU2C0c9V+KBzT/Q16YX7AcOw6ix4zFpxkw4O76Ldxrdy/yzYSGJ/AnnO8zDAuUFdQN40auFdw0PDw9Pk+AX1a2CHEVFz8AUSyBVfsvUa4C8qAjPmGJIXsfB87wiRDDtZIDfVwzC2HkrsMF7O7ZtWotl8/+F32yWwr0718L11cNK4xDDTsbmVaNhpnwQAORFKHrGoFgi1fzmwf8x+HrAw8PD0zz47R8tpgIpVw7jP+FpKJaLYGo9GrMWOcGm+k82/dWpSLmCw/8JR1qxHCJTa4yetQhOr8vgeV4xFci6eR5nQ+OQXSaEmVV/jJ/2D/Tp8NdaUGukIgVXDv8H4WnFkItMYT16FhY52YBXPV8PeHh4eFoCv6jm4eHh4eHh4eHhaSH89g8eHh4eHh4eHh6eFsIvqnl4eHh4eHh4eHhaCL+o5uHh4eHh4eHh4Wkh/KKah4eHh4eHh4eHp4Xwi2oeHh4eHh4eHh6eFsIvqnl4eHh4eHh4eHhaCL+o5uHh4eHh4eHh4Wkh/KKah4eHh4eHh4eHp4Xwi2oeHh4eHh4eHh6eFvL/2yI3YHayzqkAAAAASUVORK5CYII=;" parent="1" vertex="1">
          <mxGeometry x="470" y="-190" width="725" height="195" as="geometry" />
        </mxCell>
        <mxCell id="tby80TmxBhAo45sjsNx7-24" value="Usuario" style="whiteSpace=wrap;html=1;align=center;fillColor=#f0a30a;strokeColor=#BD7000;fontColor=#000000;" parent="1" vertex="1">
          <mxGeometry x="775" y="170" width="100" height="40" as="geometry" />
        </mxCell>
        <mxCell id="tby80TmxBhAo45sjsNx7-25" value="" style="endArrow=none;html=1;rounded=0;exitX=0.5;exitY=0;exitDx=0;exitDy=0;" parent="1" source="tby80TmxBhAo45sjsNx7-24" target="tby80TmxBhAo45sjsNx7-26" edge="1">
          <mxGeometry relative="1" as="geometry">
            <mxPoint x="815" y="115" as="sourcePoint" />
            <mxPoint x="875" y="115" as="targetPoint" />
          </mxGeometry>
        </mxCell>
        <mxCell id="tby80TmxBhAo45sjsNx7-26" value="&lt;u&gt;Nick&lt;/u&gt;" style="ellipse;whiteSpace=wrap;html=1;align=center;" parent="1" vertex="1">
          <mxGeometry x="800" y="100" width="50" height="30" as="geometry" />
        </mxCell>
        <mxCell id="tby80TmxBhAo45sjsNx7-27" value="Comentario" style="whiteSpace=wrap;html=1;align=center;fillColor=#f0a30a;strokeColor=#BD7000;fontColor=#000000;" parent="1" vertex="1">
          <mxGeometry x="1095" y="170" width="100" height="40" as="geometry" />
        </mxCell>
        <mxCell id="tby80TmxBhAo45sjsNx7-28" value="Escriben" style="shape=rhombus;perimeter=rhombusPerimeter;whiteSpace=wrap;html=1;align=center;fillColor=#76608a;fontColor=#ffffff;strokeColor=#432D57;" parent="1" vertex="1">
          <mxGeometry x="945" y="170" width="90" height="40" as="geometry" />
        </mxCell>
        <mxCell id="tby80TmxBhAo45sjsNx7-29" value="" style="endArrow=none;html=1;rounded=0;exitX=0;exitY=0.5;exitDx=0;exitDy=0;" parent="1" source="tby80TmxBhAo45sjsNx7-28" edge="1">
          <mxGeometry relative="1" as="geometry">
            <mxPoint x="922" y="160" as="sourcePoint" />
            <mxPoint x="875" y="190" as="targetPoint" />
          </mxGeometry>
        </mxCell>
        <mxCell id="tby80TmxBhAo45sjsNx7-30" value="(1,N)" style="resizable=0;html=1;whiteSpace=wrap;align=right;verticalAlign=bottom;" parent="tby80TmxBhAo45sjsNx7-29" connectable="0" vertex="1">
          <mxGeometry x="1" relative="1" as="geometry">
            <mxPoint x="34" as="offset" />
          </mxGeometry>
        </mxCell>
        <mxCell id="tby80TmxBhAo45sjsNx7-31" value="" style="endArrow=none;html=1;rounded=0;exitX=1;exitY=0.5;exitDx=0;exitDy=0;" parent="1" source="tby80TmxBhAo45sjsNx7-28" edge="1">
          <mxGeometry relative="1" as="geometry">
            <mxPoint x="922" y="160" as="sourcePoint" />
            <mxPoint x="1095" y="190" as="targetPoint" />
          </mxGeometry>
        </mxCell>
        <mxCell id="tby80TmxBhAo45sjsNx7-32" value="(1,N)" style="resizable=0;html=1;whiteSpace=wrap;align=right;verticalAlign=bottom;" parent="tby80TmxBhAo45sjsNx7-31" connectable="0" vertex="1">
          <mxGeometry x="1" relative="1" as="geometry">
            <mxPoint as="offset" />
          </mxGeometry>
        </mxCell>
        <mxCell id="tby80TmxBhAo45sjsNx7-33" value="" style="endArrow=none;html=1;rounded=0;exitX=0.5;exitY=0;exitDx=0;exitDy=0;" parent="1" source="tby80TmxBhAo45sjsNx7-27" target="tby80TmxBhAo45sjsNx7-34" edge="1">
          <mxGeometry relative="1" as="geometry">
            <mxPoint x="1095" y="110" as="sourcePoint" />
            <mxPoint x="1155" y="110" as="targetPoint" />
          </mxGeometry>
        </mxCell>
        <mxCell id="tby80TmxBhAo45sjsNx7-34" value="&lt;u&gt;ID_Comentario&lt;/u&gt;" style="ellipse;whiteSpace=wrap;html=1;align=center;" parent="1" vertex="1">
          <mxGeometry x="1100" y="95" width="95" height="30" as="geometry" />
        </mxCell>
        <mxCell id="tby80TmxBhAo45sjsNx7-35" value="FotografÃ­a" style="whiteSpace=wrap;html=1;align=center;fillColor=#f0a30a;strokeColor=#BD7000;fontColor=#000000;" parent="1" vertex="1">
          <mxGeometry x="460" y="170" width="100" height="40" as="geometry" />
        </mxCell>
        <mxCell id="tby80TmxBhAo45sjsNx7-36" value="Aparece" style="shape=rhombus;perimeter=rhombusPerimeter;whiteSpace=wrap;html=1;align=center;fillColor=#76608a;fontColor=#ffffff;strokeColor=#432D57;" parent="1" vertex="1">
          <mxGeometry x="625" y="170" width="90" height="40" as="geometry" />
        </mxCell>
        <mxCell id="tby80TmxBhAo45sjsNx7-37" value="" style="endArrow=none;html=1;rounded=0;exitX=0;exitY=0.5;exitDx=0;exitDy=0;" parent="1" source="tby80TmxBhAo45sjsNx7-36" edge="1">
          <mxGeometry relative="1" as="geometry">
            <mxPoint x="602" y="160" as="sourcePoint" />
            <mxPoint x="555" y="190" as="targetPoint" />
          </mxGeometry>
        </mxCell>
        <mxCell id="tby80TmxBhAo45sjsNx7-38" value="(1,N)" style="resizable=0;html=1;whiteSpace=wrap;align=right;verticalAlign=bottom;" parent="tby80TmxBhAo45sjsNx7-37" connectable="0" vertex="1">
          <mxGeometry x="1" relative="1" as="geometry">
            <mxPoint x="34" as="offset" />
          </mxGeometry>
        </mxCell>
        <mxCell id="tby80TmxBhAo45sjsNx7-39" value="" style="endArrow=none;html=1;rounded=0;exitX=1;exitY=0.5;exitDx=0;exitDy=0;" parent="1" source="tby80TmxBhAo45sjsNx7-36" edge="1">
          <mxGeometry relative="1" as="geometry">
            <mxPoint x="602" y="160" as="sourcePoint" />
            <mxPoint x="775" y="190" as="targetPoint" />
          </mxGeometry>
        </mxCell>
        <mxCell id="tby80TmxBhAo45sjsNx7-40" value="(1,N)" style="resizable=0;html=1;whiteSpace=wrap;align=right;verticalAlign=bottom;" parent="tby80TmxBhAo45sjsNx7-39" connectable="0" vertex="1">
          <mxGeometry x="1" relative="1" as="geometry">
            <mxPoint as="offset" />
          </mxGeometry>
        </mxCell>
        <mxCell id="tby80TmxBhAo45sjsNx7-41" value="" style="endArrow=none;html=1;rounded=0;exitX=0.5;exitY=0;exitDx=0;exitDy=0;" parent="1" source="tby80TmxBhAo45sjsNx7-35" target="tby80TmxBhAo45sjsNx7-42" edge="1">
          <mxGeometry relative="1" as="geometry">
            <mxPoint x="460" y="95" as="sourcePoint" />
            <mxPoint x="520" y="95" as="targetPoint" />
          </mxGeometry>
        </mxCell>
        <mxCell id="tby80TmxBhAo45sjsNx7-42" value="&lt;u&gt;ID_FotografÃ­a&lt;/u&gt;" style="ellipse;whiteSpace=wrap;html=1;align=center;" parent="1" vertex="1">
          <mxGeometry x="462.5" y="80" width="95" height="30" as="geometry" />
        </mxCell>
        <mxCell id="g7_WcWtdG0JX1u72Nw5H-1" value="" style="endArrow=none;html=1;rounded=0;exitX=0.75;exitY=0;exitDx=0;exitDy=0;" edge="1" target="g7_WcWtdG0JX1u72Nw5H-2" parent="1" source="tby80TmxBhAo45sjsNx7-24">
          <mxGeometry relative="1" as="geometry">
            <mxPoint x="890" y="95" as="sourcePoint" />
            <mxPoint x="950" y="95" as="targetPoint" />
          </mxGeometry>
        </mxCell>
        <mxCell id="g7_WcWtdG0JX1u72Nw5H-2" value="Clave_Acceso" style="ellipse;whiteSpace=wrap;html=1;align=center;" vertex="1" parent="1">
          <mxGeometry x="810" y="70" width="95" height="30" as="geometry" />
        </mxCell>
        <mxCell id="g7_WcWtdG0JX1u72Nw5H-4" value="Correo_ElectrÃ³nico" style="ellipse;whiteSpace=wrap;html=1;align=center;" vertex="1" parent="1">
          <mxGeometry x="840" y="40" width="125" height="30" as="geometry" />
        </mxCell>
        <mxCell id="g7_WcWtdG0JX1u72Nw5H-6" value="" style="endArrow=none;html=1;rounded=0;exitX=0.25;exitY=0;exitDx=0;exitDy=0;" edge="1" target="g7_WcWtdG0JX1u72Nw5H-7" parent="1" source="tby80TmxBhAo45sjsNx7-27">
          <mxGeometry relative="1" as="geometry">
            <mxPoint x="1035" y="95" as="sourcePoint" />
            <mxPoint x="1095" y="95" as="targetPoint" />
          </mxGeometry>
        </mxCell>
        <mxCell id="g7_WcWtdG0JX1u72Nw5H-7" value="Texto" style="ellipse;whiteSpace=wrap;html=1;align=center;" vertex="1" parent="1">
          <mxGeometry x="1050" y="65" width="50" height="30" as="geometry" />
        </mxCell>
        <mxCell id="g7_WcWtdG0JX1u72Nw5H-8" value="" style="endArrow=none;html=1;rounded=0;exitX=0.95;exitY=0;exitDx=0;exitDy=0;exitPerimeter=0;" edge="1" target="g7_WcWtdG0JX1u72Nw5H-9" parent="1" source="tby80TmxBhAo45sjsNx7-27">
          <mxGeometry relative="1" as="geometry">
            <mxPoint x="1180" y="65" as="sourcePoint" />
            <mxPoint x="1240" y="65" as="targetPoint" />
            <Array as="points">
              <mxPoint x="1200" y="130" />
            </Array>
          </mxGeometry>
        </mxCell>
        <mxCell id="g7_WcWtdG0JX1u72Nw5H-9" value="Fecha" style="ellipse;whiteSpace=wrap;html=1;align=center;" vertex="1" parent="1">
          <mxGeometry x="1215" y="50" width="50" height="30" as="geometry" />
        </mxCell>
        <mxCell id="g7_WcWtdG0JX1u72Nw5H-10" value="" style="endArrow=none;html=1;rounded=0;exitX=0.75;exitY=0;exitDx=0;exitDy=0;" edge="1" target="g7_WcWtdG0JX1u72Nw5H-11" parent="1" source="tby80TmxBhAo45sjsNx7-35">
          <mxGeometry relative="1" as="geometry">
            <mxPoint x="600" y="95" as="sourcePoint" />
            <mxPoint x="660" y="95" as="targetPoint" />
          </mxGeometry>
        </mxCell>
        <mxCell id="g7_WcWtdG0JX1u72Nw5H-11" value="Nombre_Archivo" style="ellipse;whiteSpace=wrap;html=1;align=center;" vertex="1" parent="1">
          <mxGeometry x="520" y="50" width="95" height="30" as="geometry" />
        </mxCell>
        <mxCell id="g7_WcWtdG0JX1u72Nw5H-12" value="" style="endArrow=none;html=1;rounded=0;exitX=0.25;exitY=0;exitDx=0;exitDy=0;" edge="1" target="g7_WcWtdG0JX1u72Nw5H-13" parent="1" source="tby80TmxBhAo45sjsNx7-35">
          <mxGeometry relative="1" as="geometry">
            <mxPoint x="340" y="85" as="sourcePoint" />
            <mxPoint x="400" y="85" as="targetPoint" />
          </mxGeometry>
        </mxCell>
        <mxCell id="g7_WcWtdG0JX1u72Nw5H-13" value="DescripciÃ³n" style="ellipse;whiteSpace=wrap;html=1;align=center;" vertex="1" parent="1">
          <mxGeometry x="350" y="70" width="75" height="30" as="geometry" />
        </mxCell>
      </root>
    </mxGraphModel>
  </diagram>
</mxfile>
